if (_typeface_js && _typeface_js.loadFace) _typeface_js.loadFace({"glyphs":{"0":{"ha":772,"x_min":58,"x_max":759,"o":"m 491 970 q 759 654 759 970 q 733 451 759 576 q 324 -14 635 -14 q 123 66 189 -14 q 58 308 58 146 q 88 541 58 402 q 172 776 118 680 q 304 921 225 871 q 491 970 382 970 m 337 136 q 464 209 416 136 q 543 444 512 282 q 574 663 574 606 q 471 821 574 821 q 376 789 412 821 q 314 686 340 757 q 266 476 289 615 q 243 281 243 338 q 337 136 243 136 z "},"1":{"ha":772,"x_min":22,"x_max":698,"o":"m 22 0 l 52 157 l 288 157 l 410 781 l 151 636 l 183 800 l 452 956 l 635 956 l 479 157 l 698 157 l 668 0 l 22 0 z "},"2":{"ha":772,"x_min":-22,"x_max":758,"o":"m -22 0 l 3 132 q 80 238 37 190 q 175 330 123 286 q 349 459 226 374 q 486 566 449 530 q 542 641 522 603 q 562 721 562 679 q 452 818 562 818 q 356 788 393 818 q 301 693 319 758 l 121 733 q 243 912 157 854 q 466 970 330 970 q 683 910 608 970 q 758 734 758 851 q 730 610 758 669 q 644 496 701 551 q 458 355 587 441 q 316 248 369 294 q 233 157 262 201 l 676 157 l 646 0 l -22 0 z "},"3":{"ha":772,"x_min":11,"x_max":757,"o":"m 363 562 q 514 602 464 562 q 564 713 564 641 q 537 790 564 762 q 457 818 511 818 q 296 693 331 818 l 115 728 q 465 970 184 970 q 680 908 602 970 q 757 736 757 846 q 691 566 757 631 q 512 492 625 502 l 511 489 q 651 421 603 475 q 699 283 699 368 q 654 131 699 199 q 530 24 610 62 q 347 -14 450 -14 q 107 50 193 -14 q 11 233 22 113 l 202 258 q 245 169 210 197 q 355 140 280 140 q 466 178 426 140 q 505 282 505 216 q 356 408 505 408 l 283 408 l 313 562 l 363 562 z "},"4":{"ha":772,"x_min":-23,"x_max":749,"o":"m 593 194 l 556 0 l 374 0 l 411 194 l -23 194 l 5 334 l 491 956 l 742 956 l 621 336 l 749 336 l 720 194 l 593 194 m 543 818 q 463 703 511 765 l 176 336 l 439 336 l 509 692 q 543 818 521 753 z "},"5":{"ha":772,"x_min":14,"x_max":789,"o":"m 214 956 l 789 956 l 760 799 l 357 799 l 298 572 q 327 594 310 583 q 364 614 343 605 q 412 628 385 623 q 471 633 438 633 q 653 557 584 633 q 722 351 722 480 q 674 159 722 242 q 536 31 626 76 q 330 -14 447 -14 q 114 46 195 -14 q 14 223 33 106 l 205 254 q 250 165 218 191 q 346 140 282 140 q 479 192 431 140 q 528 330 528 243 q 494 440 528 401 q 399 479 460 479 q 262 418 316 479 l 77 418 l 214 956 z "},"6":{"ha":772,"x_min":64,"x_max":780,"o":"m 361 -14 q 142 77 219 -14 q 64 330 64 167 q 121 660 64 513 q 279 889 178 808 q 505 970 380 970 q 697 913 627 970 q 780 750 768 857 l 600 722 q 565 795 590 772 q 495 819 540 819 q 359 741 417 819 q 275 506 302 663 q 367 585 311 555 q 492 615 422 615 q 667 547 603 615 q 731 361 731 479 q 684 172 731 259 q 552 36 636 85 q 361 -14 467 -14 m 250 291 q 283 178 250 220 q 378 136 317 136 q 494 191 451 136 q 537 338 537 246 q 505 439 537 404 q 416 475 473 475 q 332 452 371 475 q 272 387 294 429 q 250 291 250 345 z "},"7":{"ha":772,"x_min":97,"x_max":827,"o":"m 127 956 l 827 956 l 797 804 l 687 673 q 433 318 511 465 q 320 0 355 171 l 118 0 q 188 228 142 123 q 298 427 235 332 q 440 612 361 522 q 606 799 518 703 l 97 799 l 127 956 z "},"8":{"ha":772,"x_min":18,"x_max":770,"o":"m 479 969 q 692 907 614 969 q 770 740 770 845 q 712 581 770 645 q 556 504 654 517 l 555 501 q 671 424 631 479 q 711 293 711 369 q 611 69 711 152 q 334 -14 510 -14 q 101 55 184 -14 q 18 244 18 123 q 82 410 18 344 q 262 500 146 477 l 262 503 q 167 585 199 530 q 135 713 135 640 q 228 901 135 833 q 479 969 321 969 m 439 570 q 540 610 503 570 q 577 722 577 650 q 460 836 577 836 q 359 798 396 836 q 323 692 323 760 q 353 601 323 633 q 439 570 384 570 m 380 434 q 258 386 302 434 q 215 256 215 338 q 251 156 215 191 q 353 121 288 121 q 471 170 426 121 q 515 301 515 218 q 479 400 515 366 q 380 434 444 434 z "},"9":{"ha":772,"x_min":33,"x_max":766,"o":"m 554 443 q 460 366 510 391 q 339 341 410 341 q 165 414 230 341 q 100 606 100 486 q 148 791 100 707 q 281 923 196 876 q 469 970 366 970 q 686 883 605 970 q 766 649 766 795 q 733 402 766 532 q 642 177 701 271 q 503 34 583 82 q 325 -14 422 -14 q 126 45 201 -14 q 33 211 51 103 l 218 243 q 338 137 238 137 q 554 443 496 137 m 580 684 q 546 782 580 743 q 460 821 512 821 q 338 764 382 821 q 293 610 293 707 q 326 517 293 553 q 414 481 358 481 q 536 536 492 481 q 580 684 580 590 z "}," ":{"ha":386,"x_min":0,"x_max":0,"o":""},"!":{"ha":463,"x_min":54,"x_max":439,"o":"m 287 289 l 131 289 l 239 956 l 439 956 l 287 289 m 54 0 l 89 183 l 284 183 l 249 0 l 54 0 z "},"\"":{"ha":659,"x_min":149,"x_max":673,"o":"m 586 609 l 437 609 l 486 956 l 673 956 l 586 609 m 297 609 l 149 609 l 197 956 l 382 956 l 297 609 z "},"#":{"ha":772,"x_min":44,"x_max":770,"o":"m 637 585 l 590 359 l 736 359 l 736 258 l 569 258 l 513 0 l 408 0 l 462 258 l 254 258 l 199 0 l 96 0 l 149 258 l 44 258 l 44 359 l 172 359 l 219 585 l 79 585 l 79 685 l 240 685 l 297 946 l 401 946 l 345 685 l 553 685 l 610 946 l 716 946 l 659 685 l 770 685 l 770 585 l 637 585 m 325 585 l 276 359 l 486 359 l 533 585 l 325 585 z "},"$":{"ha":772,"x_min":-7,"x_max":785,"o":"m 732 321 q 637 99 732 177 q 350 14 541 22 l 328 -103 l 252 -103 l 273 16 q 77 79 154 16 q -7 248 1 142 l 170 277 q 302 157 180 157 l 351 420 q 163 515 229 450 q 98 670 98 579 q 140 815 98 753 q 267 911 182 876 q 456 945 351 945 l 472 1031 l 547 1028 l 528 940 q 707 886 638 940 q 785 739 776 833 l 608 700 q 571 780 598 752 q 503 807 543 807 l 457 568 q 666 474 599 534 q 732 321 732 414 m 549 280 q 519 360 549 332 q 425 402 490 387 l 376 157 q 502 190 454 157 q 549 280 549 223 m 279 682 q 301 627 279 649 q 384 585 323 605 l 429 810 q 321 774 362 810 q 279 682 279 738 z "},"%":{"ha":1235,"x_min":76,"x_max":1196,"o":"m 370 964 q 526 910 472 964 q 580 755 580 856 q 562 634 580 699 q 501 480 543 541 q 403 387 460 419 q 276 355 347 355 q 128 412 180 355 q 76 570 76 469 q 92 688 76 631 q 370 964 149 964 m 370 861 q 286 821 317 861 q 238 695 256 780 q 220 561 220 611 q 279 465 220 465 q 365 508 332 465 q 416 641 398 552 q 435 767 435 715 q 370 861 435 861 m 987 598 q 1142 544 1088 598 q 1196 389 1196 490 q 1179 269 1196 334 q 1118 115 1159 176 q 1020 22 1076 54 q 892 -10 963 -10 q 744 47 796 -10 q 692 205 692 104 q 709 323 692 265 q 987 598 766 598 m 986 496 q 903 455 933 496 q 854 330 872 414 q 837 195 837 245 q 895 99 837 99 q 982 143 949 99 q 1032 275 1015 186 q 1051 401 1051 349 q 986 496 1051 496 m 330 0 l 196 0 l 932 956 l 1067 956 l 330 0 z "},"&":{"ha":1003,"x_min":33,"x_max":913,"o":"m 33 240 q 322 550 33 450 q 305 625 312 583 q 298 703 298 668 q 376 890 298 820 q 589 961 454 961 q 756 915 696 961 q 817 787 817 869 q 786 677 817 725 q 697 590 755 629 q 499 493 639 550 q 554 364 528 412 q 616 268 580 316 q 774 515 706 364 l 901 459 q 820 312 871 389 q 713 177 769 235 q 838 134 764 134 q 913 144 880 134 l 886 7 q 792 -8 842 -8 q 585 71 674 -8 q 502 19 537 34 q 420 -5 467 3 q 315 -14 373 -14 q 106 52 178 -14 q 33 240 33 117 m 334 115 q 419 131 377 115 q 492 169 461 146 q 356 428 408 280 q 239 345 272 390 q 206 244 206 300 q 241 151 206 186 q 334 115 277 115 m 452 706 q 466 608 452 651 q 596 666 562 644 q 647 713 630 687 q 665 774 665 740 q 642 827 665 809 q 580 846 619 846 q 487 808 522 846 q 452 706 452 771 z "},"'":{"ha":330,"x_min":134,"x_max":368,"o":"m 283 609 l 134 609 l 184 956 l 368 956 l 283 609 z "},"(":{"ha":463,"x_min":50,"x_max":593,"o":"m 593 1006 q 237 190 237 667 q 337 -288 237 -81 l 151 -288 q 50 201 50 -74 q 140 652 50 447 q 402 1006 229 858 l 593 1006 z "},")":{"ha":463,"x_min":-122,"x_max":422,"o":"m -122 -288 q 234 549 234 60 q 207 787 234 664 q 133 1006 180 909 l 313 1006 q 422 538 422 789 q 331 73 422 283 q 68 -288 240 -138 l -122 -288 z "},"*":{"ha":541,"x_min":60,"x_max":595,"o":"m 389 770 l 549 840 l 595 707 l 425 665 l 551 521 l 427 439 l 328 610 l 227 439 l 100 522 l 229 665 l 60 707 l 106 840 l 268 770 l 256 956 l 401 956 l 389 770 z "},"+":{"ha":811,"x_min":85,"x_max":781,"o":"m 509 386 l 509 109 l 355 109 l 355 386 l 85 386 l 85 538 l 355 538 l 355 814 l 509 814 l 509 538 l 781 538 l 781 386 l 509 386 z "},",":{"ha":386,"x_min":-14,"x_max":267,"o":"m 112 -215 l -14 -215 q 74 -106 39 -162 q 119 0 109 -50 l 31 0 l 71 207 l 267 207 l 235 45 q 191 -99 220 -37 q 112 -215 161 -161 z "},"-":{"ha":463,"x_min":38,"x_max":422,"o":"m 38 277 l 70 443 l 422 443 l 391 277 l 38 277 z "},".":{"ha":386,"x_min":31,"x_max":267,"o":"m 31 0 l 71 207 l 267 207 l 227 0 l 31 0 z "},"/":{"ha":386,"x_min":-52,"x_max":508,"o":"m -52 -28 l 347 1006 l 508 1006 l 113 -28 l -52 -28 z "},":":{"ha":463,"x_min":60,"x_max":392,"o":"m 159 510 l 197 701 l 392 701 l 355 510 l 159 510 m 60 0 l 98 191 l 293 191 l 256 0 l 60 0 z "},";":{"ha":463,"x_min":16,"x_max":392,"o":"m 159 510 l 197 701 l 392 701 l 355 510 l 159 510 m 140 -215 l 16 -215 q 103 -106 68 -162 q 148 0 138 -50 l 60 0 l 98 191 l 293 191 l 264 45 q 220 -98 249 -37 q 140 -215 191 -160 z "},"<":{"ha":811,"x_min":84,"x_max":781,"o":"m 84 350 l 84 568 l 781 833 l 781 679 l 216 458 l 781 239 l 781 85 l 84 350 z "},"=":{"ha":811,"x_min":83,"x_max":780,"o":"m 83 571 l 83 722 l 780 722 l 780 571 l 83 571 m 83 197 l 83 347 l 780 347 l 780 197 l 83 197 z "},">":{"ha":811,"x_min":84,"x_max":781,"o":"m 84 85 l 84 239 l 648 458 l 84 679 l 84 833 l 781 568 l 781 350 l 84 85 z "},"?":{"ha":848,"x_min":125,"x_max":820,"o":"m 505 970 q 735 906 650 970 q 820 729 820 842 q 794 620 820 668 q 723 531 769 572 q 570 431 677 490 q 498 378 517 396 q 467 338 479 359 q 452 289 456 317 l 271 289 q 301 380 280 341 q 355 451 322 419 q 468 532 388 482 q 546 583 515 561 q 595 626 576 606 q 621 668 613 647 q 628 715 628 689 q 595 786 628 758 q 494 814 563 814 q 305 684 340 814 l 125 711 q 505 970 204 970 m 210 0 l 245 183 l 441 183 l 406 0 l 210 0 z "},"@":{"ha":1354,"x_min":102,"x_max":1296,"o":"m 1296 512 q 1253 287 1296 389 q 1134 128 1210 185 q 970 71 1058 71 q 874 101 907 71 q 840 187 840 132 q 844 233 840 212 l 840 233 q 740 116 806 161 q 603 71 673 71 q 438 139 496 71 q 379 332 379 208 q 423 539 379 442 q 544 691 467 636 q 718 747 622 747 q 897 629 850 747 l 901 629 l 928 732 l 1034 732 l 954 389 q 929 226 929 272 q 945 178 929 192 q 982 163 961 163 q 1086 211 1036 163 q 1164 337 1135 258 q 1193 511 1193 416 q 1141 721 1193 629 q 991 861 1089 812 q 764 911 894 911 q 477 840 602 911 q 282 634 353 768 q 212 333 212 500 q 266 101 212 201 q 417 -51 319 1 q 646 -102 515 -102 q 1046 3 846 -102 l 1088 -79 q 865 -172 974 -144 q 642 -199 756 -199 q 360 -135 481 -199 q 170 53 238 -70 q 102 333 102 175 q 188 680 102 525 q 425 921 273 836 q 763 1006 576 1006 q 1048 945 928 1006 q 1233 772 1169 884 q 1296 512 1296 660 m 857 509 q 817 614 857 574 q 713 655 777 655 q 598 613 649 655 q 520 493 548 570 q 492 333 492 415 q 525 211 492 256 q 625 166 557 166 q 712 195 670 166 q 788 277 755 223 q 839 400 821 331 q 857 509 857 469 z "},"A":{"ha":1003,"x_min":-28,"x_max":903,"o":"m 705 0 l 667 244 l 303 244 l 171 0 l -28 0 l 505 956 l 741 956 l 903 0 l 705 0 m 594 808 q 528 665 580 765 l 384 395 l 652 395 l 606 701 q 594 808 594 793 z "},"B":{"ha":1003,"x_min":24,"x_max":951,"o":"m 210 956 l 606 956 q 864 900 777 956 q 951 734 951 844 q 896 582 951 642 q 732 500 840 523 q 876 429 824 485 q 928 292 928 373 q 822 75 928 149 q 503 0 715 0 l 24 0 l 210 956 m 335 570 l 534 570 q 703 602 653 570 q 753 704 753 633 q 714 783 753 758 q 585 807 675 807 l 380 807 l 335 570 m 253 149 l 475 149 q 672 183 617 149 q 727 296 727 217 q 681 390 727 357 q 530 422 635 422 l 307 422 l 253 149 z "},"C":{"ha":1003,"x_min":68,"x_max":1019,"o":"m 272 389 q 330 207 272 271 q 496 143 388 143 q 779 318 676 143 l 933 239 q 482 -14 791 -14 q 259 35 353 -14 q 116 175 165 84 q 68 386 68 265 q 139 691 68 557 q 338 898 210 826 q 629 970 466 970 q 885 903 785 970 q 1019 704 985 836 l 833 656 q 758 770 814 728 q 623 812 703 812 q 365 699 458 812 q 272 389 272 585 z "},"D":{"ha":1003,"x_min":24,"x_max":964,"o":"m 498 956 q 844 850 724 956 q 964 547 964 745 q 897 264 964 387 q 702 71 829 142 q 416 0 574 0 l 24 0 l 210 956 l 498 956 m 254 155 l 410 155 q 603 201 519 155 q 731 335 686 248 q 777 538 777 422 q 705 734 777 667 q 499 801 633 801 l 380 801 l 254 155 z "},"E":{"ha":926,"x_min":24,"x_max":961,"o":"m 24 0 l 210 956 l 961 956 l 931 801 l 380 801 l 333 561 l 843 561 l 813 406 l 303 406 l 254 155 l 833 155 l 803 0 l 24 0 z "},"F":{"ha":848,"x_min":24,"x_max":878,"o":"m 380 801 l 322 505 l 775 505 l 745 351 l 292 351 l 224 0 l 24 0 l 210 956 l 878 956 l 848 801 l 380 801 z "},"G":{"ha":1080,"x_min":68,"x_max":1038,"o":"m 502 -13 q 183 95 298 -13 q 68 395 68 202 q 139 696 68 565 q 339 899 210 828 q 639 970 469 970 q 898 900 793 970 q 1038 705 1002 830 l 846 652 q 770 770 827 728 q 628 812 714 812 q 439 762 520 812 q 314 617 357 711 q 271 401 271 524 q 335 212 271 281 q 518 143 400 143 q 661 161 591 143 q 779 208 730 178 l 810 363 l 578 363 l 604 504 l 1021 504 l 949 119 q 738 17 844 46 q 502 -13 632 -13 z "},"H":{"ha":1003,"x_min":24,"x_max":1027,"o":"m 648 0 l 728 410 l 304 410 l 224 0 l 24 0 l 210 956 l 410 956 l 336 575 l 760 575 l 834 956 l 1027 956 l 841 0 l 648 0 z "},"I":{"ha":386,"x_min":24,"x_max":410,"o":"m 24 0 l 210 956 l 410 956 l 224 0 l 24 0 z "},"J":{"ha":772,"x_min":17,"x_max":796,"o":"m 326 -14 q 120 52 197 -14 q 17 257 43 117 l 198 296 q 338 143 229 143 q 400 159 375 143 q 441 205 425 176 q 470 298 458 235 l 567 799 l 376 799 l 406 956 l 796 956 l 665 287 q 553 58 635 130 q 326 -14 472 -14 z "},"K":{"ha":1003,"x_min":24,"x_max":1087,"o":"m 675 0 l 434 434 l 291 351 l 222 0 l 24 0 l 210 956 l 410 956 l 321 522 l 837 956 l 1087 956 l 581 538 l 896 0 l 675 0 z "},"L":{"ha":848,"x_min":24,"x_max":767,"o":"m 24 0 l 210 956 l 410 956 l 254 155 l 767 155 l 736 0 l 24 0 z "},"M":{"ha":1157,"x_min":24,"x_max":1181,"o":"m 818 0 l 935 600 q 985 818 952 688 l 938 715 q 861 553 884 597 l 581 0 l 439 0 l 375 555 q 348 818 354 753 q 319 602 329 652 l 202 0 l 24 0 l 210 956 l 478 956 l 538 421 l 555 234 q 600 332 579 288 q 915 956 621 376 l 1181 956 l 996 0 l 818 0 z "},"N":{"ha":1003,"x_min":24,"x_max":1027,"o":"m 600 0 l 346 767 q 320 605 330 657 l 202 0 l 24 0 l 210 956 l 448 956 l 703 182 l 711 237 q 731 355 719 294 l 849 956 l 1027 956 l 841 0 l 600 0 z "},"O":{"ha":1080,"x_min":68,"x_max":1057,"o":"m 629 970 q 943 864 828 970 q 1057 577 1057 759 q 986 272 1057 410 q 786 60 914 134 q 493 -14 658 -14 q 266 35 362 -14 q 118 175 169 84 q 68 389 68 267 q 139 686 68 548 q 338 897 211 824 q 629 970 465 970 m 620 812 q 433 761 510 812 q 313 608 355 710 q 271 394 271 505 q 332 207 271 269 q 503 144 393 144 q 689 195 612 144 q 809 346 766 245 q 851 561 851 446 q 792 746 851 680 q 620 812 732 812 z "},"P":{"ha":926,"x_min":24,"x_max":928,"o":"m 576 956 q 836 880 743 956 q 928 669 928 804 q 824 427 928 517 q 546 336 720 336 l 290 336 l 224 0 l 24 0 l 210 956 l 576 956 m 319 490 l 515 490 q 673 530 621 490 q 726 659 726 569 q 682 764 726 728 q 557 800 639 800 l 380 800 l 319 490 z "},"Q":{"ha":1080,"x_min":68,"x_max":1057,"o":"m 629 970 q 943 864 828 970 q 1057 577 1057 759 q 1044 440 1057 505 q 986 273 1025 349 q 890 140 947 197 q 760 46 833 83 q 598 -5 686 9 q 642 -102 611 -72 q 733 -132 673 -132 q 835 -122 787 -132 l 804 -254 q 690 -271 755 -271 q 484 -208 556 -271 q 396 -6 412 -144 q 255 41 316 7 q 152 126 193 75 q 89 244 110 178 q 68 389 68 311 q 139 686 68 548 q 338 897 211 824 q 629 970 465 970 m 620 812 q 433 761 510 812 q 313 608 355 710 q 271 394 271 505 q 332 207 271 269 q 503 144 393 144 q 689 195 612 144 q 809 346 766 245 q 851 561 851 446 q 792 746 851 680 q 620 812 732 812 z "},"R":{"ha":1003,"x_min":24,"x_max":994,"o":"m 685 0 l 529 362 l 294 362 l 224 0 l 24 0 l 210 956 l 652 956 q 837 922 760 956 q 954 827 913 889 q 994 682 994 766 q 920 492 994 570 q 720 395 846 414 l 906 0 l 685 0 m 591 518 q 740 558 690 518 q 791 671 791 597 q 748 767 791 734 q 627 800 705 800 l 380 800 l 325 518 l 591 518 z "},"S":{"ha":926,"x_min":17,"x_max":912,"o":"m 407 -14 q 131 51 226 -14 q 17 248 36 115 l 213 281 q 276 171 227 205 q 420 136 326 136 q 654 271 654 136 q 614 357 654 326 q 452 419 573 389 q 268 488 328 452 q 176 576 208 524 q 144 703 144 628 q 251 897 144 823 q 533 970 357 970 q 792 911 694 970 q 912 740 890 852 l 717 694 q 652 792 702 755 q 522 828 602 828 q 390 797 438 828 q 342 710 342 765 q 359 656 342 678 q 411 617 377 633 q 545 573 445 600 q 705 517 653 543 q 787 458 756 491 q 834 384 818 426 q 850 287 850 342 q 738 63 850 140 q 407 -14 625 -14 z "},"T":{"ha":848,"x_min":98,"x_max":946,"o":"m 607 801 l 451 0 l 251 0 l 407 801 l 98 801 l 128 956 l 946 956 l 916 801 l 607 801 z "},"U":{"ha":1003,"x_min":81,"x_max":1031,"o":"m 467 143 q 636 195 578 143 q 718 367 694 246 l 831 956 l 1031 956 l 916 359 q 766 78 878 169 q 456 -14 654 -14 q 179 66 277 -14 q 81 292 81 146 q 86 364 81 322 q 96 431 91 406 l 197 956 l 397 956 l 293 406 q 281 290 281 347 q 330 181 281 220 q 467 143 380 143 z "},"V":{"ha":926,"x_min":116,"x_max":1023,"o":"m 500 0 l 270 0 l 116 956 l 323 956 l 400 342 q 415 161 411 242 q 466 275 447 233 q 814 956 486 316 l 1023 956 l 500 0 z "},"W":{"ha":1311,"x_min":102,"x_max":1410,"o":"m 977 0 l 740 0 l 722 551 l 719 700 l 718 757 q 656 595 677 648 q 403 0 635 541 l 162 0 l 102 956 l 292 956 l 316 403 q 321 168 321 289 l 359 266 l 411 391 l 652 956 l 866 956 l 895 168 q 948 307 913 218 q 1213 956 983 396 l 1410 956 l 977 0 z "},"X":{"ha":926,"x_min":-64,"x_max":996,"o":"m 149 956 l 359 956 l 511 636 l 783 956 l 996 956 l 589 496 l 838 0 l 629 0 l 458 361 l 149 0 l -64 0 l 378 499 l 149 956 z "},"Y":{"ha":926,"x_min":117,"x_max":1031,"o":"m 491 0 l 292 0 l 368 392 l 117 956 l 315 956 l 490 545 l 812 956 l 1031 956 l 567 392 l 491 0 z "},"Z":{"ha":848,"x_min":-33,"x_max":892,"o":"m 734 0 l -33 0 l -5 142 l 623 799 l 174 799 l 204 956 l 892 956 l 865 817 l 234 157 l 764 157 l 734 0 z "},"[":{"ha":463,"x_min":-37,"x_max":582,"o":"m -37 -288 l 214 1006 l 582 1006 l 557 878 l 370 878 l 168 -159 l 355 -159 l 330 -288 l -37 -288 z "},"\\":{"ha":386,"x_min":75,"x_max":361,"o":"m 196 -28 l 75 1007 l 237 1007 l 361 -28 l 196 -28 z "},"]":{"ha":463,"x_min":-118,"x_max":500,"o":"m -118 -288 l -93 -159 l 95 -159 l 296 878 l 108 878 l 133 1006 l 500 1006 l 249 -288 l -118 -288 z "},"^":{"ha":811,"x_min":58,"x_max":808,"o":"m 652 349 l 431 859 l 212 349 l 58 349 l 323 956 l 541 956 l 808 349 l 652 349 z "},"_":{"ha":772,"x_min":-81,"x_max":717,"o":"m -81 -170 l -81 -117 l 717 -117 l 717 -170 l -81 -170 z "},"`":{"ha":463,"x_min":196,"x_max":509,"o":"m 404 802 l 196 989 l 201 1019 l 376 1019 l 509 823 l 505 802 l 404 802 z "},"a":{"ha":772,"x_min":7,"x_max":732,"o":"m 605 -7 q 500 22 537 -7 q 464 97 464 50 q 467 140 464 122 l 463 140 q 351 19 406 52 q 215 -14 295 -14 q 63 43 120 -14 q 7 189 7 100 q 93 378 7 314 q 374 446 180 442 l 503 448 q 517 536 517 512 q 431 623 517 623 q 336 598 368 623 q 294 527 305 574 l 115 548 q 219 696 138 646 q 435 747 300 747 q 641 698 575 747 q 706 547 706 648 q 690 441 706 522 l 642 201 q 636 153 636 171 q 643 127 636 136 q 659 115 650 119 q 676 110 667 111 q 690 109 685 109 q 732 113 710 109 l 722 8 q 665 -5 694 -3 q 605 -7 635 -7 m 482 341 l 372 341 q 247 309 293 340 q 201 220 201 277 q 228 146 201 173 q 300 119 255 119 q 403 163 357 119 q 467 279 449 207 l 482 341 z "},"b":{"ha":848,"x_min":24,"x_max":808,"o":"m 580 747 q 748 683 688 747 q 808 507 808 619 l 808 498 q 766 240 808 370 q 648 48 724 111 q 454 -14 572 -14 q 316 22 369 -14 q 241 121 263 57 l 240 121 l 221 45 l 208 0 l 24 0 q 37 56 27 10 q 57 151 47 101 l 224 1006 l 414 1006 l 357 717 q 336 619 338 619 l 338 619 q 437 712 376 676 q 580 747 498 747 m 498 615 q 362 555 413 615 q 288 376 311 496 q 276 272 276 313 q 312 158 276 199 q 412 117 348 117 q 519 160 481 117 q 584 303 558 202 q 610 471 610 405 q 586 578 610 542 q 498 615 562 615 z "},"c":{"ha":772,"x_min":43,"x_max":752,"o":"m 363 117 q 456 153 420 117 q 515 258 493 189 l 699 224 q 353 -14 626 -14 q 123 63 203 -14 q 43 275 43 139 q 96 523 43 407 q 239 693 150 639 q 461 747 328 747 q 666 683 589 747 q 752 503 743 618 l 559 487 q 446 616 552 616 q 333 567 374 616 q 258 390 292 517 q 243 276 243 312 q 363 117 243 117 z "},"d":{"ha":848,"x_min":39,"x_max":872,"o":"m 508 109 q 404 16 460 45 q 266 -14 348 -14 q 100 55 161 -14 q 39 240 39 124 q 83 494 39 370 q 204 683 126 618 q 393 747 283 747 q 606 613 567 747 l 610 613 q 615 654 611 627 q 627 723 619 681 l 684 1006 l 872 1006 l 711 157 q 691 0 697 81 l 500 0 q 511 109 500 43 l 508 109 m 349 117 q 444 140 404 117 q 511 212 483 163 q 555 334 538 260 q 571 462 571 407 q 539 580 571 543 q 444 617 507 617 q 331 570 374 617 q 264 433 287 524 q 241 267 241 343 q 349 117 241 117 z "},"e":{"ha":772,"x_min":43,"x_max":734,"o":"m 243 323 q 238 262 238 297 q 270 152 238 191 q 363 114 301 114 q 507 229 463 114 l 673 178 q 547 28 623 71 q 350 -14 472 -14 q 124 65 205 -14 q 43 283 43 143 q 92 529 43 424 q 230 691 140 635 q 438 747 320 747 q 657 674 580 747 q 734 469 734 602 q 718 323 734 401 l 243 323 m 557 450 l 559 488 q 526 593 559 560 q 438 627 492 627 q 329 582 373 627 q 265 450 284 536 l 557 450 z "},"f":{"ha":463,"x_min":50,"x_max":578,"o":"m 358 605 l 240 0 l 50 0 l 168 605 l 61 605 l 86 734 l 193 734 l 208 810 q 293 961 229 916 q 473 1006 357 1006 q 578 995 523 1006 l 554 872 q 525 876 547 873 q 489 879 503 879 q 423 857 444 879 q 394 791 403 836 l 383 734 l 528 734 l 503 605 l 358 605 z "},"g":{"ha":848,"x_min":-5,"x_max":825,"o":"m 292 -288 q 85 -241 157 -288 q -5 -96 12 -195 l 187 -76 q 315 -162 205 -162 q 431 -122 389 -162 q 495 18 472 -82 q 516 136 509 83 l 515 136 q 440 50 472 76 q 367 9 408 23 q 275 -5 327 -5 q 107 62 170 -5 q 44 241 44 130 q 87 503 44 378 q 206 687 130 628 q 397 747 281 747 q 535 709 477 747 q 611 606 593 671 l 612 606 q 629 677 616 625 q 645 734 642 728 l 825 734 l 812 677 l 791 578 l 680 7 q 556 -220 648 -151 q 292 -288 465 -288 m 574 465 q 538 576 574 536 q 439 616 503 616 q 354 595 388 616 q 297 525 321 573 q 259 397 274 476 q 243 269 243 318 q 361 134 243 134 q 471 179 421 134 q 547 303 520 224 q 574 465 574 381 z "},"h":{"ha":848,"x_min":24,"x_max":790,"o":"m 408 1006 l 354 732 l 328 608 l 330 608 q 442 713 380 679 q 583 747 503 747 q 738 697 686 747 q 790 554 790 648 q 785 500 790 537 q 776 443 781 463 l 690 0 l 500 0 l 581 404 q 598 515 598 488 q 495 603 598 603 q 368 547 427 603 q 295 411 310 492 l 215 0 l 24 0 l 218 1006 l 408 1006 z "},"i":{"ha":386,"x_min":24,"x_max":410,"o":"m 191 866 l 219 1006 l 410 1006 l 382 866 l 191 866 m 24 0 l 166 734 l 357 734 l 214 0 l 24 0 z "},"j":{"ha":386,"x_min":-149,"x_max":410,"o":"m 192 866 l 219 1006 l 410 1006 l 382 866 l 192 866 m -37 -288 q -149 -275 -101 -288 l -125 -148 l -85 -151 q -19 -127 -40 -151 q 15 -41 3 -104 l 166 734 l 357 734 l 197 -87 q 118 -236 177 -184 q -37 -288 58 -288 z "},"k":{"ha":772,"x_min":24,"x_max":830,"o":"m 494 0 l 366 337 l 271 286 l 214 0 l 24 0 l 219 1006 l 410 1006 l 296 430 l 612 734 l 830 734 l 509 448 l 696 0 l 494 0 z "},"l":{"ha":386,"x_min":24,"x_max":410,"o":"m 24 0 l 219 1006 l 410 1006 l 214 0 l 24 0 z "},"m":{"ha":1235,"x_min":24,"x_max":1177,"o":"m 897 605 q 789 553 835 605 q 726 412 744 500 l 646 0 l 456 0 l 540 431 q 551 523 551 492 q 466 605 551 605 q 360 554 406 605 q 295 410 313 503 l 215 0 l 24 0 l 136 577 q 163 734 150 642 l 347 734 q 340 681 347 726 q 328 608 333 636 l 330 608 q 433 717 382 687 q 553 747 484 747 q 686 706 637 747 q 744 589 734 666 q 854 710 798 674 q 984 747 910 747 q 1127 697 1078 747 q 1177 554 1177 648 q 1163 443 1177 511 l 1076 0 l 887 0 l 970 425 q 982 519 982 486 l 982 523 q 897 605 980 605 z "},"n":{"ha":848,"x_min":24,"x_max":790,"o":"m 500 0 l 581 404 q 598 515 598 488 q 495 603 598 603 q 368 547 427 603 q 295 411 310 492 l 215 0 l 24 0 l 136 577 q 162 734 147 631 l 344 734 q 337 677 344 728 q 328 608 331 626 l 330 608 q 442 713 380 679 q 583 747 503 747 q 738 697 686 747 q 790 554 790 648 q 785 500 790 537 q 776 443 781 463 l 690 0 l 500 0 z "},"o":{"ha":848,"x_min":43,"x_max":804,"o":"m 804 463 q 748 214 804 323 q 592 45 693 104 q 363 -14 490 -14 q 129 66 215 -14 q 43 284 43 146 q 97 526 43 420 q 250 689 151 631 q 477 747 350 747 q 720 672 637 747 q 804 463 804 598 m 604 449 q 463 616 604 616 q 340 576 386 616 q 269 452 294 535 q 243 292 243 369 q 384 117 243 117 q 504 155 460 117 q 574 271 549 193 q 604 449 600 349 z "},"p":{"ha":848,"x_min":-31,"x_max":804,"o":"m 494 615 q 357 555 408 615 q 283 376 306 496 q 271 272 271 313 q 307 158 271 199 q 408 117 343 117 q 517 161 477 117 q 580 300 557 204 q 603 471 603 397 q 577 579 603 543 q 494 615 551 615 m 334 619 q 439 717 383 687 q 575 747 495 747 q 743 683 683 747 q 804 507 804 619 q 762 240 804 370 q 643 48 720 111 q 449 -14 567 -14 q 311 22 364 -14 q 237 121 258 57 l 235 121 q 214 -7 231 79 l 159 -288 l -31 -288 l 134 565 l 148 640 l 161 734 l 347 734 q 342 681 347 724 q 332 619 337 638 l 334 619 z "},"q":{"ha":848,"x_min":40,"x_max":824,"o":"m 609 612 q 641 734 626 696 l 824 734 q 804 644 819 715 q 623 -288 789 572 l 432 -288 l 490 5 l 514 111 l 511 111 q 403 15 460 44 q 267 -14 346 -14 q 102 52 164 -14 q 40 236 40 119 q 83 493 40 369 q 205 682 127 617 q 393 747 284 747 q 530 716 481 747 q 606 612 578 686 l 609 612 m 351 117 q 488 177 437 117 q 561 357 539 237 q 572 461 572 417 q 454 617 572 617 q 334 573 379 617 q 266 437 290 530 q 241 262 241 345 q 269 154 241 191 q 351 117 296 117 z "},"r":{"ha":541,"x_min":24,"x_max":604,"o":"m 572 578 q 495 589 526 589 q 359 530 412 589 q 283 349 307 471 l 214 0 l 24 0 l 133 563 q 161 734 149 644 l 343 734 l 328 617 l 323 584 l 326 584 q 423 711 375 675 q 534 747 471 747 q 604 738 566 747 l 572 578 z "},"s":{"ha":772,"x_min":16,"x_max":725,"o":"m 678 227 q 591 47 678 109 q 337 -14 504 -14 q 122 35 201 -14 q 16 184 43 83 l 186 208 q 238 135 200 157 q 351 113 276 113 q 463 136 425 113 q 501 205 501 160 q 473 259 501 240 q 349 298 445 277 q 159 382 214 328 q 104 522 104 436 q 189 688 104 630 q 432 745 274 745 q 640 697 572 745 q 725 550 709 650 l 555 530 q 510 598 543 577 q 419 619 477 619 q 280 538 280 619 q 294 500 280 515 q 332 475 307 486 q 453 441 357 464 q 627 362 576 414 q 678 227 678 311 z "},"t":{"ha":463,"x_min":58,"x_max":510,"o":"m 255 -11 q 125 29 171 -11 q 79 142 79 68 q 90 248 79 190 l 159 605 l 58 605 l 83 734 l 193 734 l 286 906 l 406 906 l 373 734 l 510 734 l 486 605 l 347 605 l 277 242 q 269 182 269 204 q 285 135 269 151 q 328 120 301 120 q 401 129 350 120 l 380 5 q 255 -11 325 -11 z "},"u":{"ha":848,"x_min":58,"x_max":824,"o":"m 347 734 l 267 330 q 250 218 250 247 q 353 131 250 131 q 479 186 421 131 q 553 323 537 241 l 633 734 l 824 734 l 711 157 q 686 0 701 103 l 504 0 q 510 57 504 6 q 520 125 517 108 l 518 125 q 405 20 467 53 q 265 -13 344 -13 q 110 37 162 -13 q 58 180 58 86 q 62 234 58 197 q 72 291 67 272 l 158 734 l 347 734 z "},"v":{"ha":772,"x_min":75,"x_max":836,"o":"m 422 0 l 194 0 l 75 734 l 271 734 l 319 323 q 328 230 321 303 q 334 141 334 157 q 416 321 375 238 l 631 734 l 836 734 l 422 0 z "},"w":{"ha":1080,"x_min":67,"x_max":1154,"o":"m 819 0 l 617 0 l 588 448 l 585 604 q 520 446 549 507 l 315 0 l 114 0 l 67 734 l 242 734 l 252 262 l 252 173 l 270 219 l 305 302 l 505 734 l 709 734 l 737 302 l 741 173 l 777 262 l 974 734 l 1154 734 l 819 0 z "},"x":{"ha":772,"x_min":-61,"x_max":819,"o":"m 491 0 l 365 260 l 143 0 l -61 0 l 283 381 l 94 734 l 292 734 l 410 498 l 610 734 l 819 734 l 492 378 l 691 0 l 491 0 z "},"y":{"ha":772,"x_min":-58,"x_max":830,"o":"m 60 -288 q -58 -276 -6 -288 l -32 -143 q 27 -149 -5 -149 q 120 -118 80 -149 q 201 -16 161 -87 l 220 16 l 76 734 l 273 734 l 321 397 q 336 276 326 376 q 345 170 347 176 l 357 195 l 451 394 l 627 734 l 830 734 l 387 -39 q 268 -198 314 -152 q 173 -266 222 -244 q 60 -288 123 -288 z "},"z":{"ha":694,"x_min":-7,"x_max":685,"o":"m -7 0 l 19 135 l 435 596 l 136 596 l 163 734 l 685 734 l 659 597 l 245 139 l 602 139 l 575 0 l -7 0 z "},"{":{"ha":541,"x_min":13,"x_max":639,"o":"m 263 -288 q 136 -247 182 -288 q 90 -137 90 -206 q 97 -68 90 -107 l 138 140 q 143 186 143 164 q 13 294 143 291 l 39 424 q 224 578 195 427 l 270 807 q 346 956 290 906 q 507 1006 403 1006 l 639 1006 l 614 878 l 562 878 q 477 846 507 878 q 433 739 448 814 l 393 528 q 332 419 380 465 q 219 361 285 374 l 218 358 q 299 311 269 345 q 329 226 329 277 q 326 191 329 206 l 281 -36 q 275 -87 275 -64 q 298 -141 275 -123 q 358 -159 320 -159 l 412 -159 l 387 -288 l 263 -288 z "},"|":{"ha":389,"x_min":130,"x_max":307,"o":"m 130 -288 l 130 1006 l 307 1006 l 307 -288 l 130 -288 z "},"}":{"ha":541,"x_min":-105,"x_max":521,"o":"m 271 1007 q 398 966 351 1007 q 444 856 444 925 q 437 787 444 825 l 395 578 q 391 532 391 556 q 422 453 391 480 q 521 425 454 427 l 495 295 q 370 255 415 294 q 309 140 324 217 l 264 -88 q 185 -240 243 -191 q 26 -288 128 -288 l -105 -288 l -80 -159 l -28 -159 q 56 -128 27 -159 q 100 -20 85 -96 l 141 190 q 201 299 154 254 q 315 358 249 345 l 315 360 q 235 408 264 373 q 205 493 205 443 q 208 528 205 513 l 252 754 q 258 806 258 785 q 236 860 258 842 q 176 878 214 878 l 121 878 l 146 1007 l 271 1007 z "},"~":{"ha":811,"x_min":80,"x_max":784,"o":"m 603 350 q 503 364 552 350 q 403 396 454 378 q 253 428 311 428 q 164 413 205 428 q 80 368 124 399 l 80 513 q 264 570 157 570 q 370 555 318 570 q 472 522 422 540 q 616 490 563 490 q 784 553 707 490 l 784 404 q 701 362 741 374 q 603 350 661 350 z "}," ":{"ha":386,"x_min":0,"x_max":0,"o":"z "},"¡":{"ha":463,"x_min":14,"x_max":399,"o":"m 168 551 l 203 734 l 399 734 l 363 551 l 168 551 m 14 -222 l 164 444 l 320 444 l 213 -222 l 14 -222 z "},"¢":{"ha":772,"x_min":52,"x_max":761,"o":"m 372 222 q 465 258 429 222 q 524 363 502 294 l 707 330 q 594 157 672 215 q 396 92 515 100 l 374 -21 l 264 -21 l 286 97 q 113 188 174 115 q 52 380 52 261 q 64 501 52 451 q 193 755 102 667 q 433 851 283 844 l 454 956 l 564 956 l 542 846 q 696 768 638 831 q 761 608 753 705 l 568 592 q 455 722 561 722 q 341 672 382 722 q 267 495 300 622 q 252 381 252 417 q 372 222 252 222 z "},"£":{"ha":772,"x_min":-35,"x_max":796,"o":"m 749 246 q 643 62 720 125 q 450 0 566 0 l -35 0 l -8 139 q 94 210 56 165 q 147 326 133 255 l 164 410 l 37 410 l 59 525 l 180 525 l 214 701 q 315 906 241 842 q 524 970 390 970 q 714 916 643 970 q 796 766 785 862 l 630 734 q 592 815 620 791 q 515 840 564 840 q 434 809 463 840 q 392 707 406 778 l 356 525 l 550 525 l 528 410 l 334 410 l 315 324 q 158 142 287 192 l 435 142 q 539 173 499 142 q 596 273 580 203 l 749 246 z "},"¤":{"ha":772,"x_min":49,"x_max":743,"o":"m 101 464 q 142 614 101 545 l 52 704 l 158 810 l 247 720 q 396 760 315 760 q 545 720 478 760 l 636 811 l 743 704 l 651 612 q 692 464 692 545 q 652 317 692 384 l 743 227 l 636 118 l 546 210 q 396 170 478 170 q 247 208 313 170 l 155 115 l 49 222 l 140 315 q 101 464 101 382 m 254 465 q 296 365 254 407 q 396 323 337 323 q 495 366 454 323 q 537 465 537 408 q 496 565 537 524 q 396 607 454 607 q 296 566 338 607 q 254 465 254 524 z "},"¥":{"ha":772,"x_min":26,"x_max":882,"o":"m 541 469 l 728 469 l 709 370 l 479 370 l 458 260 l 687 260 l 668 160 l 439 160 l 408 0 l 223 0 l 254 160 l 26 160 l 45 260 l 274 260 l 296 370 l 67 370 l 86 469 l 273 469 l 121 956 l 314 956 l 418 551 l 683 956 l 882 956 l 541 469 z "},"¦":{"ha":389,"x_min":130,"x_max":308,"o":"m 130 499 l 130 1006 l 308 1006 l 308 499 l 130 499 m 130 -288 l 130 220 l 308 220 l 308 -288 l 130 -288 z "},"§":{"ha":772,"x_min":-28,"x_max":779,"o":"m 487 968 q 700 920 625 968 q 779 782 774 873 l 613 765 q 567 832 605 811 q 473 852 529 852 q 318 762 318 852 q 336 718 318 736 q 385 685 353 699 q 490 653 416 671 q 732 453 732 597 q 692 328 732 377 q 563 250 653 278 q 629 186 606 226 q 652 96 652 147 q 558 -91 652 -27 q 288 -155 465 -155 q 62 -108 139 -155 q -28 40 -16 -61 l 137 65 q 186 -16 146 9 q 297 -40 225 -40 q 437 -13 389 -40 q 486 64 486 14 q 468 118 486 97 q 419 153 451 139 q 282 192 388 168 q 64 397 64 240 q 248 584 64 538 q 175 652 200 610 q 150 746 150 693 q 233 913 150 858 q 487 968 317 968 m 387 529 q 276 498 317 525 q 235 425 235 472 q 251 376 235 396 q 297 341 268 356 q 407 308 327 327 q 523 339 482 314 q 563 406 563 363 q 526 479 563 452 q 387 529 489 506 z "},"¨":{"ha":463,"x_min":92,"x_max":562,"o":"m 385 813 l 414 962 l 562 962 l 532 813 l 385 813 m 92 813 l 120 962 l 265 962 l 236 813 l 92 813 z "},"©":{"ha":1023,"x_min":42,"x_max":1023,"o":"m 1023 479 q 957 234 1023 349 q 778 55 892 120 q 532 -11 663 -11 q 284 57 399 -11 q 105 238 169 125 q 42 479 42 351 q 108 724 42 610 q 288 904 174 838 q 532 970 401 970 q 778 904 664 970 q 958 724 892 838 q 1023 479 1023 611 m 947 479 q 891 685 947 590 q 739 836 836 781 q 532 892 643 892 q 331 839 426 892 q 178 690 236 786 q 120 479 120 594 q 175 273 120 369 q 326 121 231 176 q 532 65 421 65 q 740 121 644 65 q 891 273 836 176 q 947 479 947 369 m 541 193 q 339 269 410 193 q 267 481 267 344 q 336 690 267 618 q 535 762 406 762 q 683 724 623 762 q 774 607 742 686 l 669 579 q 618 644 651 621 q 538 667 585 667 q 427 619 465 667 q 389 481 389 572 q 429 339 389 389 q 541 289 469 289 q 621 314 586 289 q 674 386 655 339 l 783 354 q 684 231 743 269 q 541 193 625 193 z "},"ª":{"ha":514,"x_min":71,"x_max":543,"o":"m 460 473 q 392 490 416 473 q 368 539 368 508 l 370 567 l 368 567 q 294 488 330 508 q 206 467 258 467 q 108 504 146 467 q 71 600 71 541 q 127 721 71 679 q 310 765 183 763 l 393 766 l 397 784 q 403 825 403 808 q 347 881 403 881 q 286 865 307 881 q 258 819 266 850 l 142 832 q 205 927 155 892 q 349 962 256 962 q 483 930 441 962 q 526 832 526 899 q 524 813 526 823 q 483 607 523 802 l 479 575 q 515 546 479 546 q 543 550 526 546 l 536 481 q 460 473 512 473 m 380 698 l 314 696 q 232 676 262 695 q 202 620 202 656 q 219 569 202 585 q 262 553 237 553 q 328 581 298 553 q 370 657 357 609 l 380 698 z "},"«":{"ha":772,"x_min":49,"x_max":750,"o":"m 490 94 l 359 339 l 369 387 l 588 636 l 750 636 l 746 608 l 523 360 l 650 121 l 647 94 l 490 94 m 179 94 l 49 339 l 58 387 l 277 636 l 439 636 l 435 608 l 212 360 l 340 121 l 336 94 l 179 94 z "},"¬":{"ha":811,"x_min":51,"x_max":747,"o":"m 595 96 l 595 386 l 51 386 l 51 538 l 747 538 l 747 96 l 595 96 z "},"­":{"ha":463,"x_min":38,"x_max":422,"o":"m 38 277 l 70 443 l 422 443 l 391 277 l 38 277 z "},"®":{"ha":1023,"x_min":42,"x_max":1023,"o":"m 1023 479 q 957 234 1023 349 q 778 55 892 120 q 532 -11 663 -11 q 284 57 399 -11 q 105 238 169 125 q 42 479 42 351 q 108 724 42 610 q 288 904 174 838 q 532 970 401 970 q 778 904 664 970 q 958 724 892 838 q 1023 479 1023 611 m 947 479 q 891 685 947 590 q 739 836 836 781 q 532 892 643 892 q 331 839 426 892 q 178 690 236 786 q 120 479 120 594 q 175 273 120 369 q 326 121 231 176 q 532 65 421 65 q 740 121 644 65 q 891 273 836 176 q 947 479 947 369 m 646 201 l 526 414 l 446 414 l 446 201 l 326 201 l 326 754 l 549 754 q 705 710 653 754 q 756 590 756 667 q 724 486 756 526 q 638 429 691 446 l 783 201 l 646 201 m 634 589 q 609 648 634 627 q 536 668 583 668 l 446 668 l 446 501 l 544 501 q 611 525 589 501 q 634 589 634 549 z "},"¯":{"ha":767,"x_min":-12,"x_max":779,"o":"m 779 985 l -12 985 l -12 1048 l 779 1048 l 779 985 z "},"°":{"ha":555,"x_min":128,"x_max":563,"o":"m 563 753 q 499 602 563 665 q 345 539 436 539 q 192 601 256 539 q 128 753 128 663 q 157 861 128 811 q 236 938 186 910 q 345 966 286 966 q 500 904 437 966 q 563 753 563 841 m 456 753 q 424 833 456 800 q 345 865 393 865 q 265 832 297 865 q 233 753 233 800 q 266 672 233 706 q 345 639 299 639 q 423 672 391 639 q 456 753 456 705 z "},"±":{"ha":762,"x_min":59,"x_max":755,"o":"m 483 479 l 483 248 l 331 248 l 331 479 l 59 479 l 59 631 l 331 631 l 331 861 l 483 861 l 483 631 l 755 631 l 755 479 l 483 479 m 59 0 l 59 151 l 755 151 l 755 0 l 59 0 z "},"²":{"ha":463,"x_min":48,"x_max":492,"o":"m 48 472 l 64 553 q 135 631 92 596 q 253 709 178 667 q 341 771 315 743 q 368 835 368 800 q 353 868 368 854 q 314 881 338 881 q 237 815 254 881 l 127 838 q 195 936 148 905 q 325 967 241 967 q 448 933 403 967 q 492 840 492 899 q 475 769 492 800 q 432 716 458 739 q 374 674 406 692 q 310 639 341 656 q 252 606 279 623 q 211 569 226 589 l 448 569 l 431 472 l 48 472 z "},"³":{"ha":463,"x_min":65,"x_max":492,"o":"m 336 621 q 261 678 336 678 l 215 678 l 231 764 l 272 764 q 340 781 314 764 q 366 828 366 798 q 309 884 366 884 q 231 821 248 884 l 121 837 q 186 935 138 903 q 323 967 233 967 q 448 937 403 967 q 492 846 492 907 q 458 763 492 798 q 368 724 424 728 l 368 722 q 437 688 411 714 q 464 619 464 662 q 406 509 464 551 q 250 467 349 467 q 65 600 83 467 l 188 617 q 261 550 199 550 q 314 568 292 550 q 336 621 336 586 z "},"´":{"ha":463,"x_min":173,"x_max":532,"o":"m 173 802 l 177 823 l 345 1019 l 532 1019 l 527 989 l 272 802 l 173 802 z "},"µ":{"ha":800,"x_min":-32,"x_max":772,"o":"m 593 -14 q 508 8 534 -14 q 481 83 481 31 l 481 97 l 483 111 l 480 111 q 416 19 452 52 q 325 -14 380 -14 q 259 3 285 -14 q 222 47 233 20 l 218 47 l 208 -31 l 158 -288 l -32 -288 l 165 734 l 356 734 l 276 323 q 267 243 269 283 q 352 131 267 131 q 448 185 407 131 q 506 342 488 239 l 582 734 l 772 734 l 673 220 q 667 176 667 190 q 701 130 667 130 q 732 134 716 130 l 721 3 q 593 -14 649 -14 z "},"¶":{"ha":772,"x_min":72,"x_max":750,"o":"m 661 859 l 661 -179 l 555 -179 l 555 859 l 423 859 l 423 -179 l 318 -179 l 318 471 q 138 533 203 471 q 72 711 72 596 q 139 891 72 826 q 323 956 205 956 l 750 956 l 750 859 l 661 859 z "},"·":{"ha":463,"x_min":128,"x_max":363,"o":"m 128 360 l 168 567 l 363 567 l 323 360 l 128 360 z "},"¸":{"ha":463,"x_min":60,"x_max":366,"o":"m 132 -288 q 60 -284 98 -288 l 79 -205 q 135 -210 108 -210 q 215 -198 190 -210 q 240 -157 240 -186 q 165 -115 240 -115 l 149 -115 l 130 -116 l 196 0 l 292 0 l 259 -56 q 336 -79 307 -57 q 366 -146 366 -101 q 309 -250 366 -212 q 132 -288 252 -288 z "},"¹":{"ha":463,"x_min":66,"x_max":446,"o":"m 66 470 l 82 552 l 207 552 l 269 869 l 137 796 l 153 879 l 290 958 l 409 958 l 330 552 l 446 552 l 430 470 l 66 470 z "},"º":{"ha":507,"x_min":69,"x_max":562,"o":"m 562 774 q 483 552 562 637 q 277 467 404 467 q 125 520 181 467 q 69 665 69 574 q 146 880 69 798 q 349 962 224 962 q 507 912 453 962 q 562 774 562 862 m 424 765 q 402 841 424 814 q 340 868 381 868 q 281 855 304 868 q 242 816 258 842 q 216 747 225 789 q 208 669 208 705 q 229 588 208 616 q 291 560 250 560 q 342 568 325 560 q 374 593 360 576 q 397 632 388 610 q 413 684 406 653 q 424 765 420 715 z "},"»":{"ha":772,"x_min":26,"x_max":727,"o":"m 286 636 l 416 391 l 407 343 l 188 94 l 26 94 l 30 122 l 253 370 l 125 610 l 129 636 l 286 636 m 597 636 l 727 391 l 718 343 l 498 94 l 336 94 l 340 122 l 564 370 l 436 610 l 439 636 l 597 636 z "},"¼":{"ha":1158,"x_min":66,"x_max":1052,"o":"m 66 470 l 82 552 l 207 552 l 269 869 l 137 796 l 153 879 l 290 958 l 409 958 l 330 552 l 446 552 l 430 470 l 66 470 m 291 0 l 157 0 l 894 956 l 1029 956 l 291 0 m 963 96 l 945 1 l 821 1 l 839 96 l 604 96 l 623 196 l 890 489 l 1039 489 l 982 193 l 1052 193 l 1033 96 l 963 96 m 721 193 l 858 193 l 900 395 l 888 380 q 842 322 863 345 l 721 193 z "},"½":{"ha":1158,"x_min":66,"x_max":1088,"o":"m 66 470 l 82 552 l 207 552 l 269 869 l 137 796 l 153 879 l 290 958 l 409 958 l 330 552 l 446 552 l 430 470 l 66 470 m 291 0 l 157 0 l 894 956 l 1029 956 l 291 0 m 644 1 l 660 82 q 730 160 687 125 q 848 237 774 195 q 937 300 911 271 q 963 363 963 329 q 948 396 963 383 q 909 410 933 410 q 832 344 850 410 l 722 367 q 790 465 743 434 q 920 496 837 496 q 1043 461 998 496 q 1088 369 1088 427 q 1071 298 1088 328 q 1028 244 1054 268 q 969 203 1002 221 q 905 168 937 184 q 848 135 874 151 q 806 98 821 118 l 1043 98 l 1026 1 l 644 1 z "},"¾":{"ha":1158,"x_min":75,"x_max":1052,"o":"m 346 621 q 271 678 346 678 l 224 678 l 241 764 l 281 764 q 349 781 323 764 q 375 828 375 798 q 319 884 375 884 q 241 821 258 884 l 130 837 q 195 935 148 903 q 332 967 243 967 q 457 937 412 967 q 502 846 502 907 q 468 763 502 798 q 378 724 433 728 l 377 722 q 447 688 420 714 q 473 619 473 662 q 416 509 473 551 q 260 467 358 467 q 75 600 93 467 l 197 617 q 271 550 209 550 q 324 568 302 550 q 346 621 346 586 m 291 0 l 157 0 l 894 956 l 1029 956 l 291 0 m 963 96 l 945 1 l 821 1 l 839 96 l 604 96 l 623 196 l 890 489 l 1039 489 l 982 193 l 1052 193 l 1033 96 l 963 96 m 721 193 l 858 193 l 900 395 l 888 380 q 842 322 863 345 l 721 193 z "},"¿":{"ha":848,"x_min":18,"x_max":713,"o":"m 332 -236 q 102 -172 187 -236 q 18 5 18 -109 q 43 114 18 66 q 115 203 68 162 q 267 303 161 244 q 342 358 323 340 q 371 397 360 376 q 386 445 382 418 l 567 445 q 536 354 557 393 q 483 283 515 315 q 370 202 450 252 q 292 151 323 173 q 243 107 261 128 q 217 66 224 87 q 210 18 210 45 q 242 -53 210 -24 q 343 -81 275 -81 q 532 50 497 -81 l 713 23 q 332 -236 633 -236 m 628 734 l 593 551 l 397 551 l 432 734 l 628 734 z "},"À":{"ha":1003,"x_min":-28,"x_max":903,"o":"m 705 0 l 667 244 l 303 244 l 171 0 l -28 0 l 505 956 l 741 956 l 903 0 l 705 0 m 594 808 q 528 665 580 765 l 384 395 l 652 395 l 606 701 q 594 808 594 793 m 647 1038 l 441 1197 l 447 1226 l 608 1226 l 746 1059 l 741 1038 l 647 1038 z "},"Á":{"ha":1003,"x_min":-28,"x_max":903,"o":"m 705 0 l 667 244 l 303 244 l 171 0 l -28 0 l 505 956 l 741 956 l 903 0 l 705 0 m 594 808 q 528 665 580 765 l 384 395 l 652 395 l 606 701 q 594 808 594 793 m 518 1038 l 523 1059 l 706 1226 l 887 1226 l 881 1197 l 619 1038 l 518 1038 z "},"Â":{"ha":1003,"x_min":-28,"x_max":903,"o":"m 705 0 l 667 244 l 303 244 l 171 0 l -28 0 l 505 956 l 741 956 l 903 0 l 705 0 m 594 808 q 528 665 580 765 l 384 395 l 652 395 l 606 701 q 594 808 594 793 m 873 1057 l 870 1038 l 769 1038 l 651 1140 l 648 1140 l 486 1038 l 371 1038 l 374 1057 l 585 1244 l 741 1244 l 873 1057 z "},"Ã":{"ha":1003,"x_min":-28,"x_max":913,"o":"m 705 0 l 667 244 l 303 244 l 171 0 l -28 0 l 505 956 l 741 956 l 903 0 l 705 0 m 594 808 q 528 665 580 765 l 384 395 l 652 395 l 606 701 q 594 808 594 793 m 724 1038 q 666 1050 694 1038 q 613 1079 639 1063 q 565 1108 588 1095 q 522 1121 542 1121 q 474 1104 493 1121 q 439 1038 456 1086 l 347 1038 q 420 1191 373 1145 q 537 1236 467 1236 q 596 1223 568 1236 q 649 1195 624 1211 q 696 1166 674 1179 q 739 1153 719 1153 q 787 1172 768 1153 q 822 1236 806 1191 l 913 1236 q 840 1083 887 1129 q 724 1038 793 1038 z "},"Ä":{"ha":1003,"x_min":-28,"x_max":903,"o":"m 705 0 l 667 244 l 303 244 l 171 0 l -28 0 l 505 956 l 741 956 l 903 0 l 705 0 m 594 808 q 528 665 580 765 l 384 395 l 652 395 l 606 701 q 594 808 594 793 m 705 1038 l 734 1186 l 882 1186 l 852 1038 l 705 1038 m 412 1038 l 440 1186 l 585 1186 l 556 1038 l 412 1038 z "},"Å":{"ha":1003,"x_min":-28,"x_max":903,"o":"m 705 0 l 667 244 l 303 244 l 171 0 l -28 0 l 505 956 l 741 956 l 903 0 l 705 0 m 594 808 q 528 665 580 765 l 384 395 l 652 395 l 606 701 q 594 808 594 793 m 800 1043 q 750 921 800 972 q 628 871 701 871 q 506 921 555 871 q 456 1043 456 972 q 506 1165 456 1114 q 628 1215 557 1215 q 750 1165 699 1215 q 800 1043 800 1114 m 714 1043 q 689 1103 714 1078 q 628 1128 665 1128 q 568 1103 593 1128 q 543 1043 543 1079 q 568 981 543 1005 q 628 956 593 956 q 689 981 664 956 q 714 1043 714 1006 z "},"Æ":{"ha":1389,"x_min":-66,"x_max":1423,"o":"m 568 0 l 615 244 l 310 244 l 146 0 l -66 0 l 589 956 l 1423 956 l 1393 802 l 918 802 l 871 561 l 1304 561 l 1275 411 l 842 411 l 792 154 l 1295 154 l 1265 0 l 568 0 m 724 808 l 683 808 l 591 667 l 408 395 l 644 395 l 724 808 z "},"Ç":{"ha":1003,"x_min":55,"x_max":1006,"o":"m 259 389 q 317 207 259 271 q 483 143 375 143 q 766 318 663 143 l 920 239 q 469 -14 778 -14 q 246 35 340 -14 q 103 175 152 84 q 55 386 55 265 q 126 691 55 557 q 325 898 197 826 q 616 970 453 970 q 872 903 772 970 q 1006 704 972 836 l 821 656 q 745 770 801 728 q 610 812 690 812 q 352 699 446 812 q 259 389 259 585 m 368 -288 q 296 -284 334 -288 l 316 -205 q 372 -210 345 -210 q 452 -198 427 -210 q 477 -157 477 -186 q 402 -115 477 -115 l 385 -115 l 366 -116 l 433 0 l 528 0 l 496 -56 q 573 -79 543 -57 q 602 -146 602 -101 q 545 -250 602 -212 q 368 -288 488 -288 z "},"È":{"ha":926,"x_min":24,"x_max":961,"o":"m 24 0 l 210 956 l 961 956 l 931 801 l 380 801 l 333 561 l 843 561 l 813 406 l 303 406 l 254 155 l 833 155 l 803 0 l 24 0 m 583 1038 l 377 1197 l 383 1226 l 545 1226 l 682 1059 l 677 1038 l 583 1038 z "},"É":{"ha":926,"x_min":24,"x_max":961,"o":"m 24 0 l 210 956 l 961 956 l 931 801 l 380 801 l 333 561 l 843 561 l 813 406 l 303 406 l 254 155 l 833 155 l 803 0 l 24 0 m 484 1038 l 489 1059 l 672 1226 l 853 1226 l 847 1197 l 585 1038 l 484 1038 z "},"Ê":{"ha":926,"x_min":24,"x_max":961,"o":"m 24 0 l 210 956 l 961 956 l 931 801 l 380 801 l 333 561 l 843 561 l 813 406 l 303 406 l 254 155 l 833 155 l 803 0 l 24 0 m 850 1057 l 847 1038 l 746 1038 l 628 1140 l 625 1140 l 463 1038 l 348 1038 l 351 1057 l 562 1244 l 718 1244 l 850 1057 z "},"Ë":{"ha":926,"x_min":24,"x_max":961,"o":"m 24 0 l 210 956 l 961 956 l 931 801 l 380 801 l 333 561 l 843 561 l 813 406 l 303 406 l 254 155 l 833 155 l 803 0 l 24 0 m 675 1038 l 704 1186 l 851 1186 l 822 1038 l 675 1038 m 381 1038 l 410 1186 l 555 1186 l 526 1038 l 381 1038 z "},"Ì":{"ha":386,"x_min":24,"x_max":426,"o":"m 24 0 l 210 956 l 410 956 l 224 0 l 24 0 m 327 1038 l 121 1197 l 127 1226 l 288 1226 l 426 1059 l 421 1038 l 327 1038 z "},"Í":{"ha":386,"x_min":24,"x_max":590,"o":"m 24 0 l 210 956 l 410 956 l 224 0 l 24 0 m 221 1038 l 226 1059 l 409 1226 l 590 1226 l 584 1197 l 322 1038 l 221 1038 z "},"Î":{"ha":386,"x_min":24,"x_max":574,"o":"m 24 0 l 210 956 l 410 956 l 224 0 l 24 0 m 574 1057 l 570 1038 l 469 1038 l 351 1140 l 349 1140 l 186 1038 l 71 1038 l 75 1057 l 286 1244 l 441 1244 l 574 1057 z "},"Ï":{"ha":386,"x_min":24,"x_max":572,"o":"m 24 0 l 210 956 l 410 956 l 224 0 l 24 0 m 396 1038 l 425 1186 l 572 1186 l 543 1038 l 396 1038 m 102 1038 l 131 1186 l 276 1186 l 247 1038 l 102 1038 z "},"Ð":{"ha":1003,"x_min":16,"x_max":964,"o":"m 498 956 q 844 850 724 956 q 964 547 964 745 q 897 264 964 387 q 702 71 829 142 q 416 0 574 0 l 24 0 l 102 403 l 16 403 l 44 551 l 132 551 l 210 956 l 498 956 m 331 551 l 573 551 l 543 403 l 302 403 l 254 155 l 410 155 q 603 201 519 155 q 731 335 686 248 q 777 538 777 422 q 705 734 777 667 q 499 801 633 801 l 380 801 l 331 551 z "},"Ñ":{"ha":1003,"x_min":24,"x_max":1027,"o":"m 600 0 l 346 767 q 320 605 330 657 l 202 0 l 24 0 l 210 956 l 448 956 l 703 182 l 711 237 q 731 355 719 294 l 849 956 l 1027 956 l 841 0 l 600 0 m 746 1038 q 689 1050 716 1038 q 636 1079 661 1063 q 587 1108 610 1095 q 544 1121 564 1121 q 497 1104 515 1121 q 461 1038 478 1086 l 369 1038 q 443 1191 395 1145 q 559 1236 490 1236 q 618 1223 590 1236 q 671 1195 646 1211 q 719 1166 696 1179 q 761 1153 741 1153 q 809 1172 790 1153 q 844 1236 828 1191 l 936 1236 q 862 1083 909 1129 q 746 1038 815 1038 z "},"Ò":{"ha":1080,"x_min":68,"x_max":1057,"o":"m 629 970 q 943 864 828 970 q 1057 577 1057 759 q 986 272 1057 410 q 786 60 914 134 q 493 -14 658 -14 q 266 35 362 -14 q 118 175 169 84 q 68 389 68 267 q 139 686 68 548 q 338 897 211 824 q 629 970 465 970 m 620 812 q 433 761 510 812 q 313 608 355 710 q 271 394 271 505 q 332 207 271 269 q 503 144 393 144 q 689 195 612 144 q 809 346 766 245 q 851 561 851 446 q 792 746 851 680 q 620 812 732 812 m 670 1038 l 464 1197 l 470 1226 l 631 1226 l 769 1059 l 764 1038 l 670 1038 z "},"Ó":{"ha":1080,"x_min":68,"x_max":1057,"o":"m 629 970 q 943 864 828 970 q 1057 577 1057 759 q 986 272 1057 410 q 786 60 914 134 q 493 -14 658 -14 q 266 35 362 -14 q 118 175 169 84 q 68 389 68 267 q 139 686 68 548 q 338 897 211 824 q 629 970 465 970 m 620 812 q 433 761 510 812 q 313 608 355 710 q 271 394 271 505 q 332 207 271 269 q 503 144 393 144 q 689 195 612 144 q 809 346 766 245 q 851 561 851 446 q 792 746 851 680 q 620 812 732 812 m 581 1038 l 586 1059 l 769 1226 l 950 1226 l 944 1197 l 682 1038 l 581 1038 z "},"Ô":{"ha":1080,"x_min":68,"x_max":1057,"o":"m 629 970 q 943 864 828 970 q 1057 577 1057 759 q 986 272 1057 410 q 786 60 914 134 q 493 -14 658 -14 q 266 35 362 -14 q 118 175 169 84 q 68 389 68 267 q 139 686 68 548 q 338 897 211 824 q 629 970 465 970 m 620 812 q 433 761 510 812 q 313 608 355 710 q 271 394 271 505 q 332 207 271 269 q 503 144 393 144 q 689 195 612 144 q 809 346 766 245 q 851 561 851 446 q 792 746 851 680 q 620 812 732 812 m 893 1057 l 890 1038 l 789 1038 l 671 1140 l 668 1140 l 505 1038 l 391 1038 l 394 1057 l 605 1244 l 760 1244 l 893 1057 z "},"Õ":{"ha":1080,"x_min":68,"x_max":1057,"o":"m 629 970 q 943 864 828 970 q 1057 577 1057 759 q 986 272 1057 410 q 786 60 914 134 q 493 -14 658 -14 q 266 35 362 -14 q 118 175 169 84 q 68 389 68 267 q 139 686 68 548 q 338 897 211 824 q 629 970 465 970 m 620 812 q 433 761 510 812 q 313 608 355 710 q 271 394 271 505 q 332 207 271 269 q 503 144 393 144 q 689 195 612 144 q 809 346 766 245 q 851 561 851 446 q 792 746 851 680 q 620 812 732 812 m 770 1038 q 713 1050 741 1038 q 660 1079 686 1063 q 612 1108 635 1095 q 568 1121 589 1121 q 521 1104 540 1121 q 486 1038 503 1086 l 393 1038 q 467 1191 420 1145 q 584 1236 514 1236 q 643 1223 614 1236 q 696 1195 671 1211 q 743 1166 721 1179 q 785 1153 766 1153 q 833 1172 814 1153 q 869 1236 852 1191 l 960 1236 q 887 1083 934 1129 q 770 1038 840 1038 z "},"Ö":{"ha":1080,"x_min":68,"x_max":1057,"o":"m 629 970 q 943 864 828 970 q 1057 577 1057 759 q 986 272 1057 410 q 786 60 914 134 q 493 -14 658 -14 q 266 35 362 -14 q 118 175 169 84 q 68 389 68 267 q 139 686 68 548 q 338 897 211 824 q 629 970 465 970 m 620 812 q 433 761 510 812 q 313 608 355 710 q 271 394 271 505 q 332 207 271 269 q 503 144 393 144 q 689 195 612 144 q 809 346 766 245 q 851 561 851 446 q 792 746 851 680 q 620 812 732 812 m 734 1038 l 763 1186 l 910 1186 l 881 1038 l 734 1038 m 440 1038 l 469 1186 l 614 1186 l 585 1038 l 440 1038 z "},"×":{"ha":811,"x_min":85,"x_max":780,"o":"m 85 221 l 327 464 l 88 703 l 195 808 l 434 571 l 673 810 l 780 703 l 541 463 l 780 225 l 673 117 l 434 357 l 193 114 l 85 221 z "},"Ø":{"ha":1080,"x_min":24,"x_max":1124,"o":"m 629 970 q 898 899 790 970 l 987 994 l 1124 994 l 973 832 q 1057 577 1057 732 q 986 272 1057 410 q 786 60 914 134 q 493 -14 658 -14 q 242 48 342 -14 l 164 -36 l 24 -36 l 163 113 q 68 389 68 220 q 139 686 68 548 q 338 897 211 824 q 629 970 465 970 m 620 812 q 433 761 510 812 q 313 608 355 710 q 271 394 271 505 q 298 257 271 312 l 772 764 q 620 812 713 812 m 851 561 q 831 680 851 629 l 365 179 q 503 144 418 144 q 689 195 612 144 q 809 346 766 245 q 851 561 851 446 z "},"Ù":{"ha":1003,"x_min":81,"x_max":1031,"o":"m 467 143 q 636 195 578 143 q 718 367 694 246 l 831 956 l 1031 956 l 916 359 q 766 78 878 169 q 456 -14 654 -14 q 179 66 277 -14 q 81 292 81 146 q 86 364 81 322 q 96 431 91 406 l 197 956 l 397 956 l 293 406 q 281 290 281 347 q 330 181 281 220 q 467 143 380 143 m 629 1038 l 422 1197 l 429 1226 l 590 1226 l 728 1059 l 723 1038 l 629 1038 z "},"Ú":{"ha":1003,"x_min":81,"x_max":1031,"o":"m 467 143 q 636 195 578 143 q 718 367 694 246 l 831 956 l 1031 956 l 916 359 q 766 78 878 169 q 456 -14 654 -14 q 179 66 277 -14 q 81 292 81 146 q 86 364 81 322 q 96 431 91 406 l 197 956 l 397 956 l 293 406 q 281 290 281 347 q 330 181 281 220 q 467 143 380 143 m 535 1038 l 540 1059 l 723 1226 l 904 1226 l 898 1197 l 636 1038 l 535 1038 z "},"Û":{"ha":1003,"x_min":81,"x_max":1031,"o":"m 467 143 q 636 195 578 143 q 718 367 694 246 l 831 956 l 1031 956 l 916 359 q 766 78 878 169 q 456 -14 654 -14 q 179 66 277 -14 q 81 292 81 146 q 86 364 81 322 q 96 431 91 406 l 197 956 l 397 956 l 293 406 q 281 290 281 347 q 330 181 281 220 q 467 143 380 143 m 875 1057 l 871 1038 l 770 1038 l 652 1140 l 650 1140 l 487 1038 l 372 1038 l 376 1057 l 587 1244 l 742 1244 l 875 1057 z "},"Ü":{"ha":1003,"x_min":81,"x_max":1031,"o":"m 467 143 q 636 195 578 143 q 718 367 694 246 l 831 956 l 1031 956 l 916 359 q 766 78 878 169 q 456 -14 654 -14 q 179 66 277 -14 q 81 292 81 146 q 86 364 81 322 q 96 431 91 406 l 197 956 l 397 956 l 293 406 q 281 290 281 347 q 330 181 281 220 q 467 143 380 143 m 701 1038 l 730 1186 l 877 1186 l 848 1038 l 701 1038 m 407 1038 l 435 1186 l 581 1186 l 551 1038 l 407 1038 z "},"Ý":{"ha":926,"x_min":117,"x_max":1031,"o":"m 491 0 l 292 0 l 368 392 l 117 956 l 315 956 l 490 545 l 812 956 l 1031 956 l 567 392 l 491 0 m 486 1038 l 490 1059 l 673 1226 l 854 1226 l 848 1197 l 587 1038 l 486 1038 z "},"Þ":{"ha":926,"x_min":24,"x_max":899,"o":"m 224 0 l 24 0 l 210 956 l 410 956 l 380 803 l 547 803 q 807 727 714 803 q 899 517 899 651 q 795 274 899 364 q 517 184 691 184 l 260 184 l 224 0 m 290 338 l 486 338 q 644 377 591 338 q 696 506 696 416 q 653 611 696 575 q 528 648 610 648 l 351 648 l 290 338 z "},"ß":{"ha":848,"x_min":24,"x_max":805,"o":"m 24 0 l 159 696 q 287 932 193 857 q 541 1006 381 1006 q 734 954 663 1006 q 805 811 805 902 q 708 627 805 699 q 630 562 650 583 q 610 515 610 540 q 629 466 610 488 q 696 408 647 444 q 781 234 781 344 q 706 54 781 121 q 508 -14 631 -14 q 290 25 370 -14 l 336 151 q 422 120 389 127 q 488 113 454 113 q 571 141 543 113 q 599 218 599 170 q 580 280 599 253 q 516 340 561 307 q 453 406 473 371 q 433 487 433 441 q 456 570 433 533 q 532 646 479 607 q 608 720 585 686 q 631 792 631 753 q 607 848 631 828 q 534 869 582 869 q 411 825 456 869 q 348 692 366 782 l 214 0 l 24 0 z "},"à":{"ha":772,"x_min":7,"x_max":732,"o":"m 605 -7 q 500 22 537 -7 q 464 97 464 50 q 467 140 464 122 l 463 140 q 351 19 406 52 q 215 -14 295 -14 q 63 43 120 -14 q 7 189 7 100 q 93 378 7 314 q 374 446 180 442 l 503 448 q 517 536 517 512 q 431 623 517 623 q 336 598 368 623 q 294 527 305 574 l 115 548 q 219 696 138 646 q 435 747 300 747 q 641 698 575 747 q 706 547 706 648 q 690 441 706 522 l 642 201 q 636 153 636 171 q 643 127 636 136 q 659 115 650 119 q 676 110 667 111 q 690 109 685 109 q 732 113 710 109 l 722 8 q 665 -5 694 -3 q 605 -7 635 -7 m 482 341 l 372 341 q 247 309 293 340 q 201 220 201 277 q 228 146 201 173 q 300 119 255 119 q 403 163 357 119 q 467 279 449 207 l 482 341 m 475 802 l 267 989 l 272 1019 l 447 1019 l 579 823 l 575 802 l 475 802 z "},"á":{"ha":772,"x_min":7,"x_max":732,"o":"m 605 -7 q 500 22 537 -7 q 464 97 464 50 q 467 140 464 122 l 463 140 q 351 19 406 52 q 215 -14 295 -14 q 63 43 120 -14 q 7 189 7 100 q 93 378 7 314 q 374 446 180 442 l 503 448 q 517 536 517 512 q 431 623 517 623 q 336 598 368 623 q 294 527 305 574 l 115 548 q 219 696 138 646 q 435 747 300 747 q 641 698 575 747 q 706 547 706 648 q 690 441 706 522 l 642 201 q 636 153 636 171 q 643 127 636 136 q 659 115 650 119 q 676 110 667 111 q 690 109 685 109 q 732 113 710 109 l 722 8 q 665 -5 694 -3 q 605 -7 635 -7 m 482 341 l 372 341 q 247 309 293 340 q 201 220 201 277 q 228 146 201 173 q 300 119 255 119 q 403 163 357 119 q 467 279 449 207 l 482 341 m 368 802 l 372 823 l 539 1019 l 727 1019 l 722 989 l 467 802 l 368 802 z "},"â":{"ha":772,"x_min":7,"x_max":732,"o":"m 605 -7 q 500 22 537 -7 q 464 97 464 50 q 467 140 464 122 l 463 140 q 351 19 406 52 q 215 -14 295 -14 q 63 43 120 -14 q 7 189 7 100 q 93 378 7 314 q 374 446 180 442 l 503 448 q 517 536 517 512 q 431 623 517 623 q 336 598 368 623 q 294 527 305 574 l 115 548 q 219 696 138 646 q 435 747 300 747 q 641 698 575 747 q 706 547 706 648 q 690 441 706 522 l 642 201 q 636 153 636 171 q 643 127 636 136 q 659 115 650 119 q 676 110 667 111 q 690 109 685 109 q 732 113 710 109 l 722 8 q 665 -5 694 -3 q 605 -7 635 -7 m 482 341 l 372 341 q 247 309 293 340 q 201 220 201 277 q 228 146 201 173 q 300 119 255 119 q 403 163 357 119 q 467 279 449 207 l 482 341 m 711 821 l 708 802 l 606 802 l 494 932 l 491 932 l 323 802 l 208 802 l 212 821 l 429 1037 l 584 1037 l 711 821 z "},"ã":{"ha":772,"x_min":7,"x_max":751,"o":"m 605 -7 q 500 22 537 -7 q 464 97 464 50 q 467 140 464 122 l 463 140 q 351 19 406 52 q 215 -14 295 -14 q 63 43 120 -14 q 7 189 7 100 q 93 378 7 314 q 374 446 180 442 l 503 448 q 517 536 517 512 q 431 623 517 623 q 336 598 368 623 q 294 527 305 574 l 115 548 q 219 696 138 646 q 435 747 300 747 q 641 698 575 747 q 706 547 706 648 q 690 441 706 522 l 642 201 q 636 153 636 171 q 643 127 636 136 q 659 115 650 119 q 676 110 667 111 q 690 109 685 109 q 732 113 710 109 l 722 8 q 665 -5 694 -3 q 605 -7 635 -7 m 482 341 l 372 341 q 247 309 293 340 q 201 220 201 277 q 228 146 201 173 q 300 119 255 119 q 403 163 357 119 q 467 279 449 207 l 482 341 m 562 802 q 504 815 532 802 q 451 844 477 828 q 403 873 426 860 q 359 886 380 886 q 312 868 331 886 q 277 802 294 851 l 184 802 q 258 955 211 909 q 375 1001 305 1001 q 434 988 406 1001 q 487 959 462 975 q 534 930 512 943 q 576 918 557 918 q 625 937 606 918 q 660 1001 644 956 l 751 1001 q 678 848 725 894 q 562 802 631 802 z "},"ä":{"ha":772,"x_min":7,"x_max":732,"o":"m 605 -7 q 500 22 537 -7 q 464 97 464 50 q 467 140 464 122 l 463 140 q 351 19 406 52 q 215 -14 295 -14 q 63 43 120 -14 q 7 189 7 100 q 93 378 7 314 q 374 446 180 442 l 503 448 q 517 536 517 512 q 431 623 517 623 q 336 598 368 623 q 294 527 305 574 l 115 548 q 219 696 138 646 q 435 747 300 747 q 641 698 575 747 q 706 547 706 648 q 690 441 706 522 l 642 201 q 636 153 636 171 q 643 127 636 136 q 659 115 650 119 q 676 110 667 111 q 690 109 685 109 q 732 113 710 109 l 722 8 q 665 -5 694 -3 q 605 -7 635 -7 m 482 341 l 372 341 q 247 309 293 340 q 201 220 201 277 q 228 146 201 173 q 300 119 255 119 q 403 163 357 119 q 467 279 449 207 l 482 341 m 532 813 l 561 962 l 708 962 l 679 813 l 532 813 m 238 813 l 267 962 l 412 962 l 382 813 l 238 813 z "},"å":{"ha":772,"x_min":7,"x_max":732,"o":"m 605 -7 q 500 22 537 -7 q 464 97 464 50 q 467 140 464 122 l 463 140 q 351 19 406 52 q 215 -14 295 -14 q 63 43 120 -14 q 7 189 7 100 q 93 378 7 314 q 374 446 180 442 l 503 448 q 517 536 517 512 q 431 623 517 623 q 336 598 368 623 q 294 527 305 574 l 115 548 q 219 696 138 646 q 435 747 300 747 q 641 698 575 747 q 706 547 706 648 q 690 441 706 522 l 642 201 q 636 153 636 171 q 643 127 636 136 q 659 115 650 119 q 676 110 667 111 q 690 109 685 109 q 732 113 710 109 l 722 8 q 665 -5 694 -3 q 605 -7 635 -7 m 482 341 l 372 341 q 247 309 293 340 q 201 220 201 277 q 228 146 201 173 q 300 119 255 119 q 403 163 357 119 q 467 279 449 207 l 482 341 m 652 970 q 602 849 652 899 q 479 798 552 798 q 357 849 407 798 q 307 970 307 899 q 358 1092 307 1042 q 479 1143 408 1143 q 601 1092 551 1143 q 652 970 652 1042 m 566 970 q 541 1030 566 1005 q 479 1055 516 1055 q 420 1031 445 1055 q 395 970 395 1006 q 420 908 395 932 q 479 884 445 884 q 541 909 515 884 q 566 970 566 934 z "},"æ":{"ha":1235,"x_min":28,"x_max":1187,"o":"m 696 323 q 692 262 692 297 q 723 152 692 191 q 817 114 755 114 q 961 229 916 114 l 1127 178 q 1001 28 1076 71 q 804 -14 926 -14 q 536 135 602 -14 q 459 48 502 81 q 367 1 417 16 q 237 -14 317 -14 q 85 43 142 -14 q 28 189 28 100 q 395 448 28 448 l 525 448 q 539 536 539 512 q 453 623 539 623 q 358 598 389 623 q 315 527 327 574 l 137 548 q 241 696 160 646 q 456 747 322 747 q 660 671 597 747 q 892 747 755 747 q 1111 674 1034 747 q 1187 469 1187 602 q 1171 323 1187 401 l 696 323 m 504 339 l 395 339 q 275 308 318 339 q 231 220 231 277 q 255 145 231 172 q 322 119 278 119 q 425 163 378 119 q 489 279 471 207 l 504 339 m 1011 450 l 1013 488 q 980 593 1013 560 q 892 627 946 627 q 782 582 827 627 q 719 450 738 536 l 1011 450 z "},"ç":{"ha":772,"x_min":43,"x_max":752,"o":"m 363 117 q 456 153 420 117 q 515 258 493 189 l 699 224 q 353 -14 626 -14 q 123 63 203 -14 q 43 275 43 139 q 96 523 43 407 q 239 693 150 639 q 461 747 328 747 q 666 683 589 747 q 752 503 743 618 l 559 487 q 446 616 552 616 q 333 567 374 616 q 258 390 292 517 q 243 276 243 312 q 363 117 243 117 m 262 -288 q 190 -284 228 -288 l 210 -205 q 265 -210 238 -210 q 345 -198 320 -210 q 370 -157 370 -186 q 296 -115 370 -115 l 279 -115 l 260 -116 l 326 0 l 422 0 l 389 -56 q 466 -79 437 -57 q 496 -146 496 -101 q 439 -250 496 -212 q 262 -288 382 -288 z "},"è":{"ha":772,"x_min":43,"x_max":734,"o":"m 243 323 q 238 262 238 297 q 270 152 238 191 q 363 114 301 114 q 507 229 463 114 l 673 178 q 547 28 623 71 q 350 -14 472 -14 q 124 65 205 -14 q 43 283 43 143 q 92 529 43 424 q 230 691 140 635 q 438 747 320 747 q 657 674 580 747 q 734 469 734 602 q 718 323 734 401 l 243 323 m 557 450 l 559 488 q 526 593 559 560 q 438 627 492 627 q 329 582 373 627 q 265 450 284 536 l 557 450 m 485 802 l 277 989 l 282 1019 l 457 1019 l 589 823 l 585 802 l 485 802 z "},"é":{"ha":772,"x_min":43,"x_max":734,"o":"m 243 323 q 238 262 238 297 q 270 152 238 191 q 363 114 301 114 q 507 229 463 114 l 673 178 q 547 28 623 71 q 350 -14 472 -14 q 124 65 205 -14 q 43 283 43 143 q 92 529 43 424 q 230 691 140 635 q 438 747 320 747 q 657 674 580 747 q 734 469 734 602 q 718 323 734 401 l 243 323 m 557 450 l 559 488 q 526 593 559 560 q 438 627 492 627 q 329 582 373 627 q 265 450 284 536 l 557 450 m 355 802 l 359 823 l 527 1019 l 715 1019 l 709 989 l 454 802 l 355 802 z "},"ê":{"ha":772,"x_min":43,"x_max":734,"o":"m 243 323 q 238 262 238 297 q 270 152 238 191 q 363 114 301 114 q 507 229 463 114 l 673 178 q 547 28 623 71 q 350 -14 472 -14 q 124 65 205 -14 q 43 283 43 143 q 92 529 43 424 q 230 691 140 635 q 438 747 320 747 q 657 674 580 747 q 734 469 734 602 q 718 323 734 401 l 243 323 m 557 450 l 559 488 q 526 593 559 560 q 438 627 492 627 q 329 582 373 627 q 265 450 284 536 l 557 450 m 711 821 l 708 802 l 606 802 l 494 932 l 491 932 l 323 802 l 208 802 l 212 821 l 429 1037 l 584 1037 l 711 821 z "},"ë":{"ha":772,"x_min":43,"x_max":734,"o":"m 243 323 q 238 262 238 297 q 270 152 238 191 q 363 114 301 114 q 507 229 463 114 l 673 178 q 547 28 623 71 q 350 -14 472 -14 q 124 65 205 -14 q 43 283 43 143 q 92 529 43 424 q 230 691 140 635 q 438 747 320 747 q 657 674 580 747 q 734 469 734 602 q 718 323 734 401 l 243 323 m 557 450 l 559 488 q 526 593 559 560 q 438 627 492 627 q 329 582 373 627 q 265 450 284 536 l 557 450 m 539 813 l 568 962 l 715 962 l 686 813 l 539 813 m 245 813 l 274 962 l 419 962 l 390 813 l 245 813 z "},"ì":{"ha":386,"x_min":24,"x_max":379,"o":"m 24 0 l 166 734 l 357 734 l 214 0 l 24 0 m 275 802 l 66 989 l 72 1019 l 247 1019 l 379 823 l 375 802 l 275 802 z "},"í":{"ha":386,"x_min":24,"x_max":534,"o":"m 24 0 l 166 734 l 357 734 l 214 0 l 24 0 m 175 802 l 179 823 l 347 1019 l 534 1019 l 529 989 l 274 802 l 175 802 z "},"î":{"ha":386,"x_min":18,"x_max":522,"o":"m 24 0 l 166 734 l 357 734 l 214 0 l 24 0 m 522 821 l 518 802 l 416 802 l 304 932 l 301 932 l 133 802 l 18 802 l 22 821 l 239 1037 l 394 1037 l 522 821 z "},"ï":{"ha":386,"x_min":24,"x_max":525,"o":"m 24 0 l 166 734 l 357 734 l 214 0 l 24 0 m 349 813 l 378 962 l 525 962 l 496 813 l 349 813 m 55 813 l 83 962 l 229 962 l 199 813 l 55 813 z "},"ð":{"ha":848,"x_min":39,"x_max":795,"o":"m 448 885 q 298 1006 364 967 l 496 1006 q 592 943 545 981 l 792 1017 l 770 897 l 672 861 q 766 690 736 777 q 795 494 795 603 q 679 120 795 254 q 357 -14 563 -14 q 124 65 209 -14 q 39 278 39 143 q 147 558 39 453 q 440 664 255 664 q 527 651 481 664 q 597 621 572 639 q 513 800 576 716 l 325 725 l 347 846 l 448 885 m 446 534 q 296 460 353 534 q 239 268 239 387 q 276 158 239 199 q 376 117 313 117 q 485 156 435 117 q 561 263 534 195 q 589 411 589 331 q 553 501 589 469 q 446 534 517 534 z "},"ñ":{"ha":848,"x_min":24,"x_max":813,"o":"m 500 0 l 581 404 q 598 515 598 488 q 495 603 598 603 q 368 547 427 603 q 295 411 310 492 l 215 0 l 24 0 l 136 577 q 162 734 147 631 l 344 734 q 337 677 344 728 q 328 608 331 626 l 330 608 q 442 713 380 679 q 583 747 503 747 q 738 697 686 747 q 790 554 790 648 q 785 500 790 537 q 776 443 781 463 l 690 0 l 500 0 m 623 802 q 566 815 593 802 q 513 844 538 828 q 465 873 488 860 q 421 886 441 886 q 374 868 393 886 q 338 802 355 851 l 246 802 q 320 955 273 909 q 437 1001 367 1001 q 495 988 467 1001 q 549 959 524 975 q 596 930 574 943 q 638 918 618 918 q 686 937 667 918 q 722 1001 705 956 l 813 1001 q 740 848 787 894 q 623 802 692 802 z "},"ò":{"ha":848,"x_min":43,"x_max":804,"o":"m 804 463 q 748 214 804 323 q 592 45 693 104 q 363 -14 490 -14 q 129 66 215 -14 q 43 284 43 146 q 97 526 43 420 q 250 689 151 631 q 477 747 350 747 q 720 672 637 747 q 804 463 804 598 m 604 449 q 463 616 604 616 q 340 576 386 616 q 269 452 294 535 q 243 292 243 369 q 384 117 243 117 q 504 155 460 117 q 574 271 549 193 q 604 449 600 349 m 501 802 l 293 989 l 298 1019 l 473 1019 l 606 823 l 602 802 l 501 802 z "},"ó":{"ha":848,"x_min":43,"x_max":804,"o":"m 804 463 q 748 214 804 323 q 592 45 693 104 q 363 -14 490 -14 q 129 66 215 -14 q 43 284 43 146 q 97 526 43 420 q 250 689 151 631 q 477 747 350 747 q 720 672 637 747 q 804 463 804 598 m 604 449 q 463 616 604 616 q 340 576 386 616 q 269 452 294 535 q 243 292 243 369 q 384 117 243 117 q 504 155 460 117 q 574 271 549 193 q 604 449 600 349 m 420 802 l 424 823 l 591 1019 l 779 1019 l 774 989 l 519 802 l 420 802 z "},"ô":{"ha":848,"x_min":43,"x_max":804,"o":"m 804 463 q 748 214 804 323 q 592 45 693 104 q 363 -14 490 -14 q 129 66 215 -14 q 43 284 43 146 q 97 526 43 420 q 250 689 151 631 q 477 747 350 747 q 720 672 637 747 q 804 463 804 598 m 604 449 q 463 616 604 616 q 340 576 386 616 q 269 452 294 535 q 243 292 243 369 q 384 117 243 117 q 504 155 460 117 q 574 271 549 193 q 604 449 600 349 m 747 821 l 744 802 l 642 802 l 530 932 l 527 932 l 359 802 l 244 802 l 248 821 l 465 1037 l 620 1037 l 747 821 z "},"õ":{"ha":848,"x_min":43,"x_max":804,"o":"m 804 463 q 748 214 804 323 q 592 45 693 104 q 363 -14 490 -14 q 129 66 215 -14 q 43 284 43 146 q 97 526 43 420 q 250 689 151 631 q 477 747 350 747 q 720 672 637 747 q 804 463 804 598 m 604 449 q 463 616 604 616 q 340 576 386 616 q 269 452 294 535 q 243 292 243 369 q 384 117 243 117 q 504 155 460 117 q 574 271 549 193 q 604 449 600 349 m 605 802 q 548 815 575 802 q 495 844 520 828 q 446 873 469 860 q 403 886 423 886 q 356 868 374 886 q 320 802 337 851 l 228 802 q 301 955 254 909 q 418 1001 349 1001 q 477 988 449 1001 q 530 959 505 975 q 578 930 555 943 q 620 918 600 918 q 668 937 649 918 q 703 1001 687 956 l 795 1001 q 721 848 768 894 q 605 802 674 802 z "},"ö":{"ha":848,"x_min":43,"x_max":804,"o":"m 804 463 q 748 214 804 323 q 592 45 693 104 q 363 -14 490 -14 q 129 66 215 -14 q 43 284 43 146 q 97 526 43 420 q 250 689 151 631 q 477 747 350 747 q 720 672 637 747 q 804 463 804 598 m 604 449 q 463 616 604 616 q 340 576 386 616 q 269 452 294 535 q 243 292 243 369 q 384 117 243 117 q 504 155 460 117 q 574 271 549 193 q 604 449 600 349 m 582 813 l 611 962 l 758 962 l 729 813 l 582 813 m 288 813 l 317 962 l 462 962 l 433 813 l 288 813 z "},"÷":{"ha":762,"x_min":47,"x_max":743,"o":"m 313 652 l 313 810 l 475 810 l 475 652 l 313 652 m 47 386 l 47 538 l 743 538 l 743 386 l 47 386 m 313 115 l 313 273 l 475 273 l 475 115 l 313 115 z "},"ø":{"ha":848,"x_min":28,"x_max":831,"o":"m 28 -26 l 117 77 q 43 284 43 155 q 97 526 43 420 q 250 689 151 631 q 477 747 350 747 q 663 710 585 747 l 703 757 l 831 757 l 741 651 q 804 463 804 580 q 748 214 804 323 q 592 45 693 104 q 363 -14 490 -14 q 197 20 269 -14 l 158 -26 l 28 -26 m 243 292 q 248 229 243 258 l 557 587 q 463 616 523 616 q 340 576 386 616 q 269 452 294 535 q 243 292 243 369 m 604 449 q 602 490 604 471 l 300 140 q 384 117 334 117 q 504 155 460 117 q 574 271 549 193 q 604 449 600 349 z "},"ù":{"ha":848,"x_min":58,"x_max":824,"o":"m 347 734 l 267 330 q 250 218 250 247 q 353 131 250 131 q 479 186 421 131 q 553 323 537 241 l 633 734 l 824 734 l 711 157 q 686 0 701 103 l 504 0 q 510 57 504 6 q 520 125 517 108 l 518 125 q 405 20 467 53 q 265 -13 344 -13 q 110 37 162 -13 q 58 180 58 86 q 62 234 58 197 q 72 291 67 272 l 158 734 l 347 734 m 497 802 l 289 989 l 294 1019 l 469 1019 l 602 823 l 597 802 l 497 802 z "},"ú":{"ha":848,"x_min":58,"x_max":824,"o":"m 347 734 l 267 330 q 250 218 250 247 q 353 131 250 131 q 479 186 421 131 q 553 323 537 241 l 633 734 l 824 734 l 711 157 q 686 0 701 103 l 504 0 q 510 57 504 6 q 520 125 517 108 l 518 125 q 405 20 467 53 q 265 -13 344 -13 q 110 37 162 -13 q 58 180 58 86 q 62 234 58 197 q 72 291 67 272 l 158 734 l 347 734 m 410 802 l 414 823 l 581 1019 l 769 1019 l 764 989 l 509 802 l 410 802 z "},"û":{"ha":848,"x_min":58,"x_max":824,"o":"m 347 734 l 267 330 q 250 218 250 247 q 353 131 250 131 q 479 186 421 131 q 553 323 537 241 l 633 734 l 824 734 l 711 157 q 686 0 701 103 l 504 0 q 510 57 504 6 q 520 125 517 108 l 518 125 q 405 20 467 53 q 265 -13 344 -13 q 110 37 162 -13 q 58 180 58 86 q 62 234 58 197 q 72 291 67 272 l 158 734 l 347 734 m 753 821 l 750 802 l 648 802 l 536 932 l 533 932 l 365 802 l 250 802 l 254 821 l 471 1037 l 626 1037 l 753 821 z "},"ü":{"ha":848,"x_min":58,"x_max":824,"o":"m 347 734 l 267 330 q 250 218 250 247 q 353 131 250 131 q 479 186 421 131 q 553 323 537 241 l 633 734 l 824 734 l 711 157 q 686 0 701 103 l 504 0 q 510 57 504 6 q 520 125 517 108 l 518 125 q 405 20 467 53 q 265 -13 344 -13 q 110 37 162 -13 q 58 180 58 86 q 62 234 58 197 q 72 291 67 272 l 158 734 l 347 734 m 578 813 l 608 962 l 755 962 l 726 813 l 578 813 m 285 813 l 313 962 l 458 962 l 429 813 l 285 813 z "},"ý":{"ha":772,"x_min":-58,"x_max":830,"o":"m 60 -288 q -58 -276 -6 -288 l -32 -143 q 27 -149 -5 -149 q 120 -118 80 -149 q 201 -16 161 -87 l 220 16 l 76 734 l 273 734 l 321 397 q 336 276 326 376 q 345 170 347 176 l 357 195 l 451 394 l 627 734 l 830 734 l 387 -39 q 268 -198 314 -152 q 173 -266 222 -244 q 60 -288 123 -288 m 357 802 l 361 823 l 529 1019 l 717 1019 l 711 989 l 456 802 l 357 802 z "},"þ":{"ha":848,"x_min":-31,"x_max":804,"o":"m 494 615 q 357 555 408 615 q 283 376 306 496 q 271 272 271 313 q 307 158 271 199 q 408 117 343 117 q 517 161 477 117 q 580 300 557 204 q 603 471 603 397 q 577 579 603 543 q 494 615 551 615 m 330 619 l 334 619 q 439 717 383 687 q 575 747 495 747 q 743 683 683 747 q 804 507 804 619 q 762 240 804 370 q 643 48 720 111 q 449 -14 567 -14 q 311 22 364 -14 q 237 121 258 57 l 235 121 l 226 60 l 214 -7 l 159 -288 l -31 -288 l 219 1006 l 410 1006 l 353 717 q 330 619 341 654 z "},"ÿ":{"ha":772,"x_min":-45,"x_max":842,"o":"m 72 -288 q -45 -276 6 -288 l -20 -143 q 39 -149 7 -149 q 133 -118 92 -149 q 213 -16 173 -87 l 232 16 l 88 734 l 286 734 l 334 397 q 348 276 338 376 q 357 170 359 176 l 369 195 l 463 394 l 639 734 l 842 734 l 399 -39 q 280 -198 326 -152 q 185 -266 235 -244 q 72 -288 135 -288 m 547 811 l 576 960 l 724 960 l 694 811 l 547 811 m 254 811 l 282 960 l 427 960 l 398 811 l 254 811 z "},"Ā":{"ha":1003,"x_min":-28,"x_max":903,"o":"m 705 0 l 667 244 l 303 244 l 171 0 l -28 0 l 505 956 l 741 956 l 903 0 l 705 0 m 594 808 q 528 665 580 765 l 384 395 l 652 395 l 606 701 q 594 808 594 793 m 825 1042 l 427 1042 l 450 1156 l 850 1156 l 825 1042 z "},"ā":{"ha":772,"x_min":7,"x_max":732,"o":"m 605 -7 q 500 22 537 -7 q 464 97 464 50 q 467 140 464 122 l 463 140 q 351 19 406 52 q 215 -14 295 -14 q 63 43 120 -14 q 7 189 7 100 q 93 378 7 314 q 374 446 180 442 l 503 448 q 517 536 517 512 q 431 623 517 623 q 336 598 368 623 q 294 527 305 574 l 115 548 q 219 696 138 646 q 435 747 300 747 q 641 698 575 747 q 706 547 706 648 q 690 441 706 522 l 642 201 q 636 153 636 171 q 643 127 636 136 q 659 115 650 119 q 676 110 667 111 q 690 109 685 109 q 732 113 710 109 l 722 8 q 665 -5 694 -3 q 605 -7 635 -7 m 482 341 l 372 341 q 247 309 293 340 q 201 220 201 277 q 228 146 201 173 q 300 119 255 119 q 403 163 357 119 q 467 279 449 207 l 482 341 m 659 816 l 261 816 l 283 930 l 684 930 l 659 816 z "},"Ă":{"ha":1003,"x_min":-28,"x_max":903,"o":"m 705 0 l 667 244 l 303 244 l 171 0 l -28 0 l 505 956 l 741 956 l 903 0 l 705 0 m 594 808 q 528 665 580 765 l 384 395 l 652 395 l 606 701 q 594 808 594 793 m 627 1031 q 472 1086 530 1031 q 414 1236 414 1141 l 526 1236 q 557 1155 526 1185 q 642 1125 588 1125 q 730 1151 694 1125 q 785 1236 766 1177 l 896 1236 q 802 1082 867 1133 q 627 1031 736 1031 z "},"ă":{"ha":772,"x_min":7,"x_max":748,"o":"m 605 -7 q 500 22 537 -7 q 464 97 464 50 q 467 140 464 122 l 463 140 q 351 19 406 52 q 215 -14 295 -14 q 63 43 120 -14 q 7 189 7 100 q 93 378 7 314 q 374 446 180 442 l 503 448 q 517 536 517 512 q 431 623 517 623 q 336 598 368 623 q 294 527 305 574 l 115 548 q 219 696 138 646 q 435 747 300 747 q 641 698 575 747 q 706 547 706 648 q 690 441 706 522 l 642 201 q 636 153 636 171 q 643 127 636 136 q 659 115 650 119 q 676 110 667 111 q 690 109 685 109 q 732 113 710 109 l 722 8 q 665 -5 694 -3 q 605 -7 635 -7 m 482 341 l 372 341 q 247 309 293 340 q 201 220 201 277 q 228 146 201 173 q 300 119 255 119 q 403 163 357 119 q 467 279 449 207 l 482 341 m 479 802 q 325 856 384 802 q 267 996 267 909 l 268 1021 l 378 1021 q 409 940 378 971 q 490 909 440 909 q 582 938 543 909 q 637 1021 621 968 l 748 1021 q 653 856 719 910 q 479 802 587 802 z "},"Ą":{"ha":1003,"x_min":-28,"x_max":903,"o":"m 705 0 l 667 244 l 303 244 l 171 0 l -28 0 l 505 956 l 741 956 l 903 0 l 705 0 m 594 808 q 528 665 580 765 l 384 395 l 652 395 l 606 701 q 594 808 594 793 m 743 -281 q 644 -248 682 -281 q 607 -159 607 -216 q 638 -65 607 -110 q 729 14 669 -20 l 840 14 q 770 -55 799 -12 q 741 -136 741 -98 q 756 -174 741 -161 q 795 -187 771 -187 q 864 -172 828 -187 l 851 -258 q 743 -281 798 -281 z "},"ą":{"ha":772,"x_min":7,"x_max":732,"o":"m 605 -7 q 500 22 537 -7 q 464 97 464 50 q 467 140 464 122 l 463 140 q 351 19 406 52 q 215 -14 295 -14 q 63 43 120 -14 q 7 189 7 100 q 93 378 7 314 q 374 446 180 442 l 503 448 q 517 536 517 512 q 431 623 517 623 q 336 598 368 623 q 294 527 305 574 l 115 548 q 219 696 138 646 q 435 747 300 747 q 641 698 575 747 q 706 547 706 648 q 690 441 706 522 l 642 201 q 636 153 636 171 q 643 127 636 136 q 659 115 650 119 q 676 110 667 111 q 690 109 685 109 q 732 113 710 109 l 722 8 q 665 -5 694 -3 q 605 -7 635 -7 m 482 341 l 372 341 q 247 309 293 340 q 201 220 201 277 q 228 146 201 173 q 300 119 255 119 q 403 163 357 119 q 467 279 449 207 l 482 341 m 548 -288 q 450 -256 487 -288 q 412 -167 412 -223 q 443 -72 412 -117 q 534 7 474 -27 l 646 7 q 575 -62 604 -19 q 547 -143 547 -106 q 562 -182 547 -169 q 600 -195 576 -195 q 669 -179 633 -195 l 656 -265 q 548 -288 603 -288 z "},"Ć":{"ha":1003,"x_min":68,"x_max":1019,"o":"m 272 389 q 330 207 272 271 q 496 143 388 143 q 779 318 676 143 l 933 239 q 482 -14 791 -14 q 259 35 353 -14 q 116 175 165 84 q 68 386 68 265 q 139 691 68 557 q 338 898 210 826 q 629 970 466 970 q 885 903 785 970 q 1019 704 985 836 l 833 656 q 758 770 814 728 q 623 812 703 812 q 365 699 458 812 q 272 389 272 585 m 571 1038 l 576 1059 l 759 1226 l 940 1226 l 934 1197 l 672 1038 l 571 1038 z "},"ć":{"ha":772,"x_min":43,"x_max":768,"o":"m 363 117 q 456 153 420 117 q 515 258 493 189 l 699 224 q 353 -14 626 -14 q 123 63 203 -14 q 43 275 43 139 q 96 523 43 407 q 239 693 150 639 q 461 747 328 747 q 666 683 589 747 q 752 503 743 618 l 559 487 q 446 616 552 616 q 333 567 374 616 q 258 390 292 517 q 243 276 243 312 q 363 117 243 117 m 409 802 l 413 823 l 581 1019 l 768 1019 l 763 989 l 508 802 l 409 802 z "},"Ĉ":{"ha":1003,"x_min":68,"x_max":1019,"o":"m 272 389 q 330 207 272 271 q 496 143 388 143 q 779 318 676 143 l 933 239 q 482 -14 791 -14 q 259 35 353 -14 q 116 175 165 84 q 68 386 68 265 q 139 691 68 557 q 338 898 210 826 q 629 970 466 970 q 885 903 785 970 q 1019 704 985 836 l 833 656 q 758 770 814 728 q 623 812 703 812 q 365 699 458 812 q 272 389 272 585 m 908 1057 l 905 1038 l 804 1038 l 686 1140 l 683 1140 l 520 1038 l 406 1038 l 409 1057 l 620 1244 l 775 1244 l 908 1057 z "},"ĉ":{"ha":772,"x_min":43,"x_max":752,"o":"m 363 117 q 456 153 420 117 q 515 258 493 189 l 699 224 q 353 -14 626 -14 q 123 63 203 -14 q 43 275 43 139 q 96 523 43 407 q 239 693 150 639 q 461 747 328 747 q 666 683 589 747 q 752 503 743 618 l 559 487 q 446 616 552 616 q 333 567 374 616 q 258 390 292 517 q 243 276 243 312 q 363 117 243 117 m 711 821 l 707 802 l 606 802 l 493 932 l 490 932 l 322 802 l 208 802 l 211 821 l 428 1037 l 583 1037 l 711 821 z "},"Ċ":{"ha":1003,"x_min":68,"x_max":1019,"o":"m 272 389 q 330 207 272 271 q 496 143 388 143 q 779 318 676 143 l 933 239 q 482 -14 791 -14 q 259 35 353 -14 q 116 175 165 84 q 68 386 68 265 q 139 691 68 557 q 338 898 210 826 q 629 970 466 970 q 885 903 785 970 q 1019 704 985 836 l 833 656 q 758 770 814 728 q 623 812 703 812 q 365 699 458 812 q 272 389 272 585 m 526 1044 l 554 1185 l 745 1185 l 717 1044 l 526 1044 z "},"ċ":{"ha":772,"x_min":43,"x_max":752,"o":"m 363 117 q 456 153 420 117 q 515 258 493 189 l 699 224 q 353 -14 626 -14 q 123 63 203 -14 q 43 275 43 139 q 96 523 43 407 q 239 693 150 639 q 461 747 328 747 q 666 683 589 747 q 752 503 743 618 l 559 487 q 446 616 552 616 q 333 567 374 616 q 258 390 292 517 q 243 276 243 312 q 363 117 243 117 m 387 866 l 414 1006 l 605 1006 l 577 866 l 387 866 z "},"Č":{"ha":1003,"x_min":68,"x_max":1019,"o":"m 272 389 q 330 207 272 271 q 496 143 388 143 q 779 318 676 143 l 933 239 q 482 -14 791 -14 q 259 35 353 -14 q 116 175 165 84 q 68 386 68 265 q 139 691 68 557 q 338 898 210 826 q 629 970 466 970 q 885 903 785 970 q 1019 704 985 836 l 833 656 q 758 770 814 728 q 623 812 703 812 q 365 699 458 812 q 272 389 272 585 m 711 1038 l 556 1038 l 418 1225 l 421 1244 l 523 1244 l 646 1141 l 649 1141 l 806 1244 l 921 1244 l 917 1225 l 711 1038 z "},"č":{"ha":772,"x_min":43,"x_max":760,"o":"m 363 117 q 456 153 420 117 q 515 258 493 189 l 699 224 q 353 -14 626 -14 q 123 63 203 -14 q 43 275 43 139 q 96 523 43 407 q 239 693 150 639 q 461 747 328 747 q 666 683 589 747 q 752 503 743 618 l 559 487 q 446 616 552 616 q 333 567 374 616 q 258 390 292 517 q 243 276 243 312 q 363 117 243 117 m 545 802 l 390 802 l 256 1017 l 260 1037 l 362 1037 l 480 906 l 483 906 l 646 1037 l 760 1037 l 756 1017 l 545 802 z "},"Ď":{"ha":1003,"x_min":24,"x_max":964,"o":"m 498 956 q 844 850 724 956 q 964 547 964 745 q 897 264 964 387 q 702 71 829 142 q 416 0 574 0 l 24 0 l 210 956 l 498 956 m 254 155 l 410 155 q 603 201 519 155 q 731 335 686 248 q 777 538 777 422 q 705 734 777 667 q 499 801 633 801 l 380 801 l 254 155 m 639 1038 l 484 1038 l 345 1225 l 349 1244 l 450 1244 l 574 1141 l 576 1141 l 734 1244 l 848 1244 l 844 1225 l 639 1038 z "},"ď":{"ha":1027,"x_min":39,"x_max":1127,"o":"m 508 109 q 404 16 460 45 q 266 -14 348 -14 q 100 55 161 -14 q 39 240 39 124 q 83 494 39 370 q 204 683 126 618 q 393 747 283 747 q 606 613 567 747 l 610 613 q 615 654 611 627 q 627 723 619 681 l 684 1006 l 872 1006 l 711 157 q 691 0 697 81 l 500 0 q 511 109 500 43 l 508 109 m 349 117 q 444 140 404 117 q 511 212 483 163 q 555 334 538 260 q 571 462 571 407 q 539 580 571 543 q 444 617 507 617 q 331 570 374 617 q 264 433 287 524 q 241 267 241 343 q 349 117 241 117 m 1011 737 l 918 737 q 1007 866 996 806 l 934 866 l 961 1006 l 1127 1006 l 1108 907 q 1078 822 1098 860 q 1011 737 1057 783 z "},"Đ":{"ha":1003,"x_min":16,"x_max":964,"o":"m 498 956 q 844 850 724 956 q 964 547 964 745 q 897 264 964 387 q 702 71 829 142 q 416 0 574 0 l 24 0 l 102 403 l 16 403 l 44 551 l 132 551 l 210 956 l 498 956 m 331 551 l 573 551 l 543 403 l 302 403 l 254 155 l 410 155 q 603 201 519 155 q 731 335 686 248 q 777 538 777 422 q 705 734 777 667 q 499 801 633 801 l 380 801 l 331 551 z "},"đ":{"ha":848,"x_min":39,"x_max":943,"o":"m 508 109 q 404 16 460 45 q 266 -14 348 -14 q 100 52 161 -14 q 39 231 39 119 q 82 474 39 354 q 202 656 125 593 q 387 720 280 720 q 528 687 473 720 q 602 591 582 654 l 606 591 q 611 636 607 606 q 625 714 616 667 l 642 797 l 446 797 l 469 912 l 665 912 l 684 1006 l 872 1006 l 854 912 l 943 912 l 921 797 l 832 797 l 711 157 q 691 0 697 81 l 500 0 q 511 109 500 43 l 508 109 m 349 117 q 468 159 421 117 q 541 287 515 201 q 567 445 567 372 q 535 558 567 523 q 439 593 503 593 q 330 549 374 593 q 264 418 287 505 q 241 259 241 332 q 349 117 241 117 z "},"Ē":{"ha":926,"x_min":24,"x_max":961,"o":"m 24 0 l 210 956 l 961 956 l 931 801 l 380 801 l 333 561 l 843 561 l 813 406 l 303 406 l 254 155 l 833 155 l 803 0 l 24 0 m 798 1042 l 400 1042 l 422 1156 l 823 1156 l 798 1042 z "},"ē":{"ha":772,"x_min":43,"x_max":734,"o":"m 243 323 q 238 262 238 297 q 270 152 238 191 q 363 114 301 114 q 507 229 463 114 l 673 178 q 547 28 623 71 q 350 -14 472 -14 q 124 65 205 -14 q 43 283 43 143 q 92 529 43 424 q 230 691 140 635 q 438 747 320 747 q 657 674 580 747 q 734 469 734 602 q 718 323 734 401 l 243 323 m 557 450 l 559 488 q 526 593 559 560 q 438 627 492 627 q 329 582 373 627 q 265 450 284 536 l 557 450 m 656 816 l 258 816 l 281 930 l 681 930 l 656 816 z "},"Ĕ":{"ha":926,"x_min":24,"x_max":961,"o":"m 24 0 l 210 956 l 961 956 l 931 801 l 380 801 l 333 561 l 843 561 l 813 406 l 303 406 l 254 155 l 833 155 l 803 0 l 24 0 m 594 1031 q 440 1086 498 1031 q 382 1236 382 1141 l 494 1236 q 525 1155 494 1185 q 609 1125 555 1125 q 698 1151 662 1125 q 752 1236 734 1177 l 863 1236 q 769 1082 835 1133 q 594 1031 703 1031 z "},"ĕ":{"ha":772,"x_min":43,"x_max":740,"o":"m 243 323 q 238 262 238 297 q 270 152 238 191 q 363 114 301 114 q 507 229 463 114 l 673 178 q 547 28 623 71 q 350 -14 472 -14 q 124 65 205 -14 q 43 283 43 143 q 92 529 43 424 q 230 691 140 635 q 438 747 320 747 q 657 674 580 747 q 734 469 734 602 q 718 323 734 401 l 243 323 m 557 450 l 559 488 q 526 593 559 560 q 438 627 492 627 q 329 582 373 627 q 265 450 284 536 l 557 450 m 471 802 q 317 856 376 802 q 258 996 258 909 l 260 1021 l 370 1021 q 401 940 370 971 q 481 909 432 909 q 573 938 534 909 q 629 1021 612 968 l 740 1021 q 645 856 711 910 q 471 802 579 802 z "},"Ė":{"ha":926,"x_min":24,"x_max":961,"o":"m 24 0 l 210 956 l 961 956 l 931 801 l 380 801 l 333 561 l 843 561 l 813 406 l 303 406 l 254 155 l 833 155 l 803 0 l 24 0 m 498 1049 l 526 1190 l 716 1190 l 688 1049 l 498 1049 z "},"ė":{"ha":772,"x_min":43,"x_max":734,"o":"m 243 323 q 238 262 238 297 q 270 152 238 191 q 363 114 301 114 q 507 229 463 114 l 673 178 q 547 28 623 71 q 350 -14 472 -14 q 124 65 205 -14 q 43 283 43 143 q 92 529 43 424 q 230 691 140 635 q 438 747 320 747 q 657 674 580 747 q 734 469 734 602 q 718 323 734 401 l 243 323 m 557 450 l 559 488 q 526 593 559 560 q 438 627 492 627 q 329 582 373 627 q 265 450 284 536 l 557 450 m 374 866 l 401 1006 l 592 1006 l 564 866 l 374 866 z "},"Ę":{"ha":926,"x_min":24,"x_max":961,"o":"m 24 0 l 210 956 l 961 956 l 931 801 l 380 801 l 333 561 l 843 561 l 813 406 l 303 406 l 254 155 l 833 155 l 803 0 l 24 0 m 602 -288 q 503 -256 541 -288 q 466 -167 466 -223 q 497 -72 466 -117 q 588 7 528 -27 l 699 7 q 629 -62 658 -19 q 600 -143 600 -106 q 615 -182 600 -169 q 654 -195 630 -195 q 723 -179 687 -195 l 710 -265 q 602 -288 656 -288 z "},"ę":{"ha":772,"x_min":43,"x_max":734,"o":"m 243 323 q 238 262 238 297 q 270 152 238 191 q 363 114 301 114 q 507 229 463 114 l 673 178 q 547 28 623 71 q 350 -14 472 -14 q 124 65 205 -14 q 43 283 43 143 q 92 529 43 424 q 230 691 140 635 q 438 747 320 747 q 657 674 580 747 q 734 469 734 602 q 718 323 734 401 l 243 323 m 557 450 l 559 488 q 526 593 559 560 q 438 627 492 627 q 329 582 373 627 q 265 450 284 536 l 557 450 m 435 -274 q 336 -241 374 -274 q 299 -153 299 -209 q 330 -58 299 -103 q 421 21 361 -13 l 532 21 q 462 -48 491 -5 q 433 -129 433 -92 q 448 -168 433 -155 q 487 -180 463 -180 q 556 -165 520 -180 l 543 -251 q 435 -274 490 -274 z "},"Ě":{"ha":926,"x_min":24,"x_max":961,"o":"m 24 0 l 210 956 l 961 956 l 931 801 l 380 801 l 333 561 l 843 561 l 813 406 l 303 406 l 254 155 l 833 155 l 803 0 l 24 0 m 659 1038 l 503 1038 l 365 1225 l 368 1244 l 470 1244 l 593 1141 l 596 1141 l 753 1244 l 868 1244 l 864 1225 l 659 1038 z "},"ě":{"ha":772,"x_min":43,"x_max":750,"o":"m 243 323 q 238 262 238 297 q 270 152 238 191 q 363 114 301 114 q 507 229 463 114 l 673 178 q 547 28 623 71 q 350 -14 472 -14 q 124 65 205 -14 q 43 283 43 143 q 92 529 43 424 q 230 691 140 635 q 438 747 320 747 q 657 674 580 747 q 734 469 734 602 q 718 323 734 401 l 243 323 m 557 450 l 559 488 q 526 593 559 560 q 438 627 492 627 q 329 582 373 627 q 265 450 284 536 l 557 450 m 535 802 l 380 802 l 246 1017 l 250 1037 l 352 1037 l 470 906 l 473 906 l 635 1037 l 750 1037 l 746 1017 l 535 802 z "},"Ĝ":{"ha":1080,"x_min":68,"x_max":1038,"o":"m 502 -13 q 183 95 298 -13 q 68 395 68 202 q 139 696 68 565 q 339 899 210 828 q 639 970 469 970 q 898 900 793 970 q 1038 705 1002 830 l 846 652 q 770 770 827 728 q 628 812 714 812 q 439 762 520 812 q 314 617 357 711 q 271 401 271 524 q 335 212 271 281 q 518 143 400 143 q 661 161 591 143 q 779 208 730 178 l 810 363 l 578 363 l 604 504 l 1021 504 l 949 119 q 738 17 844 46 q 502 -13 632 -13 m 901 1057 l 898 1038 l 797 1038 l 679 1140 l 676 1140 l 513 1038 l 399 1038 l 402 1057 l 613 1244 l 768 1244 l 901 1057 z "},"ĝ":{"ha":848,"x_min":-5,"x_max":825,"o":"m 292 -288 q 85 -241 157 -288 q -5 -96 12 -195 l 187 -76 q 315 -162 205 -162 q 431 -122 389 -162 q 495 18 472 -82 q 516 136 509 83 l 515 136 q 440 50 472 76 q 367 9 408 23 q 275 -5 327 -5 q 107 62 170 -5 q 44 241 44 130 q 87 503 44 378 q 206 687 130 628 q 397 747 281 747 q 535 709 477 747 q 611 606 593 671 l 612 606 q 629 677 616 625 q 645 734 642 728 l 825 734 l 812 677 l 791 578 l 680 7 q 556 -220 648 -151 q 292 -288 465 -288 m 574 465 q 538 576 574 536 q 439 616 503 616 q 354 595 388 616 q 297 525 321 573 q 259 397 274 476 q 243 269 243 318 q 361 134 243 134 q 471 179 421 134 q 547 303 520 224 q 574 465 574 381 m 732 821 l 728 802 l 627 802 l 514 932 l 511 932 l 343 802 l 229 802 l 232 821 l 449 1037 l 604 1037 l 732 821 z "},"Ğ":{"ha":1080,"x_min":68,"x_max":1038,"o":"m 502 -13 q 183 95 298 -13 q 68 395 68 202 q 139 696 68 565 q 339 899 210 828 q 639 970 469 970 q 898 900 793 970 q 1038 705 1002 830 l 846 652 q 770 770 827 728 q 628 812 714 812 q 439 762 520 812 q 314 617 357 711 q 271 401 271 524 q 335 212 271 281 q 518 143 400 143 q 661 161 591 143 q 779 208 730 178 l 810 363 l 578 363 l 604 504 l 1021 504 l 949 119 q 738 17 844 46 q 502 -13 632 -13 m 665 1031 q 511 1086 569 1031 q 453 1236 453 1141 l 565 1236 q 596 1155 565 1185 q 680 1125 627 1125 q 769 1151 733 1125 q 823 1236 805 1177 l 935 1236 q 840 1082 906 1133 q 665 1031 774 1031 z "},"ğ":{"ha":848,"x_min":-5,"x_max":825,"o":"m 292 -288 q 85 -241 157 -288 q -5 -96 12 -195 l 187 -76 q 315 -162 205 -162 q 431 -122 389 -162 q 495 18 472 -82 q 516 136 509 83 l 515 136 q 440 50 472 76 q 367 9 408 23 q 275 -5 327 -5 q 107 62 170 -5 q 44 241 44 130 q 87 503 44 378 q 206 687 130 628 q 397 747 281 747 q 535 709 477 747 q 611 606 593 671 l 612 606 q 629 677 616 625 q 645 734 642 728 l 825 734 l 812 677 l 791 578 l 680 7 q 556 -220 648 -151 q 292 -288 465 -288 m 574 465 q 538 576 574 536 q 439 616 503 616 q 354 595 388 616 q 297 525 321 573 q 259 397 274 476 q 243 269 243 318 q 361 134 243 134 q 471 179 421 134 q 547 303 520 224 q 574 465 574 381 m 485 802 q 331 856 390 802 q 273 996 273 909 l 274 1021 l 385 1021 q 415 940 385 971 q 496 909 446 909 q 588 938 549 909 q 643 1021 627 968 l 754 1021 q 659 856 725 910 q 485 802 593 802 z "},"Ġ":{"ha":1080,"x_min":68,"x_max":1038,"o":"m 502 -13 q 183 95 298 -13 q 68 395 68 202 q 139 696 68 565 q 339 899 210 828 q 639 970 469 970 q 898 900 793 970 q 1038 705 1002 830 l 846 652 q 770 770 827 728 q 628 812 714 812 q 439 762 520 812 q 314 617 357 711 q 271 401 271 524 q 335 212 271 281 q 518 143 400 143 q 661 161 591 143 q 779 208 730 178 l 810 363 l 578 363 l 604 504 l 1021 504 l 949 119 q 738 17 844 46 q 502 -13 632 -13 m 551 1049 l 579 1190 l 770 1190 l 742 1049 l 551 1049 z "},"ġ":{"ha":848,"x_min":-5,"x_max":825,"o":"m 292 -288 q 85 -241 157 -288 q -5 -96 12 -195 l 187 -76 q 315 -162 205 -162 q 431 -122 389 -162 q 495 18 472 -82 q 516 136 509 83 l 515 136 q 440 50 472 76 q 367 9 408 23 q 275 -5 327 -5 q 107 62 170 -5 q 44 241 44 130 q 87 503 44 378 q 206 687 130 628 q 397 747 281 747 q 535 709 477 747 q 611 606 593 671 l 612 606 q 629 677 616 625 q 645 734 642 728 l 825 734 l 812 677 l 791 578 l 680 7 q 556 -220 648 -151 q 292 -288 465 -288 m 574 465 q 538 576 574 536 q 439 616 503 616 q 354 595 388 616 q 297 525 321 573 q 259 397 274 476 q 243 269 243 318 q 361 134 243 134 q 471 179 421 134 q 547 303 520 224 q 574 465 574 381 m 404 866 l 432 1006 l 623 1006 l 595 866 l 404 866 z "},"Ģ":{"ha":1080,"x_min":68,"x_max":1038,"o":"m 502 -13 q 183 95 298 -13 q 68 395 68 202 q 139 696 68 565 q 339 899 210 828 q 639 970 469 970 q 898 900 793 970 q 1038 705 1002 830 l 846 652 q 770 770 827 728 q 628 812 714 812 q 439 762 520 812 q 314 617 357 711 q 271 401 271 524 q 335 212 271 281 q 518 143 400 143 q 661 161 591 143 q 779 208 730 178 l 810 363 l 578 363 l 604 504 l 1021 504 l 949 119 q 738 17 844 46 q 502 -13 632 -13 m 498 -309 l 406 -309 q 492 -193 481 -241 l 418 -193 l 446 -53 l 612 -53 l 595 -138 q 565 -224 586 -186 q 498 -309 544 -263 z "},"ģ":{"ha":848,"x_min":-5,"x_max":825,"o":"m 292 -288 q 85 -241 157 -288 q -5 -96 12 -195 l 187 -76 q 315 -162 205 -162 q 431 -122 389 -162 q 495 18 472 -82 q 516 136 509 83 l 515 136 q 440 50 472 76 q 367 9 408 23 q 275 -5 327 -5 q 107 62 170 -5 q 44 241 44 130 q 87 503 44 378 q 206 687 130 628 q 397 747 281 747 q 535 709 477 747 q 611 606 593 671 l 612 606 q 629 677 616 625 q 645 734 642 728 l 825 734 l 812 677 l 791 578 l 680 7 q 556 -220 648 -151 q 292 -288 465 -288 m 574 465 q 538 576 574 536 q 439 616 503 616 q 354 595 388 616 q 297 525 321 573 q 259 397 274 476 q 243 269 243 318 q 361 134 243 134 q 471 179 421 134 q 547 303 520 224 q 574 465 574 381 m 504 1091 l 604 1091 q 515 962 526 1023 l 588 962 l 561 822 l 395 822 l 414 921 q 448 1020 425 980 q 504 1091 471 1059 z "},"Ĥ":{"ha":1003,"x_min":24,"x_max":1027,"o":"m 648 0 l 728 410 l 304 410 l 224 0 l 24 0 l 210 956 l 410 956 l 336 575 l 760 575 l 834 956 l 1027 956 l 841 0 l 648 0 m 888 1057 l 885 1038 l 784 1038 l 666 1140 l 663 1140 l 500 1038 l 386 1038 l 389 1057 l 600 1244 l 755 1244 l 888 1057 z "},"ĥ":{"ha":848,"x_min":24,"x_max":812,"o":"m 408 1006 l 354 732 l 328 608 l 330 608 q 442 713 380 679 q 583 747 503 747 q 738 697 686 747 q 790 554 790 648 q 785 500 790 537 q 776 443 781 463 l 690 0 l 500 0 l 581 404 q 598 515 598 488 q 495 603 598 603 q 368 547 427 603 q 295 411 310 492 l 215 0 l 24 0 l 218 1006 l 408 1006 m 812 1111 l 809 1091 l 708 1091 l 590 1194 l 587 1194 l 425 1091 l 310 1091 l 313 1111 l 524 1298 l 680 1298 l 812 1111 z "},"Ħ":{"ha":1003,"x_min":24,"x_max":1084,"o":"m 648 0 l 728 410 l 304 410 l 224 0 l 24 0 l 161 709 l 78 709 l 100 824 l 184 824 l 210 956 l 410 956 l 384 824 l 808 824 l 834 956 l 1027 956 l 1001 824 l 1084 824 l 1062 709 l 979 709 l 841 0 l 648 0 m 760 575 l 786 709 l 361 709 l 336 575 l 760 575 z "},"ħ":{"ha":848,"x_min":24,"x_max":785,"o":"m 408 1006 l 389 912 l 602 912 l 579 797 l 366 797 q 322 581 342 673 l 324 581 q 436 686 375 652 q 577 720 498 720 q 732 670 680 720 q 785 527 785 621 q 780 473 785 510 q 770 416 775 436 l 690 0 l 500 0 l 575 376 q 593 488 593 460 q 490 576 593 576 q 363 520 421 576 q 290 384 304 465 l 215 0 l 24 0 l 177 797 l 84 797 l 106 912 l 199 912 l 218 1006 l 408 1006 z "},"Ĩ":{"ha":386,"x_min":24,"x_max":614,"o":"m 24 0 l 210 956 l 410 956 l 224 0 l 24 0 m 424 1037 q 367 1050 394 1037 q 314 1079 339 1063 q 265 1107 288 1095 q 222 1120 242 1120 q 175 1103 193 1120 q 139 1037 156 1086 l 47 1037 q 120 1190 73 1144 q 237 1236 168 1236 q 296 1223 268 1236 q 349 1194 324 1210 q 397 1165 374 1178 q 439 1152 419 1152 q 487 1171 468 1152 q 522 1236 506 1190 l 614 1236 q 540 1083 587 1128 q 424 1037 493 1037 z "},"ĩ":{"ha":386,"x_min":-10,"x_max":557,"o":"m 24 0 l 166 734 l 357 734 l 214 0 l 24 0 m 367 802 q 310 815 337 802 q 257 844 282 828 q 208 873 231 860 q 165 886 185 886 q 118 868 136 886 q 82 802 99 851 l -10 802 q 63 955 16 909 q 180 1001 111 1001 q 239 988 211 1001 q 292 959 267 975 q 340 930 317 943 q 382 918 362 918 q 430 937 411 918 q 465 1001 449 956 l 557 1001 q 483 848 530 894 q 367 802 436 802 z "},"Ī":{"ha":386,"x_min":24,"x_max":538,"o":"m 24 0 l 210 956 l 410 956 l 224 0 l 24 0 m 513 1042 l 115 1042 l 138 1156 l 538 1156 l 513 1042 z "},"ī":{"ha":386,"x_min":24,"x_max":498,"o":"m 24 0 l 166 734 l 357 734 l 214 0 l 24 0 m 473 816 l 75 816 l 98 930 l 498 930 l 473 816 z "},"Ĭ":{"ha":386,"x_min":24,"x_max":588,"o":"m 24 0 l 210 956 l 410 956 l 224 0 l 24 0 m 319 1031 q 164 1086 222 1031 q 106 1236 106 1141 l 218 1236 q 249 1155 218 1185 q 334 1125 280 1125 q 422 1151 387 1125 q 477 1236 458 1177 l 588 1236 q 494 1082 559 1133 q 319 1031 428 1031 z "},"ĭ":{"ha":386,"x_min":24,"x_max":548,"o":"m 24 0 l 166 734 l 357 734 l 214 0 l 24 0 m 279 802 q 125 856 184 802 q 66 996 66 909 l 68 1021 l 178 1021 q 209 940 178 971 q 290 909 240 909 q 381 938 342 909 q 437 1021 420 968 l 548 1021 q 453 856 519 910 q 279 802 387 802 z "},"Į":{"ha":386,"x_min":-16,"x_max":410,"o":"m 24 0 l 210 956 l 410 956 l 224 0 l 24 0 m 120 -288 q 22 -256 59 -288 q -16 -167 -16 -223 q 15 -72 -16 -117 q 106 7 46 -27 l 218 7 q 148 -62 176 -19 q 119 -143 119 -106 q 134 -182 119 -169 q 172 -195 149 -195 q 241 -179 205 -195 l 229 -265 q 120 -288 175 -288 z "},"į":{"ha":386,"x_min":-25,"x_max":410,"o":"m 191 866 l 219 1006 l 410 1006 l 382 866 l 191 866 m 24 0 l 166 734 l 357 734 l 214 0 l 24 0 m 111 -288 q 12 -256 50 -288 q -25 -167 -25 -223 q 6 -72 -25 -117 q 97 7 37 -27 l 208 7 q 138 -62 167 -19 q 109 -143 109 -106 q 124 -182 109 -169 q 163 -195 139 -195 q 232 -179 196 -195 l 219 -265 q 111 -288 165 -288 z "},"İ":{"ha":386,"x_min":24,"x_max":448,"o":"m 24 0 l 210 956 l 410 956 l 224 0 l 24 0 m 230 1049 l 258 1190 l 448 1190 l 420 1049 l 230 1049 z "},"ı":{"ha":386,"x_min":24,"x_max":357,"o":"m 24 0 l 166 734 l 357 734 l 214 0 l 24 0 z "},"Ĳ":{"ha":1086,"x_min":24,"x_max":1111,"o":"m 24 0 l 210 956 l 410 956 l 224 0 l 24 0 m 640 -14 q 434 52 511 -14 q 332 257 357 117 l 513 296 q 653 143 544 143 q 715 159 690 143 q 756 205 740 176 q 785 298 772 235 l 882 799 l 691 799 l 721 956 l 1111 956 l 980 287 q 868 58 949 130 q 640 -14 787 -14 z "},"ĳ":{"ha":772,"x_min":24,"x_max":795,"o":"m 191 866 l 219 1006 l 410 1006 l 382 866 l 191 866 m 24 0 l 166 734 l 357 734 l 214 0 l 24 0 m 578 866 l 605 1006 l 795 1006 l 768 866 l 578 866 m 349 -288 q 237 -275 285 -288 l 261 -148 l 300 -151 q 367 -127 346 -151 q 401 -41 389 -104 l 552 734 l 743 734 l 583 -87 q 504 -236 563 -184 q 349 -288 444 -288 z "},"Ĵ":{"ha":772,"x_min":17,"x_max":869,"o":"m 326 -14 q 120 52 197 -14 q 17 257 43 117 l 198 296 q 338 143 229 143 q 400 159 375 143 q 441 205 425 176 q 470 298 458 235 l 567 799 l 376 799 l 406 956 l 796 956 l 665 287 q 553 58 635 130 q 326 -14 472 -14 m 869 1057 l 866 1038 l 765 1038 l 647 1140 l 644 1140 l 481 1038 l 367 1038 l 370 1057 l 581 1244 l 736 1244 l 869 1057 z "},"ĵ":{"ha":386,"x_min":-149,"x_max":512,"o":"m -37 -288 q -149 -275 -101 -288 l -125 -148 l -85 -151 q -19 -127 -40 -151 q 15 -41 3 -104 l 166 734 l 357 734 l 197 -87 q 118 -236 177 -184 q -37 -288 58 -288 m 512 821 l 509 802 l 407 802 l 294 932 l 292 932 l 123 802 l 9 802 l 12 821 l 229 1037 l 385 1037 l 512 821 z "},"Ķ":{"ha":1003,"x_min":24,"x_max":1087,"o":"m 675 0 l 434 434 l 291 351 l 222 0 l 24 0 l 210 956 l 410 956 l 321 522 l 837 956 l 1087 956 l 581 538 l 896 0 l 675 0 m 410 -309 l 317 -309 q 404 -193 393 -241 l 330 -193 l 357 -53 l 524 -53 l 507 -138 q 477 -224 498 -186 q 410 -309 456 -263 z "},"ķ":{"ha":772,"x_min":24,"x_max":830,"o":"m 494 0 l 366 337 l 271 286 l 214 0 l 24 0 l 219 1006 l 410 1006 l 296 430 l 612 734 l 830 734 l 509 448 l 696 0 l 494 0 m 319 -309 l 226 -309 q 312 -193 302 -241 l 239 -193 l 266 -53 l 432 -53 l 416 -138 q 385 -224 406 -186 q 319 -309 364 -263 z "},"ĸ":{"ha":772,"x_min":24,"x_max":830,"o":"m 494 0 l 366 337 l 271 286 l 214 0 l 24 0 l 166 734 l 357 734 l 297 430 l 612 734 l 830 734 l 509 448 l 696 0 l 494 0 z "},"Ĺ":{"ha":848,"x_min":24,"x_max":767,"o":"m 24 0 l 210 956 l 410 956 l 254 155 l 767 155 l 736 0 l 24 0 m 305 1038 l 310 1059 l 493 1226 l 674 1226 l 668 1197 l 406 1038 l 305 1038 z "},"ĺ":{"ha":386,"x_min":24,"x_max":591,"o":"m 24 0 l 219 1006 l 410 1006 l 214 0 l 24 0 m 222 1091 l 227 1112 l 410 1280 l 591 1280 l 585 1251 l 323 1091 l 222 1091 z "},"Ļ":{"ha":848,"x_min":24,"x_max":767,"o":"m 24 0 l 210 956 l 410 956 l 254 155 l 767 155 l 736 0 l 24 0 m 363 -309 l 270 -309 q 356 -193 346 -241 l 283 -193 l 310 -53 l 476 -53 l 460 -138 q 429 -224 450 -186 q 363 -309 408 -263 z "},"ļ":{"ha":386,"x_min":-11,"x_max":410,"o":"m 24 0 l 219 1006 l 410 1006 l 214 0 l 24 0 m 82 -309 l -11 -309 q 75 -193 65 -241 l 2 -193 l 29 -53 l 195 -53 l 179 -138 q 149 -224 170 -186 q 82 -309 127 -263 z "},"Ľ":{"ha":848,"x_min":24,"x_max":772,"o":"m 24 0 l 210 956 l 410 956 l 254 155 l 767 155 l 736 0 l 24 0 m 656 686 l 563 686 q 652 815 640 755 l 578 815 l 606 956 l 772 956 l 753 857 q 722 771 743 809 q 656 686 702 732 z "},"ľ":{"ha":550,"x_min":24,"x_max":665,"o":"m 24 0 l 219 1006 l 410 1006 l 214 0 l 24 0 m 549 737 l 456 737 q 545 866 533 806 l 471 866 l 498 1006 l 665 1006 l 646 907 q 615 822 635 860 q 549 737 595 783 z "},"Ŀ":{"ha":848,"x_min":24,"x_max":767,"o":"m 24 0 l 210 956 l 410 956 l 254 155 l 767 155 l 736 0 l 24 0 m 488 441 l 516 582 l 707 582 l 679 441 l 488 441 z "},"ŀ":{"ha":665,"x_min":24,"x_max":636,"o":"m 24 0 l 219 1006 l 410 1006 l 214 0 l 24 0 m 418 441 l 446 582 l 636 582 l 608 441 l 418 441 z "},"Ł":{"ha":848,"x_min":-13,"x_max":767,"o":"m 24 0 l 87 327 l -13 283 l 17 436 l 117 480 l 210 956 l 410 956 l 336 575 l 564 676 l 534 525 l 307 424 l 254 155 l 767 155 l 736 0 l 24 0 z "},"ł":{"ha":386,"x_min":4,"x_max":434,"o":"m 214 0 l 24 0 l 97 380 l 4 334 l 32 479 l 125 526 l 219 1006 l 410 1006 l 336 632 l 434 682 l 406 538 l 309 486 l 214 0 z "},"Ń":{"ha":1003,"x_min":24,"x_max":1027,"o":"m 600 0 l 346 767 q 320 605 330 657 l 202 0 l 24 0 l 210 956 l 448 956 l 703 182 l 711 237 q 731 355 719 294 l 849 956 l 1027 956 l 841 0 l 600 0 m 518 1038 l 523 1059 l 706 1226 l 887 1226 l 881 1197 l 619 1038 l 518 1038 z "},"ń":{"ha":848,"x_min":24,"x_max":790,"o":"m 500 0 l 581 404 q 598 515 598 488 q 495 603 598 603 q 368 547 427 603 q 295 411 310 492 l 215 0 l 24 0 l 136 577 q 162 734 147 631 l 344 734 q 337 677 344 728 q 328 608 331 626 l 330 608 q 442 713 380 679 q 583 747 503 747 q 738 697 686 747 q 790 554 790 648 q 785 500 790 537 q 776 443 781 463 l 690 0 l 500 0 m 419 802 l 423 823 l 591 1019 l 779 1019 l 773 989 l 518 802 l 419 802 z "},"Ņ":{"ha":1003,"x_min":24,"x_max":1027,"o":"m 600 0 l 346 767 q 320 605 330 657 l 202 0 l 24 0 l 210 956 l 448 956 l 703 182 l 711 237 q 731 355 719 294 l 849 956 l 1027 956 l 841 0 l 600 0 m 413 -309 l 320 -309 q 406 -193 396 -241 l 333 -193 l 360 -53 l 526 -53 l 510 -138 q 479 -224 500 -186 q 413 -309 458 -263 z "},"ņ":{"ha":848,"x_min":24,"x_max":790,"o":"m 500 0 l 581 404 q 598 515 598 488 q 495 603 598 603 q 368 547 427 603 q 295 411 310 492 l 215 0 l 24 0 l 136 577 q 162 734 147 631 l 344 734 q 337 677 344 728 q 328 608 331 626 l 330 608 q 442 713 380 679 q 583 747 503 747 q 738 697 686 747 q 790 554 790 648 q 785 500 790 537 q 776 443 781 463 l 690 0 l 500 0 m 329 -309 l 236 -309 q 322 -193 312 -241 l 249 -193 l 276 -53 l 442 -53 l 426 -138 q 395 -224 416 -186 q 329 -309 374 -263 z "},"Ň":{"ha":1003,"x_min":24,"x_max":1027,"o":"m 600 0 l 346 767 q 320 605 330 657 l 202 0 l 24 0 l 210 956 l 448 956 l 703 182 l 711 237 q 731 355 719 294 l 849 956 l 1027 956 l 841 0 l 600 0 m 703 1038 l 547 1038 l 409 1225 l 412 1244 l 514 1244 l 637 1141 l 640 1141 l 798 1244 l 912 1244 l 908 1225 l 703 1038 z "},"ň":{"ha":848,"x_min":24,"x_max":790,"o":"m 500 0 l 581 404 q 598 515 598 488 q 495 603 598 603 q 368 547 427 603 q 295 411 310 492 l 215 0 l 24 0 l 136 577 q 162 734 147 631 l 344 734 q 337 677 344 728 q 328 608 331 626 l 330 608 q 442 713 380 679 q 583 747 503 747 q 738 697 686 747 q 790 554 790 648 q 785 500 790 537 q 776 443 781 463 l 690 0 l 500 0 m 574 802 l 418 802 l 285 1017 l 289 1037 l 391 1037 l 509 906 l 511 906 l 674 1037 l 789 1037 l 785 1017 l 574 802 z "},"ŉ":{"ha":984,"x_min":5,"x_max":926,"o":"m 636 0 l 716 404 q 734 515 734 488 q 631 603 734 603 q 504 547 562 603 q 431 411 446 492 l 351 0 l 159 0 l 272 577 q 298 734 283 631 l 479 734 q 473 677 479 728 q 463 608 467 626 l 465 608 q 577 713 516 679 q 718 747 639 747 q 873 697 821 747 q 926 554 926 648 q 921 500 926 537 q 911 443 916 463 l 825 0 l 636 0 m 129 564 l 5 564 q 136 779 116 677 l 50 779 l 85 956 l 279 956 l 254 823 q 209 682 238 744 q 129 564 180 621 z "},"Ŋ":{"ha":1004,"x_min":24,"x_max":987,"o":"m 572 -14 q 313 145 391 -14 l 480 224 q 531 163 505 182 q 593 144 558 144 q 680 190 650 144 q 737 375 710 235 l 775 570 q 792 690 792 651 q 752 781 792 749 q 631 814 713 814 q 503 786 566 814 q 396 709 440 758 q 342 604 353 659 l 224 0 l 24 0 l 168 741 l 206 956 l 403 956 q 374 785 397 910 l 377 785 q 528 922 441 876 q 717 969 615 969 q 987 722 987 969 q 974 602 987 675 l 928 368 q 856 129 897 205 q 746 20 814 54 q 572 -14 677 -14 z "},"ŋ":{"ha":848,"x_min":24,"x_max":790,"o":"m 440 -288 q 328 -275 376 -288 l 352 -148 l 391 -151 q 458 -126 437 -151 q 492 -41 479 -102 l 581 404 q 598 515 598 488 q 495 603 598 603 q 368 547 427 603 q 295 411 310 492 l 215 0 l 24 0 l 136 577 q 162 734 147 631 l 344 734 q 342 715 344 730 q 338 681 340 701 q 333 642 336 662 q 328 608 330 622 l 330 608 q 442 713 380 679 q 583 747 503 747 q 738 697 686 747 q 790 554 790 648 q 785 500 790 537 q 776 443 781 463 l 673 -87 q 597 -234 656 -180 q 440 -288 538 -288 z "},"Ō":{"ha":1080,"x_min":68,"x_max":1057,"o":"m 629 970 q 943 864 828 970 q 1057 577 1057 759 q 986 272 1057 410 q 786 60 914 134 q 493 -14 658 -14 q 266 35 362 -14 q 118 175 169 84 q 68 389 68 267 q 139 686 68 548 q 338 897 211 824 q 629 970 465 970 m 620 812 q 433 761 510 812 q 313 608 355 710 q 271 394 271 505 q 332 207 271 269 q 503 144 393 144 q 689 195 612 144 q 809 346 766 245 q 851 561 851 446 q 792 746 851 680 q 620 812 732 812 m 836 1042 l 438 1042 l 460 1156 l 861 1156 l 836 1042 z "},"ō":{"ha":848,"x_min":43,"x_max":804,"o":"m 804 463 q 748 214 804 323 q 592 45 693 104 q 363 -14 490 -14 q 129 66 215 -14 q 43 284 43 146 q 97 526 43 420 q 250 689 151 631 q 477 747 350 747 q 720 672 637 747 q 804 463 804 598 m 604 449 q 463 616 604 616 q 340 576 386 616 q 269 452 294 535 q 243 292 243 369 q 384 117 243 117 q 504 155 460 117 q 574 271 549 193 q 604 449 600 349 m 689 816 l 292 816 l 314 930 l 714 930 l 689 816 z "},"Ŏ":{"ha":1080,"x_min":68,"x_max":1057,"o":"m 629 970 q 943 864 828 970 q 1057 577 1057 759 q 986 272 1057 410 q 786 60 914 134 q 493 -14 658 -14 q 266 35 362 -14 q 118 175 169 84 q 68 389 68 267 q 139 686 68 548 q 338 897 211 824 q 629 970 465 970 m 620 812 q 433 761 510 812 q 313 608 355 710 q 271 394 271 505 q 332 207 271 269 q 503 144 393 144 q 689 195 612 144 q 809 346 766 245 q 851 561 851 446 q 792 746 851 680 q 620 812 732 812 m 650 1031 q 495 1086 553 1031 q 437 1236 437 1141 l 549 1236 q 580 1155 549 1185 q 665 1125 611 1125 q 753 1151 718 1125 q 808 1236 789 1177 l 919 1236 q 825 1082 890 1133 q 650 1031 759 1031 z "},"ŏ":{"ha":848,"x_min":43,"x_max":804,"o":"m 804 463 q 748 214 804 323 q 592 45 693 104 q 363 -14 490 -14 q 129 66 215 -14 q 43 284 43 146 q 97 526 43 420 q 250 689 151 631 q 477 747 350 747 q 720 672 637 747 q 804 463 804 598 m 604 449 q 463 616 604 616 q 340 576 386 616 q 269 452 294 535 q 243 292 243 369 q 384 117 243 117 q 504 155 460 117 q 574 271 549 193 q 604 449 600 349 m 514 802 q 360 856 419 802 q 302 996 302 909 l 303 1021 l 414 1021 q 445 940 414 971 q 525 909 475 909 q 617 938 578 909 q 672 1021 656 968 l 783 1021 q 688 856 754 910 q 514 802 623 802 z "},"Ő":{"ha":1080,"x_min":68,"x_max":1057,"o":"m 629 970 q 943 864 828 970 q 1057 577 1057 759 q 986 272 1057 410 q 786 60 914 134 q 493 -14 658 -14 q 266 35 362 -14 q 118 175 169 84 q 68 389 68 267 q 139 686 68 548 q 338 897 211 824 q 629 970 465 970 m 620 812 q 433 761 510 812 q 313 608 355 710 q 271 394 271 505 q 332 207 271 269 q 503 144 393 144 q 689 195 612 144 q 809 346 766 245 q 851 561 851 446 q 792 746 851 680 q 620 812 732 812 m 435 1038 l 442 1059 l 596 1227 l 773 1227 l 766 1198 l 528 1038 l 435 1038 m 710 1038 l 710 1059 l 871 1227 l 1048 1227 l 1041 1198 l 802 1038 l 710 1038 z "},"ő":{"ha":848,"x_min":43,"x_max":884,"o":"m 804 463 q 748 214 804 323 q 592 45 693 104 q 363 -14 490 -14 q 129 66 215 -14 q 43 284 43 146 q 97 526 43 420 q 250 689 151 631 q 477 747 350 747 q 720 672 637 747 q 804 463 804 598 m 604 449 q 463 616 604 616 q 340 576 386 616 q 269 452 294 535 q 243 292 243 369 q 384 117 243 117 q 504 155 460 117 q 574 271 549 193 q 604 449 600 349 m 252 802 l 258 823 l 433 1019 l 610 1019 l 603 989 l 351 802 l 252 802 m 526 802 l 533 823 l 707 1019 l 884 1019 l 878 989 l 625 802 l 526 802 z "},"Œ":{"ha":1389,"x_min":70,"x_max":1423,"o":"m 622 0 q 479 -7 579 -7 q 177 97 285 -7 q 70 389 70 200 q 110 611 70 504 q 227 798 149 718 q 412 921 304 878 q 644 963 519 963 q 737 960 697 963 l 780 956 l 1423 956 l 1394 802 l 941 802 l 895 561 l 1305 561 l 1276 411 l 865 411 l 816 157 l 1296 157 l 1265 0 l 622 0 m 499 151 q 616 164 568 151 l 739 793 q 684 803 718 800 q 637 806 651 806 q 485 778 551 806 q 371 692 418 749 q 298 551 323 634 q 273 382 273 468 q 332 211 273 271 q 499 151 390 151 z "},"œ":{"ha":1311,"x_min":39,"x_max":1280,"o":"m 789 323 q 784 262 784 297 q 815 152 784 191 q 909 114 847 114 q 1053 229 1008 114 l 1219 178 q 1093 28 1168 71 q 896 -14 1018 -14 q 648 90 728 -14 q 527 13 602 39 q 359 -14 453 -14 q 125 66 212 -14 q 39 284 39 146 q 93 526 39 420 q 247 689 147 631 q 474 747 347 747 q 618 724 559 747 q 724 651 677 701 q 984 747 827 747 q 1203 674 1126 747 q 1280 469 1280 602 q 1263 323 1280 401 l 789 323 m 601 449 q 460 616 601 616 q 337 576 382 616 q 265 452 291 535 q 239 292 239 369 q 275 162 239 208 q 381 117 310 117 q 503 156 458 117 q 572 275 547 196 q 601 449 597 355 m 1103 450 l 1105 488 q 1072 593 1105 560 q 984 627 1038 627 q 874 582 919 627 q 811 450 830 536 l 1103 450 z "},"Ŕ":{"ha":1003,"x_min":24,"x_max":994,"o":"m 685 0 l 529 362 l 294 362 l 224 0 l 24 0 l 210 956 l 652 956 q 837 922 760 956 q 954 827 913 889 q 994 682 994 766 q 920 492 994 570 q 720 395 846 414 l 906 0 l 685 0 m 591 518 q 740 558 690 518 q 791 671 791 597 q 748 767 791 734 q 627 800 705 800 l 380 800 l 325 518 l 591 518 m 500 1038 l 505 1059 l 688 1226 l 869 1226 l 863 1197 l 602 1038 l 500 1038 z "},"ŕ":{"ha":541,"x_min":24,"x_max":656,"o":"m 572 578 q 495 589 526 589 q 359 530 412 589 q 283 349 307 471 l 214 0 l 24 0 l 133 563 q 161 734 149 644 l 343 734 l 328 617 l 323 584 l 326 584 q 423 711 375 675 q 534 747 471 747 q 604 738 566 747 l 572 578 m 296 802 l 300 823 l 468 1019 l 656 1019 l 650 989 l 395 802 l 296 802 z "},"Ŗ":{"ha":1003,"x_min":24,"x_max":994,"o":"m 685 0 l 529 362 l 294 362 l 224 0 l 24 0 l 210 956 l 652 956 q 837 922 760 956 q 954 827 913 889 q 994 682 994 766 q 920 492 994 570 q 720 395 846 414 l 906 0 l 685 0 m 591 518 q 740 558 690 518 q 791 671 791 597 q 748 767 791 734 q 627 800 705 800 l 380 800 l 325 518 l 591 518 m 422 -309 l 329 -309 q 415 -193 405 -241 l 342 -193 l 369 -53 l 535 -53 l 519 -138 q 488 -224 509 -186 q 422 -309 467 -263 z "},"ŗ":{"ha":541,"x_min":-12,"x_max":604,"o":"m 572 578 q 495 589 526 589 q 359 530 412 589 q 283 349 307 471 l 214 0 l 24 0 l 133 563 q 161 734 149 644 l 343 734 l 328 617 l 323 584 l 326 584 q 423 711 375 675 q 534 747 471 747 q 604 738 566 747 l 572 578 m 81 -309 l -12 -309 q 74 -193 64 -241 l 1 -193 l 28 -53 l 194 -53 l 178 -138 q 147 -224 168 -186 q 81 -309 126 -263 z "},"Ř":{"ha":1003,"x_min":24,"x_max":994,"o":"m 685 0 l 529 362 l 294 362 l 224 0 l 24 0 l 210 956 l 652 956 q 837 922 760 956 q 954 827 913 889 q 994 682 994 766 q 920 492 994 570 q 720 395 846 414 l 906 0 l 685 0 m 591 518 q 740 558 690 518 q 791 671 791 597 q 748 767 791 734 q 627 800 705 800 l 380 800 l 325 518 l 591 518 m 631 1038 l 476 1038 l 338 1225 l 341 1244 l 443 1244 l 566 1141 l 569 1141 l 726 1244 l 841 1244 l 837 1225 l 631 1038 z "},"ř":{"ha":541,"x_min":24,"x_max":672,"o":"m 572 578 q 495 589 526 589 q 359 530 412 589 q 283 349 307 471 l 214 0 l 24 0 l 133 563 q 161 734 149 644 l 343 734 l 328 617 l 323 584 l 326 584 q 423 711 375 675 q 534 747 471 747 q 604 738 566 747 l 572 578 m 457 802 l 302 802 l 168 1017 l 172 1037 l 274 1037 l 392 906 l 395 906 l 557 1037 l 672 1037 l 668 1017 l 457 802 z "},"Ś":{"ha":926,"x_min":17,"x_max":912,"o":"m 407 -14 q 131 51 226 -14 q 17 248 36 115 l 213 281 q 276 171 227 205 q 420 136 326 136 q 654 271 654 136 q 614 357 654 326 q 452 419 573 389 q 268 488 328 452 q 176 576 208 524 q 144 703 144 628 q 251 897 144 823 q 533 970 357 970 q 792 911 694 970 q 912 740 890 852 l 717 694 q 652 792 702 755 q 522 828 602 828 q 390 797 438 828 q 342 710 342 765 q 359 656 342 678 q 411 617 377 633 q 545 573 445 600 q 705 517 653 543 q 787 458 756 491 q 834 384 818 426 q 850 287 850 342 q 738 63 850 140 q 407 -14 625 -14 m 484 1038 l 488 1059 l 671 1226 l 852 1226 l 846 1197 l 585 1038 l 484 1038 z "},"ś":{"ha":772,"x_min":16,"x_max":728,"o":"m 678 227 q 591 47 678 109 q 337 -14 504 -14 q 122 35 201 -14 q 16 184 43 83 l 186 208 q 238 135 200 157 q 351 113 276 113 q 463 136 425 113 q 501 205 501 160 q 473 259 501 240 q 349 298 445 277 q 159 382 214 328 q 104 522 104 436 q 189 688 104 630 q 432 745 274 745 q 640 697 572 745 q 725 550 709 650 l 555 530 q 510 598 543 577 q 419 619 477 619 q 280 538 280 619 q 294 500 280 515 q 332 475 307 486 q 453 441 357 464 q 627 362 576 414 q 678 227 678 311 m 368 802 l 372 823 l 540 1019 l 728 1019 l 722 989 l 467 802 l 368 802 z "},"Ŝ":{"ha":926,"x_min":17,"x_max":912,"o":"m 407 -14 q 131 51 226 -14 q 17 248 36 115 l 213 281 q 276 171 227 205 q 420 136 326 136 q 654 271 654 136 q 614 357 654 326 q 452 419 573 389 q 268 488 328 452 q 176 576 208 524 q 144 703 144 628 q 251 897 144 823 q 533 970 357 970 q 792 911 694 970 q 912 740 890 852 l 717 694 q 652 792 702 755 q 522 828 602 828 q 390 797 438 828 q 342 710 342 765 q 359 656 342 678 q 411 617 377 633 q 545 573 445 600 q 705 517 653 543 q 787 458 756 491 q 834 384 818 426 q 850 287 850 342 q 738 63 850 140 q 407 -14 625 -14 m 818 1057 l 814 1038 l 713 1038 l 595 1140 l 593 1140 l 430 1038 l 315 1038 l 319 1057 l 530 1244 l 685 1244 l 818 1057 z "},"ŝ":{"ha":772,"x_min":16,"x_max":725,"o":"m 678 227 q 591 47 678 109 q 337 -14 504 -14 q 122 35 201 -14 q 16 184 43 83 l 186 208 q 238 135 200 157 q 351 113 276 113 q 463 136 425 113 q 501 205 501 160 q 473 259 501 240 q 349 298 445 277 q 159 382 214 328 q 104 522 104 436 q 189 688 104 630 q 432 745 274 745 q 640 697 572 745 q 725 550 709 650 l 555 530 q 510 598 543 577 q 419 619 477 619 q 280 538 280 619 q 294 500 280 515 q 332 475 307 486 q 453 441 357 464 q 627 362 576 414 q 678 227 678 311 m 689 821 l 686 802 l 584 802 l 471 932 l 469 932 l 300 802 l 186 802 l 189 821 l 406 1037 l 562 1037 l 689 821 z "},"Ş":{"ha":926,"x_min":17,"x_max":912,"o":"m 407 -14 q 131 51 226 -14 q 17 248 36 115 l 213 281 q 276 171 227 205 q 420 136 326 136 q 654 271 654 136 q 614 357 654 326 q 452 419 573 389 q 268 488 328 452 q 176 576 208 524 q 144 703 144 628 q 251 897 144 823 q 533 970 357 970 q 792 911 694 970 q 912 740 890 852 l 717 694 q 652 792 702 755 q 522 828 602 828 q 390 797 438 828 q 342 710 342 765 q 359 656 342 678 q 411 617 377 633 q 545 573 445 600 q 705 517 653 543 q 787 458 756 491 q 834 384 818 426 q 850 287 850 342 q 738 63 850 140 q 407 -14 625 -14 m 315 -288 q 243 -284 281 -288 l 263 -205 q 319 -210 292 -210 q 399 -198 374 -210 q 424 -157 424 -186 q 349 -115 424 -115 l 332 -115 l 313 -116 l 380 0 l 475 0 l 443 -56 q 520 -79 490 -57 q 549 -146 549 -101 q 492 -250 549 -212 q 315 -288 435 -288 z "},"ş":{"ha":772,"x_min":16,"x_max":725,"o":"m 678 227 q 591 47 678 109 q 337 -14 504 -14 q 122 35 201 -14 q 16 184 43 83 l 186 208 q 238 135 200 157 q 351 113 276 113 q 463 136 425 113 q 501 205 501 160 q 473 259 501 240 q 349 298 445 277 q 159 382 214 328 q 104 522 104 436 q 189 688 104 630 q 432 745 274 745 q 640 697 572 745 q 725 550 709 650 l 555 530 q 510 598 543 577 q 419 619 477 619 q 280 538 280 619 q 294 500 280 515 q 332 475 307 486 q 453 441 357 464 q 627 362 576 414 q 678 227 678 311 m 231 -288 q 159 -284 197 -288 l 178 -205 q 234 -210 207 -210 q 314 -198 289 -210 q 339 -157 339 -186 q 264 -115 339 -115 l 248 -115 l 229 -116 l 295 0 l 391 0 l 358 -56 q 435 -79 406 -57 q 465 -146 465 -101 q 408 -250 465 -212 q 231 -288 351 -288 z "},"Š":{"ha":926,"x_min":17,"x_max":912,"o":"m 407 -14 q 131 51 226 -14 q 17 248 36 115 l 213 281 q 276 171 227 205 q 420 136 326 136 q 654 271 654 136 q 614 357 654 326 q 452 419 573 389 q 268 488 328 452 q 176 576 208 524 q 144 703 144 628 q 251 897 144 823 q 533 970 357 970 q 792 911 694 970 q 912 740 890 852 l 717 694 q 652 792 702 755 q 522 828 602 828 q 390 797 438 828 q 342 710 342 765 q 359 656 342 678 q 411 617 377 633 q 545 573 445 600 q 705 517 653 543 q 787 458 756 491 q 834 384 818 426 q 850 287 850 342 q 738 63 850 140 q 407 -14 625 -14 m 633 1038 l 478 1038 l 340 1225 l 343 1244 l 445 1244 l 568 1141 l 571 1141 l 728 1244 l 843 1244 l 839 1225 l 633 1038 z "},"š":{"ha":772,"x_min":16,"x_max":741,"o":"m 678 227 q 591 47 678 109 q 337 -14 504 -14 q 122 35 201 -14 q 16 184 43 83 l 186 208 q 238 135 200 157 q 351 113 276 113 q 463 136 425 113 q 501 205 501 160 q 473 259 501 240 q 349 298 445 277 q 159 382 214 328 q 104 522 104 436 q 189 688 104 630 q 432 745 274 745 q 640 697 572 745 q 725 550 709 650 l 555 530 q 510 598 543 577 q 419 619 477 619 q 280 538 280 619 q 294 500 280 515 q 332 475 307 486 q 453 441 357 464 q 627 362 576 414 q 678 227 678 311 m 526 802 l 371 802 l 237 1017 l 241 1037 l 343 1037 l 461 906 l 464 906 l 627 1037 l 741 1037 l 737 1017 l 526 802 z "},"Ţ":{"ha":848,"x_min":98,"x_max":946,"o":"m 607 801 l 451 0 l 251 0 l 407 801 l 98 801 l 128 956 l 946 956 l 916 801 l 607 801 m 239 -288 q 167 -284 205 -288 l 186 -205 q 242 -210 215 -210 q 322 -198 297 -210 q 347 -157 347 -186 q 273 -115 347 -115 l 256 -115 l 237 -116 l 303 0 l 399 0 l 366 -56 q 443 -79 414 -57 q 473 -146 473 -101 q 416 -250 473 -212 q 239 -288 359 -288 z "},"ţ":{"ha":463,"x_min":39,"x_max":510,"o":"m 255 -11 q 125 29 171 -11 q 79 142 79 68 q 90 248 79 190 l 159 605 l 58 605 l 83 734 l 193 734 l 286 906 l 406 906 l 373 734 l 510 734 l 486 605 l 347 605 l 277 242 q 269 182 269 204 q 285 135 269 151 q 328 120 301 120 q 401 129 350 120 l 380 5 q 255 -11 325 -11 m 111 -288 q 39 -284 77 -288 l 59 -205 q 115 -210 87 -210 q 195 -198 170 -210 q 220 -157 220 -186 q 145 -115 220 -115 l 128 -115 l 109 -116 l 176 0 l 271 0 l 239 -56 q 316 -79 286 -57 q 345 -146 345 -101 q 288 -250 345 -212 q 111 -288 231 -288 z "},"Ť":{"ha":848,"x_min":98,"x_max":946,"o":"m 607 801 l 451 0 l 251 0 l 407 801 l 98 801 l 128 956 l 946 956 l 916 801 l 607 801 m 621 1038 l 465 1038 l 327 1225 l 330 1244 l 432 1244 l 555 1141 l 558 1141 l 715 1244 l 830 1244 l 826 1225 l 621 1038 z "},"ť":{"ha":665,"x_min":58,"x_max":771,"o":"m 255 -11 q 125 29 171 -11 q 79 142 79 68 q 90 248 79 190 l 159 605 l 58 605 l 83 734 l 193 734 l 286 906 l 406 906 l 373 734 l 510 734 l 486 605 l 347 605 l 277 242 q 269 182 269 204 q 285 135 269 151 q 328 120 301 120 q 401 129 350 120 l 380 5 q 255 -11 325 -11 m 655 737 l 562 737 q 651 866 640 806 l 578 866 l 605 1006 l 771 1006 l 752 907 q 722 822 742 860 q 655 737 701 783 z "},"Ŧ":{"ha":848,"x_min":98,"x_max":946,"o":"m 607 801 l 559 553 l 713 553 l 688 425 l 534 425 l 451 0 l 251 0 l 334 425 l 180 425 l 205 553 l 359 553 l 407 801 l 98 801 l 128 956 l 946 956 l 916 801 l 607 801 z "},"ŧ":{"ha":463,"x_min":18,"x_max":510,"o":"m 255 -11 q 125 29 171 -11 q 79 142 79 68 q 90 248 79 190 l 103 321 l 18 321 l 42 450 l 128 450 l 159 605 l 58 605 l 83 734 l 193 734 l 286 906 l 406 906 l 373 734 l 510 734 l 486 605 l 347 605 l 317 450 l 442 450 l 417 321 l 292 321 l 277 242 q 269 182 269 204 q 285 135 269 151 q 328 120 301 120 q 401 129 350 120 l 380 5 q 255 -11 325 -11 z "},"Ũ":{"ha":1003,"x_min":81,"x_max":1031,"o":"m 467 143 q 636 195 578 143 q 718 367 694 246 l 831 956 l 1031 956 l 916 359 q 766 78 878 169 q 456 -14 654 -14 q 179 66 277 -14 q 81 292 81 146 q 86 364 81 322 q 96 431 91 406 l 197 956 l 397 956 l 293 406 q 281 290 281 347 q 330 181 281 220 q 467 143 380 143 m 729 1037 q 672 1050 699 1037 q 619 1079 644 1063 q 570 1107 593 1095 q 527 1120 547 1120 q 480 1103 498 1120 q 444 1037 461 1086 l 352 1037 q 426 1190 378 1144 q 543 1236 473 1236 q 601 1223 573 1236 q 654 1194 629 1210 q 702 1165 680 1178 q 744 1152 724 1152 q 792 1171 773 1152 q 827 1236 811 1190 l 919 1236 q 845 1083 892 1128 q 729 1037 798 1037 z "},"ũ":{"ha":848,"x_min":58,"x_max":824,"o":"m 347 734 l 267 330 q 250 218 250 247 q 353 131 250 131 q 479 186 421 131 q 553 323 537 241 l 633 734 l 824 734 l 711 157 q 686 0 701 103 l 504 0 q 510 57 504 6 q 520 125 517 108 l 518 125 q 405 20 467 53 q 265 -13 344 -13 q 110 37 162 -13 q 58 180 58 86 q 62 234 58 197 q 72 291 67 272 l 158 734 l 347 734 m 614 802 q 557 815 585 802 q 504 844 530 828 q 456 873 479 860 q 412 886 433 886 q 365 868 384 886 q 330 802 347 851 l 237 802 q 311 955 264 909 q 428 1001 358 1001 q 487 988 458 1001 q 540 959 515 975 q 587 930 565 943 q 629 918 610 918 q 677 937 659 918 q 713 1001 696 956 l 804 1001 q 731 848 778 894 q 614 802 684 802 z "},"Ū":{"ha":1003,"x_min":81,"x_max":1031,"o":"m 467 143 q 636 195 578 143 q 718 367 694 246 l 831 956 l 1031 956 l 916 359 q 766 78 878 169 q 456 -14 654 -14 q 179 66 277 -14 q 81 292 81 146 q 86 364 81 322 q 96 431 91 406 l 197 956 l 397 956 l 293 406 q 281 290 281 347 q 330 181 281 220 q 467 143 380 143 m 823 1039 l 426 1039 l 448 1153 l 848 1153 l 823 1039 z "},"ū":{"ha":848,"x_min":58,"x_max":824,"o":"m 347 734 l 267 330 q 250 218 250 247 q 353 131 250 131 q 479 186 421 131 q 553 323 537 241 l 633 734 l 824 734 l 711 157 q 686 0 701 103 l 504 0 q 510 57 504 6 q 520 125 517 108 l 518 125 q 405 20 467 53 q 265 -13 344 -13 q 110 37 162 -13 q 58 180 58 86 q 62 234 58 197 q 72 291 67 272 l 158 734 l 347 734 m 698 816 l 300 816 l 323 930 l 723 930 l 698 816 z "},"Ŭ":{"ha":1003,"x_min":81,"x_max":1031,"o":"m 467 143 q 636 195 578 143 q 718 367 694 246 l 831 956 l 1031 956 l 916 359 q 766 78 878 169 q 456 -14 654 -14 q 179 66 277 -14 q 81 292 81 146 q 86 364 81 322 q 96 431 91 406 l 197 956 l 397 956 l 293 406 q 281 290 281 347 q 330 181 281 220 q 467 143 380 143 m 617 1031 q 463 1086 521 1031 q 405 1236 405 1141 l 517 1236 q 548 1155 517 1185 q 632 1125 578 1125 q 721 1151 685 1125 q 775 1236 757 1177 l 886 1236 q 792 1082 858 1133 q 617 1031 726 1031 z "},"ŭ":{"ha":848,"x_min":58,"x_max":824,"o":"m 347 734 l 267 330 q 250 218 250 247 q 353 131 250 131 q 479 186 421 131 q 553 323 537 241 l 633 734 l 824 734 l 711 157 q 686 0 701 103 l 504 0 q 510 57 504 6 q 520 125 517 108 l 518 125 q 405 20 467 53 q 265 -13 344 -13 q 110 37 162 -13 q 58 180 58 86 q 62 234 58 197 q 72 291 67 272 l 158 734 l 347 734 m 500 802 q 346 856 405 802 q 288 996 288 909 l 289 1021 l 399 1021 q 430 940 399 971 q 511 909 461 909 q 603 938 564 909 q 658 1021 642 968 l 769 1021 q 674 856 740 910 q 500 802 608 802 z "},"Ů":{"ha":1003,"x_min":81,"x_max":1031,"o":"m 467 143 q 636 195 578 143 q 718 367 694 246 l 831 956 l 1031 956 l 916 359 q 766 78 878 169 q 456 -14 654 -14 q 179 66 277 -14 q 81 292 81 146 q 86 364 81 322 q 96 431 91 406 l 197 956 l 397 956 l 293 406 q 281 290 281 347 q 330 181 281 220 q 467 143 380 143 m 802 1169 q 752 1047 802 1098 q 629 997 702 997 q 507 1047 557 997 q 457 1169 457 1098 q 508 1291 457 1240 q 629 1341 558 1341 q 751 1291 701 1341 q 802 1169 802 1240 m 715 1169 q 691 1229 715 1204 q 629 1254 666 1254 q 570 1230 595 1254 q 545 1169 545 1205 q 570 1107 545 1131 q 629 1082 595 1082 q 690 1107 665 1082 q 715 1169 715 1133 z "},"ů":{"ha":848,"x_min":58,"x_max":824,"o":"m 347 734 l 267 330 q 250 218 250 247 q 353 131 250 131 q 479 186 421 131 q 553 323 537 241 l 633 734 l 824 734 l 711 157 q 686 0 701 103 l 504 0 q 510 57 504 6 q 520 125 517 108 l 518 125 q 405 20 467 53 q 265 -13 344 -13 q 110 37 162 -13 q 58 180 58 86 q 62 234 58 197 q 72 291 67 272 l 158 734 l 347 734 m 667 943 q 617 821 667 871 q 495 770 568 770 q 373 821 422 770 q 323 943 323 871 q 373 1064 323 1014 q 495 1115 424 1115 q 617 1064 566 1115 q 667 943 667 1014 m 581 943 q 556 1002 581 977 q 495 1027 532 1027 q 435 1003 460 1027 q 410 943 410 979 q 435 880 410 905 q 495 856 460 856 q 556 881 531 856 q 581 943 581 906 z "},"Ű":{"ha":1003,"x_min":81,"x_max":1031,"o":"m 467 143 q 636 195 578 143 q 718 367 694 246 l 831 956 l 1031 956 l 916 359 q 766 78 878 169 q 456 -14 654 -14 q 179 66 277 -14 q 81 292 81 146 q 86 364 81 322 q 96 431 91 406 l 197 956 l 397 956 l 293 406 q 281 290 281 347 q 330 181 281 220 q 467 143 380 143 m 388 1038 l 395 1059 l 549 1227 l 726 1227 l 719 1198 l 480 1038 l 388 1038 m 663 1038 l 663 1059 l 823 1227 l 1000 1227 l 994 1198 l 755 1038 l 663 1038 z "},"ű":{"ha":848,"x_min":58,"x_max":909,"o":"m 347 734 l 267 330 q 250 218 250 247 q 353 131 250 131 q 479 186 421 131 q 553 323 537 241 l 633 734 l 824 734 l 711 157 q 686 0 701 103 l 504 0 q 510 57 504 6 q 520 125 517 108 l 518 125 q 405 20 467 53 q 265 -13 344 -13 q 110 37 162 -13 q 58 180 58 86 q 62 234 58 197 q 72 291 67 272 l 158 734 l 347 734 m 276 802 l 283 823 l 457 1019 l 634 1019 l 627 989 l 375 802 l 276 802 m 551 802 l 557 823 l 732 1019 l 909 1019 l 902 989 l 650 802 l 551 802 z "},"Ų":{"ha":1003,"x_min":81,"x_max":1031,"o":"m 467 143 q 636 195 578 143 q 718 367 694 246 l 831 956 l 1031 956 l 916 359 q 766 78 878 169 q 456 -14 654 -14 q 179 66 277 -14 q 81 292 81 146 q 86 364 81 322 q 96 431 91 406 l 197 956 l 397 956 l 293 406 q 281 290 281 347 q 330 181 281 220 q 467 143 380 143 m 484 -288 q 385 -256 422 -288 q 348 -167 348 -223 q 379 -72 348 -117 q 470 7 410 -27 l 581 7 q 511 -62 540 -19 q 482 -143 482 -106 q 497 -182 482 -169 q 536 -195 512 -195 q 605 -179 569 -195 l 592 -265 q 484 -288 538 -288 z "},"ų":{"ha":848,"x_min":58,"x_max":824,"o":"m 347 734 l 267 330 q 250 218 250 247 q 353 131 250 131 q 479 186 421 131 q 553 323 537 241 l 633 734 l 824 734 l 711 157 q 686 0 701 103 l 504 0 q 510 57 504 6 q 520 125 517 108 l 518 125 q 405 20 467 53 q 265 -13 344 -13 q 110 37 162 -13 q 58 180 58 86 q 62 234 58 197 q 72 291 67 272 l 158 734 l 347 734 m 529 -288 q 431 -256 468 -288 q 393 -167 393 -223 q 424 -72 393 -117 q 515 7 455 -27 l 627 7 q 556 -62 585 -19 q 528 -143 528 -106 q 543 -182 528 -169 q 581 -195 557 -195 q 650 -179 614 -195 l 637 -265 q 529 -288 584 -288 z "},"Ŵ":{"ha":1311,"x_min":102,"x_max":1410,"o":"m 977 0 l 740 0 l 722 551 l 719 700 l 718 757 q 656 595 677 648 q 403 0 635 541 l 162 0 l 102 956 l 292 956 l 316 403 q 321 168 321 289 l 359 266 l 411 391 l 652 956 l 866 956 l 895 168 q 948 307 913 218 q 1213 956 983 396 l 1410 956 l 977 0 m 1006 1057 l 1002 1038 l 901 1038 l 783 1140 l 781 1140 l 618 1038 l 503 1038 l 507 1057 l 718 1244 l 873 1244 l 1006 1057 z "},"ŵ":{"ha":1080,"x_min":67,"x_max":1154,"o":"m 819 0 l 617 0 l 588 448 l 585 604 q 520 446 549 507 l 315 0 l 114 0 l 67 734 l 242 734 l 252 262 l 252 173 l 270 219 l 305 302 l 505 734 l 709 734 l 737 302 l 741 173 l 777 262 l 974 734 l 1154 734 l 819 0 m 862 821 l 859 802 l 757 802 l 644 932 l 642 932 l 473 802 l 359 802 l 362 821 l 579 1037 l 734 1037 l 862 821 z "},"Ŷ":{"ha":926,"x_min":117,"x_max":1031,"o":"m 491 0 l 292 0 l 368 392 l 117 956 l 315 956 l 490 545 l 812 956 l 1031 956 l 567 392 l 491 0 m 823 1057 l 820 1038 l 719 1038 l 601 1140 l 598 1140 l 435 1038 l 321 1038 l 324 1057 l 535 1244 l 690 1244 l 823 1057 z "},"ŷ":{"ha":772,"x_min":-58,"x_max":830,"o":"m 60 -288 q -58 -276 -6 -288 l -32 -143 q 27 -149 -5 -149 q 120 -118 80 -149 q 201 -16 161 -87 l 220 16 l 76 734 l 273 734 l 321 397 q 336 276 326 376 q 345 170 347 176 l 357 195 l 451 394 l 627 734 l 830 734 l 387 -39 q 268 -198 314 -152 q 173 -266 222 -244 q 60 -288 123 -288 m 699 821 l 695 802 l 593 802 l 481 932 l 478 932 l 310 802 l 195 802 l 199 821 l 416 1037 l 571 1037 l 699 821 z "},"Ÿ":{"ha":926,"x_min":97,"x_max":1011,"o":"m 471 0 l 272 0 l 348 392 l 97 956 l 295 956 l 471 545 l 792 956 l 1011 956 l 547 392 l 471 0 m 629 1038 l 658 1186 l 805 1186 l 776 1038 l 629 1038 m 335 1038 l 363 1186 l 509 1186 l 479 1038 l 335 1038 z "},"Ź":{"ha":848,"x_min":-33,"x_max":892,"o":"m 734 0 l -33 0 l -5 142 l 623 799 l 174 799 l 204 956 l 892 956 l 865 817 l 234 157 l 764 157 l 734 0 m 450 1038 l 454 1059 l 637 1226 l 819 1226 l 812 1197 l 551 1038 l 450 1038 z "},"ź":{"ha":694,"x_min":-7,"x_max":701,"o":"m -7 0 l 19 135 l 435 596 l 136 596 l 163 734 l 685 734 l 659 597 l 245 139 l 602 139 l 575 0 l -7 0 m 342 802 l 346 823 l 513 1019 l 701 1019 l 696 989 l 441 802 l 342 802 z "},"Ż":{"ha":848,"x_min":-33,"x_max":892,"o":"m 734 0 l -33 0 l -5 142 l 623 799 l 174 799 l 204 956 l 892 956 l 865 817 l 234 157 l 764 157 l 734 0 m 446 1044 l 473 1185 l 664 1185 l 636 1044 l 446 1044 z "},"ż":{"ha":694,"x_min":-7,"x_max":685,"o":"m -7 0 l 19 135 l 435 596 l 136 596 l 163 734 l 685 734 l 659 597 l 245 139 l 602 139 l 575 0 l -7 0 m 352 866 l 380 1006 l 570 1006 l 543 866 l 352 866 z "},"Ž":{"ha":848,"x_min":-33,"x_max":892,"o":"m 734 0 l -33 0 l -5 142 l 623 799 l 174 799 l 204 956 l 892 956 l 865 817 l 234 157 l 764 157 l 734 0 m 612 1038 l 456 1038 l 318 1225 l 321 1244 l 423 1244 l 547 1141 l 549 1141 l 707 1244 l 821 1244 l 817 1225 l 612 1038 z "},"ž":{"ha":694,"x_min":-7,"x_max":718,"o":"m -7 0 l 19 135 l 435 596 l 136 596 l 163 734 l 685 734 l 659 597 l 245 139 l 602 139 l 575 0 l -7 0 m 503 802 l 348 802 l 214 1017 l 218 1037 l 320 1037 l 438 906 l 441 906 l 604 1037 l 718 1037 l 714 1017 l 503 802 z "},"ſ":{"ha":386,"x_min":24,"x_max":552,"o":"m 447 1006 q 552 995 496 1006 l 528 872 q 498 876 520 873 q 463 879 477 879 q 397 857 417 879 q 368 791 376 836 l 214 0 l 24 0 l 182 810 q 266 961 202 916 q 447 1006 330 1006 z "},"ƀ":{"ha":848,"x_min":24,"x_max":804,"o":"m 542 797 l 374 797 q 331 592 334 592 l 334 592 q 439 688 376 656 q 575 720 501 720 q 743 656 683 720 q 804 480 804 592 q 761 215 804 330 q 640 43 718 100 q 454 -14 562 -14 q 316 22 369 -14 q 241 121 263 57 l 240 121 q 231 83 236 103 q 221 45 226 63 q 212 15 216 28 q 208 0 208 3 l 24 0 q 57 151 29 17 l 182 797 l 87 797 l 109 912 l 205 912 l 224 1006 l 414 1006 l 396 912 l 561 912 l 542 797 m 494 588 q 394 568 430 588 q 332 505 358 548 q 291 393 306 462 q 276 272 276 324 q 312 158 276 199 q 412 117 348 117 q 554 205 503 117 q 605 444 605 292 q 577 553 605 519 q 494 588 549 588 z "},"Ɓ":{"ha":1105,"x_min":60,"x_max":1092,"o":"m 322 810 l 309 810 q 234 785 260 810 q 208 711 208 759 q 216 645 208 686 l 64 633 q 60 692 60 659 q 124 891 60 827 q 323 956 189 956 l 747 956 q 1004 900 917 956 q 1092 734 1092 844 q 1036 582 1092 642 q 872 500 980 523 q 1016 429 964 485 q 1068 292 1068 373 q 962 75 1068 149 q 643 0 856 0 l 165 0 l 322 810 m 393 149 l 616 149 q 812 183 758 149 q 867 296 867 217 q 821 390 867 357 q 671 422 775 422 l 447 422 l 393 149 m 475 570 l 675 570 q 843 602 793 570 q 893 704 893 633 q 854 783 893 758 q 725 807 816 807 l 521 807 l 475 570 z "},"Ƃ":{"ha":983,"x_min":24,"x_max":929,"o":"m 589 575 q 838 505 747 575 q 929 313 929 435 q 819 82 929 163 q 513 0 709 0 l 24 0 l 210 956 l 928 956 l 898 802 l 380 802 l 336 575 l 589 575 m 254 156 l 519 156 q 670 193 618 156 q 723 299 723 231 q 681 390 723 359 q 546 421 639 421 l 306 421 l 254 156 z "},"ƃ":{"ha":848,"x_min":24,"x_max":808,"o":"m 580 747 q 748 683 688 747 q 808 507 808 619 q 766 240 808 370 q 648 48 724 111 q 454 -14 572 -14 q 316 22 369 -14 q 241 121 263 57 l 240 121 q 231 83 236 103 q 221 45 226 63 q 212 15 216 28 q 208 0 208 3 l 24 0 q 41 73 28 12 q 224 1006 54 135 l 753 1006 l 729 862 l 386 862 q 336 619 338 619 l 338 619 q 444 715 381 683 q 580 747 506 747 m 498 615 q 404 591 444 615 q 336 519 364 568 q 292 398 309 471 q 276 272 276 326 q 312 158 276 199 q 412 117 348 117 q 519 160 481 117 q 584 303 558 202 q 610 471 610 405 q 586 578 610 542 q 498 615 562 615 z "},"Ƅ":{"ha":983,"x_min":24,"x_max":929,"o":"m 24 0 l 156 680 l 76 818 l 80 842 l 359 956 l 410 956 l 336 575 l 589 575 q 838 505 747 575 q 929 313 929 435 q 819 82 929 163 q 513 0 709 0 l 24 0 m 254 156 l 519 156 q 670 193 618 156 q 723 299 723 231 q 681 390 723 359 q 546 421 639 421 l 306 421 l 254 156 z "},"ƅ":{"ha":848,"x_min":24,"x_max":808,"o":"m 24 0 q 29 21 26 6 q 37 56 33 35 q 46 100 41 76 q 57 151 52 125 l 172 744 l 96 875 l 100 899 l 366 1006 l 414 1006 q 384 855 397 918 q 363 749 372 791 q 349 680 355 706 q 341 641 344 654 q 337 623 338 627 q 336 619 336 619 l 338 619 q 382 671 357 648 q 437 712 407 695 q 503 738 467 728 q 580 747 539 747 q 677 730 635 747 q 749 682 720 713 q 793 607 778 651 q 808 507 808 562 l 808 498 q 805 427 808 465 q 794 350 802 389 q 745 185 775 254 q 673 72 715 116 q 576 7 631 28 q 454 -14 522 -14 q 316 22 369 -14 q 241 121 263 57 l 240 121 q 231 83 236 103 q 221 45 226 63 q 212 15 216 28 q 208 0 208 3 l 24 0 m 498 615 q 430 604 463 615 q 371 566 398 593 q 322 492 344 538 q 288 376 301 446 q 279 320 282 346 q 276 272 276 294 q 286 205 276 234 q 314 157 296 176 q 357 127 332 137 q 412 117 382 117 q 474 128 447 117 q 524 164 502 138 q 563 236 546 191 q 595 350 581 281 q 606 415 602 385 q 610 471 610 445 q 586 578 610 542 q 498 615 562 615 z "},"Ɔ":{"ha":1003,"x_min":25,"x_max":980,"o":"m 530 812 q 243 631 351 812 l 82 696 q 285 905 168 840 q 561 970 402 970 q 785 923 690 970 q 930 789 880 876 q 980 591 980 703 q 910 276 980 415 q 711 62 840 138 q 410 -14 582 -14 q 152 57 254 -14 q 25 252 50 127 l 211 300 q 285 186 224 229 q 437 144 347 144 q 616 199 540 144 q 733 354 692 254 q 774 583 774 454 q 709 752 774 692 q 530 812 644 812 z "},"Ƈ":{"ha":1003,"x_min":68,"x_max":1241,"o":"m 272 389 q 330 207 272 271 q 496 143 388 143 q 779 318 676 143 l 933 239 q 749 50 863 113 q 482 -14 635 -14 q 258 35 352 -14 q 116 175 165 84 q 68 386 68 266 q 139 691 68 557 q 338 898 210 826 q 629 970 466 970 q 879 907 781 970 l 889 961 q 974 1108 908 1058 q 1140 1158 1039 1158 q 1241 1146 1191 1158 l 1214 1008 q 1156 1016 1177 1016 q 1097 996 1121 1016 q 1061 920 1072 975 l 1019 704 l 833 656 q 758 770 814 728 q 623 812 702 812 q 365 699 458 812 q 272 389 272 585 z "},"ƈ":{"ha":772,"x_min":43,"x_max":963,"o":"m 559 487 q 446 616 552 616 q 333 567 374 616 q 258 390 292 517 q 243 276 243 312 q 363 117 243 117 q 456 153 420 117 q 515 258 493 189 l 699 224 q 353 -14 627 -14 q 123 63 203 -14 q 43 275 43 139 q 96 523 43 407 q 239 693 150 639 q 461 747 328 747 q 623 711 553 747 q 704 853 642 806 q 863 901 767 901 q 963 889 914 901 l 937 753 q 879 761 899 761 q 819 741 844 761 q 784 665 795 720 l 752 503 l 559 487 z "},"Ɖ":{"ha":1003,"x_min":16,"x_max":964,"o":"m 498 956 q 844 850 724 956 q 964 547 964 745 q 897 264 964 387 q 702 71 829 142 q 416 0 574 0 l 24 0 l 102 403 l 16 403 l 44 551 l 132 551 l 210 956 l 498 956 m 331 551 l 573 551 l 543 403 l 302 403 l 254 155 l 410 155 q 603 201 519 155 q 731 335 686 248 q 777 538 777 422 q 705 734 777 667 q 499 801 633 801 l 380 801 l 331 551 z "},"Ɗ":{"ha":1101,"x_min":60,"x_max":1080,"o":"m 614 956 q 960 850 840 956 q 1080 547 1080 745 q 1013 264 1080 387 q 819 71 946 142 q 533 0 691 0 l 163 0 l 320 810 l 309 810 q 234 785 260 810 q 208 711 208 759 q 216 645 208 686 l 64 633 q 60 692 60 659 q 124 891 60 827 q 323 956 189 956 l 614 956 m 393 155 l 527 155 q 719 201 635 155 q 848 335 803 248 q 893 538 893 422 q 822 734 893 667 q 616 801 750 801 l 518 801 l 393 155 z "},"Ƌ":{"ha":926,"x_min":22,"x_max":966,"o":"m 22 251 q 72 421 22 349 q 209 532 121 494 q 414 570 297 570 l 692 570 l 736 802 l 258 802 l 288 956 l 966 956 l 781 0 l 326 0 q 164 31 233 0 q 59 119 96 62 q 22 251 22 176 m 435 422 q 280 382 332 422 q 227 266 227 342 q 387 149 227 149 l 610 149 l 663 422 l 435 422 z "},"ƌ":{"ha":848,"x_min":39,"x_max":872,"o":"m 508 109 q 404 16 460 45 q 266 -14 348 -14 q 100 55 161 -14 q 39 240 39 124 q 83 494 39 370 q 204 683 126 618 q 393 747 283 747 q 532 713 477 747 q 606 613 587 679 l 610 613 q 617 669 612 635 q 655 862 623 703 l 312 862 l 343 1006 l 872 1006 l 711 157 q 691 0 697 81 l 500 0 q 504 55 500 21 q 511 109 507 88 l 508 109 m 349 117 q 443 140 404 117 q 510 212 482 163 q 554 334 538 260 q 571 462 571 407 q 539 580 571 543 q 444 617 507 617 q 331 570 374 617 q 264 433 287 524 q 241 267 241 343 q 349 117 241 117 z "},"ƍ":{"ha":848,"x_min":-3,"x_max":816,"o":"m 816 460 q 718 163 816 283 q 444 6 620 43 l 646 -165 l 623 -288 l -3 -288 l 24 -150 l 388 -150 l 185 28 q 109 112 132 75 q 71 195 85 149 q 56 301 56 241 q 112 531 56 429 q 271 690 168 633 q 505 747 373 747 q 735 671 654 747 q 816 460 816 595 m 385 130 q 505 171 454 130 q 587 291 557 212 q 618 467 618 371 q 580 577 618 538 q 473 616 542 616 q 355 574 404 616 q 281 456 307 532 q 256 286 256 381 q 291 169 256 208 q 385 130 326 130 z "},"Ǝ":{"ha":926,"x_min":14,"x_max":950,"o":"m 950 956 l 765 0 l 14 0 l 43 155 l 595 155 l 642 395 l 132 395 l 161 549 l 671 549 l 720 801 l 141 801 l 172 956 l 950 956 z "},"Ə":{"ha":1038,"x_min":73,"x_max":995,"o":"m 475 140 q 652 212 578 140 q 759 416 726 285 l 277 416 q 273 353 273 386 q 326 197 273 254 q 475 140 379 140 m 180 726 q 338 911 239 853 q 592 970 437 970 q 885 862 775 970 q 995 568 995 753 q 922 269 995 402 q 722 61 849 135 q 436 -14 594 -14 q 244 36 326 -14 q 117 173 162 85 q 73 370 73 262 q 105 575 73 473 l 787 575 l 789 612 q 732 757 789 700 q 589 814 676 814 q 493 801 532 814 q 424 763 454 789 q 355 676 393 736 l 180 726 z "},"Ɛ":{"ha":892,"x_min":45,"x_max":885,"o":"m 382 -14 q 206 18 283 -14 q 87 106 129 50 q 45 233 45 162 q 113 407 45 339 q 308 492 180 475 q 196 561 237 513 q 155 675 155 608 q 203 828 155 761 q 338 932 251 896 q 531 969 425 969 q 768 901 679 969 q 885 703 858 833 l 701 662 q 638 785 682 748 q 519 822 593 822 q 394 785 440 822 q 347 679 347 749 q 391 594 347 627 q 525 562 435 562 l 565 562 l 535 408 l 495 408 q 302 374 360 408 q 244 262 244 340 q 290 174 244 206 q 416 141 336 141 q 559 183 498 141 q 664 313 620 226 l 831 223 q 657 41 764 96 q 382 -14 551 -14 z "},"Ƒ":{"ha":848,"x_min":-173,"x_max":878,"o":"m 380 801 l 322 505 l 775 505 l 745 351 l 292 351 l 212 -58 q 124 -235 188 -181 q -64 -288 61 -288 q -173 -275 -115 -288 l -144 -125 q -81 -134 -100 -134 q -15 -108 -38 -134 q 19 -28 9 -82 l 210 956 l 878 956 l 848 801 l 380 801 z "},"ƒ":{"ha":772,"x_min":148,"x_max":733,"o":"m 513 605 l 338 -288 l 148 -288 l 323 605 l 216 605 l 241 734 l 348 734 l 363 810 q 447 961 383 916 q 628 1006 511 1006 q 733 995 677 1006 l 709 872 q 680 876 701 873 q 644 879 658 879 q 578 857 598 879 q 549 791 557 836 l 538 734 l 682 734 l 657 605 l 513 605 z "},"Ɠ":{"ha":1080,"x_min":68,"x_max":1259,"o":"m 502 -13 q 183 95 298 -13 q 68 395 68 202 q 138 695 68 564 q 339 898 208 826 q 639 970 469 970 q 896 901 793 970 l 907 961 q 992 1108 926 1058 q 1158 1158 1057 1158 q 1259 1146 1209 1158 l 1232 1008 q 1175 1016 1195 1016 q 1115 996 1139 1016 q 1080 920 1090 975 l 1038 705 l 846 652 q 770 770 827 728 q 628 812 714 812 q 438 761 519 812 q 314 617 357 710 q 271 401 271 524 q 335 212 271 281 q 518 143 399 143 q 661 161 591 143 q 779 208 730 178 l 810 363 l 578 363 l 604 504 l 1021 504 l 949 119 q 743 18 850 49 q 502 -13 637 -13 z "},"Ɣ":{"ha":862,"x_min":121,"x_max":988,"o":"m 121 956 l 330 956 l 442 368 l 781 956 l 988 956 l 507 183 q 559 17 549 64 q 570 -65 570 -30 q 504 -228 570 -168 q 319 -288 437 -288 q 184 -242 235 -288 q 134 -121 134 -196 q 170 3 134 -64 q 304 183 205 71 l 121 956 m 342 -148 q 394 -123 378 -148 q 410 -64 410 -99 q 401 9 410 -22 q 383 64 391 41 l 356 30 q 298 -95 298 -43 q 309 -132 298 -117 q 342 -148 321 -148 z "},"ƕ":{"ha":1297,"x_min":24,"x_max":1278,"o":"m 551 201 q 558 289 551 243 q 574 379 566 336 q 591 458 583 422 q 598 515 598 494 q 495 603 598 603 q 369 548 427 603 q 295 411 311 493 l 215 0 l 24 0 l 218 1006 l 408 1006 l 354 732 l 328 608 l 330 608 q 443 714 381 681 q 583 747 504 747 q 738 697 686 747 q 790 554 790 648 q 766 381 790 500 q 741 242 741 265 q 767 156 741 183 q 843 130 792 130 q 1004 304 971 130 l 1088 734 l 1278 734 l 1196 309 q 1075 64 1163 142 q 832 -14 986 -14 q 624 42 698 -14 q 551 201 551 98 z "},"Ɩ":{"ha":386,"x_min":24,"x_max":410,"o":"m 24 0 l 210 956 l 410 956 l 224 0 l 24 0 z "},"Ɨ":{"ha":386,"x_min":7,"x_max":438,"o":"m 36 574 l 133 574 l 207 956 l 408 956 l 333 574 l 438 574 l 409 425 l 304 425 l 221 0 l 21 0 l 104 425 l 7 425 l 36 574 z "},"Ƙ":{"ha":1003,"x_min":24,"x_max":1087,"o":"m 675 0 l 434 434 l 291 351 l 222 0 l 24 0 l 174 764 q 257 918 193 866 q 435 970 321 970 q 543 958 493 970 l 516 820 q 458 828 479 828 q 400 808 423 828 q 366 732 378 787 l 321 522 l 837 956 l 1087 956 l 581 538 l 896 0 l 675 0 z "},"ƙ":{"ha":772,"x_min":24,"x_max":830,"o":"m 494 0 l 366 337 l 271 286 l 214 0 l 24 0 l 179 801 q 260 956 199 905 q 433 1006 321 1006 q 541 995 491 1006 l 514 857 q 456 865 477 865 q 397 844 421 865 q 362 769 374 824 l 296 430 l 612 734 l 830 734 l 509 448 l 696 0 l 494 0 z "},"ƚ":{"ha":386,"x_min":2,"x_max":439,"o":"m 24 0 l 106 422 l 2 422 l 30 561 l 132 561 l 219 1006 l 410 1006 l 323 561 l 439 561 l 411 422 l 296 422 l 214 0 l 24 0 z "},"ƛ":{"ha":772,"x_min":-58,"x_max":696,"o":"m 121 786 l 329 868 l 300 1006 l 503 1006 l 515 941 l 648 994 l 675 877 l 538 823 l 696 0 l 496 0 l 419 491 l 143 0 l -58 0 l 360 701 l 354 750 l 148 669 l 121 786 z "},"Ɯ":{"ha":1265,"x_min":48,"x_max":1292,"o":"m 841 956 l 718 323 q 701 205 701 233 q 722 150 701 170 q 781 130 743 130 q 902 193 848 130 q 977 362 956 256 l 1092 956 l 1292 956 l 1107 1 l 902 1 l 916 115 l 913 115 q 820 17 872 48 q 692 -14 768 -14 q 610 1 642 -14 q 557 43 578 16 q 520 125 536 71 l 515 125 q 432 42 468 68 q 352 1 395 15 q 254 -14 308 -14 q 100 37 153 -14 q 48 187 48 87 q 56 269 48 226 l 190 956 l 390 956 l 267 323 q 252 212 252 243 q 271 150 252 170 q 332 130 291 130 q 452 185 402 130 q 520 332 503 241 l 641 956 l 841 956 z "},"Ɲ":{"ha":1003,"x_min":-174,"x_max":1027,"o":"m 210 956 l 448 956 l 703 182 q 731 355 715 273 l 849 956 l 1027 956 l 841 0 l 600 0 l 346 767 q 320 605 330 657 l 191 -52 q 107 -237 165 -186 q -65 -288 50 -288 q -174 -275 -115 -288 l -143 -119 q -81 -127 -101 -127 q -14 -101 -38 -127 q 20 -22 9 -75 l 210 956 z "},"ƞ":{"ha":848,"x_min":24,"x_max":790,"o":"m 443 -288 l 581 404 q 598 515 598 488 q 495 603 598 603 q 369 548 427 603 q 295 411 311 493 l 215 0 l 24 0 l 136 577 q 162 734 147 631 l 344 734 q 337 677 344 728 q 328 608 331 626 l 330 608 q 443 714 381 681 q 583 747 504 747 q 738 697 686 747 q 790 554 790 648 q 787 518 790 541 q 782 476 785 495 q 632 -288 779 456 l 443 -288 z "},"Ɵ":{"ha":1080,"x_min":68,"x_max":1057,"o":"m 629 970 q 943 864 828 970 q 1057 577 1057 759 q 986 273 1057 410 q 786 61 915 135 q 493 -14 658 -14 q 266 35 362 -14 q 118 175 169 84 q 68 389 68 267 q 139 686 68 548 q 338 897 211 824 q 629 970 465 970 m 503 144 q 830 408 755 144 l 271 408 l 271 394 q 332 206 271 269 q 503 144 393 144 m 620 812 q 298 566 376 812 l 851 566 q 790 748 850 684 q 620 812 730 812 z "},"Ơ":{"ha":1163,"x_min":68,"x_max":1308,"o":"m 493 -14 q 266 35 362 -14 q 118 175 169 84 q 68 389 68 267 q 139 686 68 548 q 338 897 211 824 q 629 970 465 970 q 914 888 802 970 q 1050 657 1025 806 q 1131 707 1106 676 q 1165 779 1156 737 l 1079 779 l 1114 956 l 1308 956 l 1280 812 q 1208 654 1261 715 q 1057 564 1155 593 q 982 264 1054 398 q 783 58 909 130 q 493 -14 656 -14 m 620 812 q 433 761 510 812 q 313 608 355 710 q 271 394 271 505 q 332 206 271 269 q 503 144 393 144 q 689 195 612 144 q 809 346 766 245 q 851 561 851 446 q 792 746 851 680 q 620 812 732 812 z "},"ơ":{"ha":932,"x_min":43,"x_max":1054,"o":"m 804 463 l 803 434 q 876 475 851 446 q 911 557 901 504 l 838 557 l 873 734 l 1054 734 l 1025 590 q 946 418 1004 481 q 791 337 889 355 q 643 82 758 177 q 363 -14 528 -14 q 129 66 215 -14 q 43 284 43 145 q 97 526 43 420 q 251 689 151 631 q 477 747 351 747 q 720 672 635 747 q 804 463 804 598 m 604 449 q 463 616 604 616 q 338 574 385 616 q 268 450 292 532 q 243 292 243 368 q 384 117 243 117 q 504 155 460 117 q 574 271 549 193 q 604 449 600 349 z "},"Ƣ":{"ha":1255,"x_min":70,"x_max":1294,"o":"m 859 -288 l 1070 801 l 897 801 l 751 42 q 621 2 703 18 q 465 -14 539 -14 q 173 90 277 -14 q 70 378 70 193 q 138 689 70 555 q 335 897 207 824 q 635 970 463 970 q 773 954 704 970 q 889 913 843 939 l 1244 966 l 1294 966 l 1050 -288 l 859 -288 m 500 140 q 580 150 542 140 l 707 806 q 627 816 668 816 q 441 760 522 816 q 317 604 360 704 q 274 381 274 504 q 500 140 274 140 z "},"ƣ":{"ha":1019,"x_min":52,"x_max":1036,"o":"m 349 -14 q 131 67 210 -14 q 52 285 52 147 q 105 525 52 419 q 254 689 157 631 q 479 747 350 747 q 613 730 549 747 q 712 688 677 713 l 983 747 l 1036 747 l 834 -288 l 663 -288 l 834 595 l 703 595 l 599 35 q 349 -14 490 -14 m 374 117 q 439 121 413 117 l 533 610 q 469 616 515 616 q 355 573 405 616 q 276 451 304 529 q 248 279 248 373 q 374 117 248 117 z "},"Ƥ":{"ha":1028,"x_min":60,"x_max":1046,"o":"m 694 956 q 953 880 861 956 q 1046 669 1046 804 q 942 427 1046 517 q 663 336 838 336 l 434 336 l 368 0 l 168 0 l 325 810 l 309 810 q 234 785 260 810 q 208 711 208 759 q 216 645 208 686 l 64 633 q 60 692 60 659 q 124 891 60 827 q 323 956 189 956 l 694 956 m 463 490 l 633 490 q 790 530 737 490 q 843 659 843 569 q 800 764 843 728 q 675 800 756 800 l 524 800 l 463 490 z "},"ƥ":{"ha":848,"x_min":-31,"x_max":804,"o":"m 334 619 q 441 718 384 689 q 575 747 498 747 q 743 683 683 747 q 804 507 804 619 q 762 240 804 370 q 643 48 720 111 q 449 -14 567 -14 q 311 22 364 -14 q 237 121 258 57 l 235 121 q 230 79 233 101 q 159 -288 226 57 l -31 -288 l 178 801 q 259 956 197 906 q 434 1006 321 1006 q 555 993 488 1006 l 528 854 q 460 865 481 865 q 361 769 380 865 l 332 619 l 334 619 m 494 615 q 399 591 439 615 q 332 519 359 568 q 288 398 304 471 q 271 272 271 326 q 307 158 271 199 q 408 117 343 117 q 517 161 477 117 q 580 301 557 205 q 603 471 603 397 q 577 579 603 543 q 494 615 551 615 z "},"Ʀ":{"ha":926,"x_min":24,"x_max":910,"o":"m 654 -223 l 444 243 l 273 243 l 224 0 l 24 0 l 208 956 l 401 956 l 379 837 l 568 837 q 753 804 676 837 q 870 709 830 770 q 910 564 910 647 q 837 374 910 452 q 637 277 763 296 l 876 -223 l 654 -223 m 508 399 q 657 439 606 399 q 707 552 707 479 q 664 648 707 614 q 543 682 621 682 l 358 682 l 303 399 l 508 399 z "},"Ƨ":{"ha":926,"x_min":39,"x_max":922,"o":"m 39 234 q 114 437 39 361 q 364 549 188 512 l 465 571 q 638 617 595 598 q 703 662 681 635 q 726 730 726 689 q 564 828 726 828 q 427 797 479 828 q 348 704 375 766 l 159 730 q 311 916 213 862 q 584 970 410 970 q 830 908 739 970 q 922 739 922 846 q 906 635 922 679 q 863 560 890 592 q 798 506 836 528 q 708 466 759 483 q 547 424 656 448 q 431 396 487 410 q 333 365 376 383 q 264 319 290 347 q 239 251 239 292 q 286 162 239 189 q 423 136 332 136 q 588 170 524 136 q 686 281 651 204 l 882 247 q 401 -14 772 -14 q 134 52 229 -14 q 39 234 39 118 z "},"ƨ":{"ha":772,"x_min":24,"x_max":731,"o":"m 24 183 q 55 307 24 258 q 146 388 86 356 q 346 447 206 419 l 431 463 q 527 495 496 476 q 557 548 557 515 q 526 606 557 590 q 434 621 495 621 q 329 600 366 621 q 276 532 293 578 l 111 550 q 231 699 146 649 q 454 748 315 748 q 659 698 587 748 q 731 549 731 648 q 697 435 731 481 q 600 358 664 389 q 354 288 536 328 q 238 248 275 271 q 201 189 201 224 q 337 113 201 113 q 454 134 410 113 q 526 208 498 156 l 689 183 q 563 32 646 77 q 326 -14 479 -14 q 104 39 184 -14 q 24 183 24 92 z "},"Ʃ":{"ha":820,"x_min":-32,"x_max":842,"o":"m -32 0 l 2 170 l 372 514 l 137 809 l 165 956 l 842 956 l 812 801 l 340 801 l 543 548 l 524 457 l 199 155 l 728 155 l 698 0 l -32 0 z "},"ƪ":{"ha":500,"x_min":103,"x_max":484,"o":"m 103 854 q 152 968 103 929 q 290 1006 201 1006 q 434 958 385 1006 q 484 825 484 910 q 475 739 484 783 l 321 -46 q 318 -80 318 -62 q 383 -142 318 -142 q 423 -139 395 -142 q 463 -134 450 -136 l 435 -277 q 309 -288 387 -288 q 121 -132 121 -288 q 129 -65 121 -105 l 286 741 q 223 733 260 733 q 137 766 172 733 q 103 854 103 799 m 193 866 q 210 821 193 838 q 255 804 227 804 q 300 821 283 804 q 317 866 317 838 q 300 911 317 895 q 255 928 283 928 q 210 911 227 928 q 193 866 193 895 z "},"ƫ":{"ha":463,"x_min":3,"x_max":510,"o":"m 29 -140 q 102 -150 76 -150 q 163 -130 137 -150 q 200 -54 189 -109 l 209 -7 q 113 39 148 2 q 79 142 79 76 q 90 248 79 190 l 159 605 l 58 605 l 83 734 l 193 734 l 286 906 l 406 906 l 373 734 l 510 734 l 486 605 l 347 605 l 277 242 q 269 182 269 204 q 285 135 269 151 q 328 120 301 120 q 401 129 350 120 l 362 -84 q 281 -235 343 -181 q 113 -290 219 -290 q 3 -276 60 -290 l 29 -140 z "},"Ƭ":{"ha":848,"x_min":47,"x_max":946,"o":"m 916 801 l 619 801 l 463 0 l 263 0 l 419 801 l 295 801 q 195 711 195 801 q 203 636 195 677 l 50 625 q 47 692 47 648 q 111 891 47 827 q 309 956 175 956 l 946 956 l 916 801 z "},"ƭ":{"ha":463,"x_min":58,"x_max":574,"o":"m 255 -11 q 125 29 171 -11 q 79 142 79 68 q 90 248 79 190 l 159 605 l 58 605 l 83 734 l 184 734 l 197 801 q 278 956 216 906 q 453 1006 340 1006 q 574 993 507 1006 l 547 861 q 479 871 500 871 q 380 776 399 871 l 373 734 l 510 734 l 486 605 l 347 605 l 277 242 q 269 182 269 204 q 285 135 269 151 q 328 120 301 120 q 401 129 350 120 l 380 5 q 255 -11 325 -11 z "},"Ʈ":{"ha":848,"x_min":98,"x_max":946,"o":"m 607 801 l 445 -28 q 440 -71 440 -52 q 455 -119 440 -104 q 505 -134 471 -134 q 571 -125 524 -134 l 542 -275 q 427 -288 477 -288 q 283 -246 331 -288 q 236 -113 236 -203 q 245 -24 236 -67 l 407 801 l 98 801 l 128 956 l 946 956 l 916 801 l 607 801 z "},"Ư":{"ha":1123,"x_min":81,"x_max":1301,"o":"m 467 143 q 636 195 578 143 q 718 367 694 246 l 831 956 l 1031 956 l 969 635 q 1101 683 1053 646 q 1158 779 1149 720 l 1072 779 l 1107 956 l 1301 956 l 1273 812 q 1171 624 1249 692 q 951 541 1092 555 l 916 359 q 766 78 878 169 q 456 -14 654 -14 q 179 66 277 -14 q 81 292 81 146 q 96 431 81 353 l 197 956 l 397 956 l 293 406 q 281 290 281 347 q 330 181 281 220 q 467 143 380 143 z "},"ư":{"ha":991,"x_min":58,"x_max":1088,"o":"m 347 734 l 267 330 q 250 218 250 247 q 353 131 250 131 q 479 186 421 131 q 553 323 538 242 l 633 734 l 824 734 l 763 422 q 901 463 854 429 q 958 557 948 496 l 872 557 l 907 734 l 1088 734 l 1059 590 q 1001 446 1042 502 q 901 362 961 391 q 745 328 842 333 q 709 143 722 210 q 686 0 696 77 l 504 0 q 510 57 504 6 q 520 125 517 108 l 518 125 q 406 21 467 55 q 265 -13 345 -13 q 110 37 162 -13 q 58 180 58 86 q 62 234 58 197 q 72 291 67 271 l 158 734 l 347 734 z "},"Ʊ":{"ha":1084,"x_min":66,"x_max":1136,"o":"m 473 -15 q 261 30 354 -15 q 117 154 168 74 q 66 336 66 235 q 156 609 66 494 q 437 808 245 724 q 318 800 360 800 l 135 800 l 165 955 l 596 955 l 555 745 q 347 591 419 684 q 274 380 274 498 q 332 203 274 264 q 500 142 390 142 q 669 184 595 142 q 784 300 743 226 q 825 467 825 374 q 785 631 825 565 q 659 745 746 697 l 699 955 l 1136 955 l 1106 800 l 924 800 q 800 808 884 800 q 961 663 903 755 q 1019 460 1019 570 q 950 211 1019 319 q 756 44 882 102 q 473 -15 631 -15 z "},"Ʋ":{"ha":1003,"x_min":83,"x_max":993,"o":"m 414 -14 q 169 56 255 -14 q 83 256 83 126 q 94 358 83 304 l 210 956 l 410 956 l 297 374 q 288 293 288 330 q 432 143 288 143 q 572 182 513 143 q 675 305 631 221 q 754 522 720 389 q 787 709 787 655 q 765 788 787 761 q 692 814 743 814 q 616 806 662 814 l 644 955 q 804 968 708 968 q 945 916 897 968 q 993 760 993 863 q 944 491 993 662 q 820 209 895 320 q 645 42 746 98 q 414 -14 544 -14 z "},"Ƴ":{"ha":994,"x_min":117,"x_max":1116,"o":"m 491 0 l 292 0 l 368 392 l 117 956 l 315 956 l 490 545 l 714 840 q 814 938 763 905 q 926 970 865 970 q 1116 882 1037 970 l 1018 757 q 934 799 979 799 q 888 785 908 799 q 845 742 867 771 l 567 392 l 491 0 z "},"ƴ":{"ha":772,"x_min":-58,"x_max":1099,"o":"m 60 -288 q -58 -276 -6 -288 l -32 -143 q 27 -149 -5 -149 q 92 -136 63 -149 q 146 -94 121 -122 q 220 16 172 -66 l 76 734 l 273 734 l 321 397 q 325 372 322 389 q 329 331 327 354 q 334 283 332 309 q 339 236 337 258 q 343 195 342 213 q 345 170 345 178 l 357 195 l 438 368 l 680 827 q 750 933 717 898 q 827 987 784 968 q 925 1006 870 1006 q 1019 993 972 1006 q 1099 956 1065 980 l 1009 823 q 939 848 975 848 q 889 830 909 848 q 847 776 868 812 l 387 -39 q 268 -198 314 -152 q 173 -266 222 -244 q 60 -288 123 -288 z "},"Ƶ":{"ha":848,"x_min":-33,"x_max":892,"o":"m 808 431 l 496 431 l 234 157 l 764 157 l 734 0 l -33 0 l -5 142 l 271 431 l 59 431 l 85 565 l 399 565 l 623 799 l 174 799 l 204 956 l 892 956 l 865 817 l 624 565 l 834 565 l 808 431 z "},"ƶ":{"ha":694,"x_min":-24,"x_max":695,"o":"m -24 0 l 2 135 l 163 303 l 36 303 l 62 437 l 292 437 l 445 596 l 119 596 l 146 734 l 695 734 l 669 597 l 514 437 l 650 437 l 625 303 l 385 303 l 228 139 l 612 139 l 585 0 l -24 0 z "},"Ʒ":{"ha":848,"x_min":-62,"x_max":878,"o":"m 296 -290 q 66 -230 154 -290 q -62 -49 -22 -170 l 115 26 q 168 -72 142 -41 q 228 -117 193 -102 q 315 -132 262 -132 q 438 -94 382 -132 q 526 10 494 -55 q 559 142 559 75 q 502 303 559 251 q 321 355 446 355 l 235 355 l 264 512 l 597 799 l 136 799 l 166 956 l 878 956 l 851 817 l 479 500 q 688 406 616 484 q 760 194 760 327 q 701 -59 760 52 q 536 -230 642 -170 q 296 -290 431 -290 z "},"Ƹ":{"ha":848,"x_min":-4,"x_max":911,"o":"m 352 -290 q 92 -195 187 -290 q -4 62 -4 -100 q 50 279 -4 182 q 203 433 104 375 q 429 500 302 491 l 172 817 l 199 956 l 911 956 l 881 799 l 418 799 l 640 512 l 610 355 l 523 355 q 280 279 366 355 q 195 62 195 203 q 240 -82 195 -32 q 374 -132 286 -132 q 610 33 522 -132 l 768 -43 q 594 -231 694 -172 q 352 -290 494 -290 z "},"ƹ":{"ha":731,"x_min":-28,"x_max":767,"o":"m 306 -159 q 426 -124 380 -159 q 486 -22 471 -90 l 669 -31 q 541 -221 638 -154 q 297 -288 444 -288 q 124 -253 198 -288 q 11 -152 50 -217 q -28 -2 -28 -87 q 62 240 -28 150 q 327 353 152 331 l 130 602 l 155 734 l 767 734 l 740 596 l 357 596 l 538 359 l 513 231 l 444 231 q 229 177 294 231 q 163 10 163 123 q 201 -113 163 -67 q 306 -159 239 -159 z "},"ƺ":{"ha":731,"x_min":-65,"x_max":718,"o":"m 606 -71 q 227 -294 512 -294 q 15 -243 94 -294 q -65 -104 -65 -192 q -53 -31 -65 -62 q -19 26 -41 1 q 34 68 3 50 q 106 100 66 87 q 257 140 146 114 q 391 177 358 164 q 441 208 423 191 q 458 250 458 225 q 440 288 458 275 q 383 308 422 302 q 253 313 345 313 l 184 313 l 203 411 l 444 596 l 79 596 l 106 734 l 718 734 l 696 623 l 423 423 q 597 380 540 420 q 655 267 655 340 q 638 182 655 218 q 589 117 621 145 q 503 67 556 90 q 320 16 449 45 q 181 -22 211 -9 q 135 -50 152 -34 q 119 -90 119 -66 q 152 -145 119 -126 q 247 -163 185 -163 q 361 -132 313 -163 q 427 -41 408 -101 l 606 -71 z "},"ƻ":{"ha":772,"x_min":-22,"x_max":791,"o":"m 769 389 l 508 389 l 429 334 q 233 157 285 235 l 676 157 l 646 0 l -22 0 l 3 132 q 98 258 41 197 q 250 389 156 319 l 60 389 l 85 518 l 429 518 q 530 620 498 571 q 562 721 562 669 q 452 818 562 818 q 356 788 393 818 q 301 693 319 758 l 121 733 q 243 912 157 854 q 466 970 330 970 q 683 910 608 970 q 758 734 758 850 q 665 518 758 617 l 791 518 l 769 389 z "},"Ƽ":{"ha":772,"x_min":3,"x_max":808,"o":"m 143 956 l 808 956 l 779 801 l 422 801 l 387 640 q 631 572 549 640 q 713 376 713 505 q 607 92 713 198 q 316 -14 500 -14 q 102 46 183 -14 q 3 214 22 105 l 193 256 q 235 168 199 199 q 334 138 272 138 q 464 189 416 138 q 511 328 511 241 q 461 456 511 420 q 281 492 412 492 l 170 492 l 235 801 l 113 801 l 143 956 z "},"ƽ":{"ha":690,"x_min":2,"x_max":689,"o":"m 111 734 l 689 734 l 662 596 l 362 596 l 330 471 q 559 420 484 471 q 634 258 634 369 q 593 119 634 181 q 476 22 552 57 q 292 -14 399 -14 q 90 41 165 -14 q 2 193 14 95 l 182 225 q 219 143 189 170 q 312 117 248 117 q 411 150 374 117 q 448 239 448 183 q 410 321 448 296 q 279 346 372 346 l 138 346 l 195 596 l 84 596 l 111 734 z "},"ƾ":{"ha":772,"x_min":32,"x_max":709,"o":"m 142 605 l 50 605 l 75 734 l 177 734 l 270 906 l 389 906 l 356 734 l 509 734 l 484 605 l 331 605 q 319 536 319 549 q 331 502 319 515 q 365 478 342 488 q 477 447 388 469 q 619 399 576 424 q 686 336 662 374 q 709 238 709 297 q 613 56 709 126 q 351 -14 516 -14 q 130 34 206 -14 q 32 183 53 81 l 204 208 q 253 134 218 156 q 364 113 289 113 q 528 205 528 113 q 498 255 528 235 q 406 289 469 275 q 223 342 271 317 q 150 403 175 366 q 125 492 125 439 q 132 548 125 517 l 142 605 z "},"ƿ":{"ha":857,"x_min":-17,"x_max":826,"o":"m 181 734 l 361 734 q 347 623 358 692 l 350 623 q 459 717 396 684 q 600 749 523 749 q 767 689 708 749 q 826 515 826 629 q 673 133 826 294 q 201 -138 520 -28 l 173 -288 l -17 -288 l 181 734 m 628 496 q 509 617 628 617 q 380 558 433 617 q 307 404 326 499 l 230 10 q 528 221 427 98 q 628 496 628 345 z "},"ǀ":{"ha":389,"x_min":111,"x_max":277,"o":"m 111 0 l 111 1006 l 277 1006 l 277 0 l 111 0 z "},"ǁ":{"ha":691,"x_min":118,"x_max":573,"o":"m 118 0 l 118 1006 l 281 1006 l 281 0 l 118 0 m 410 0 l 410 1006 l 573 1006 l 573 0 l 410 0 z "},"ǂ":{"ha":812,"x_min":56,"x_max":756,"o":"m 56 734 l 323 734 l 323 1006 l 489 1006 l 489 734 l 756 734 l 756 593 l 489 593 l 489 412 l 756 412 l 756 271 l 489 271 l 489 0 l 323 0 l 323 271 l 56 271 l 56 412 l 323 412 l 323 593 l 56 593 l 56 734 z "},"ǃ":{"ha":463,"x_min":54,"x_max":439,"o":"m 287 289 l 131 289 l 239 956 l 439 956 l 287 289 m 54 0 l 89 183 l 284 183 l 249 0 l 54 0 z "},"Ǆ":{"ha":1851,"x_min":24,"x_max":1885,"o":"m 498 956 q 844 850 724 956 q 964 547 964 745 q 897 264 964 387 q 702 71 829 142 q 416 0 574 0 l 24 0 l 210 956 l 498 956 m 254 155 l 410 155 q 603 201 519 155 q 731 335 686 248 q 777 538 777 422 q 705 734 777 667 q 499 801 633 801 l 380 801 l 254 155 m 1727 0 l 961 0 l 988 142 l 1617 799 l 1167 799 l 1198 956 l 1885 956 l 1858 817 l 1227 157 l 1758 157 l 1727 0 m 1638 1038 l 1482 1038 l 1344 1225 l 1348 1244 l 1449 1244 l 1573 1141 l 1575 1141 l 1733 1244 l 1847 1244 l 1843 1225 l 1638 1038 z "},"ǅ":{"ha":1697,"x_min":24,"x_max":1721,"o":"m 498 956 q 844 850 724 956 q 964 547 964 745 q 897 264 964 387 q 702 71 829 142 q 416 0 574 0 l 24 0 l 210 956 l 498 956 m 254 155 l 410 155 q 603 201 519 155 q 731 335 686 248 q 777 538 777 422 q 705 734 777 667 q 499 801 633 801 l 380 801 l 254 155 m 985 0 l 1010 135 l 1426 596 l 1128 596 l 1155 734 l 1676 734 l 1650 597 l 1236 139 l 1594 139 l 1567 0 l 985 0 m 1506 802 l 1350 802 l 1217 1017 l 1221 1037 l 1322 1037 l 1440 906 l 1443 906 l 1606 1037 l 1721 1037 l 1716 1017 l 1506 802 z "},"ǆ":{"ha":1543,"x_min":39,"x_max":1574,"o":"m 508 109 q 404 16 460 45 q 266 -14 348 -14 q 100 55 161 -14 q 39 240 39 124 q 83 494 39 370 q 204 683 126 618 q 393 747 283 747 q 606 613 567 747 l 610 613 q 615 654 611 627 q 627 723 619 681 l 684 1006 l 872 1006 l 711 157 q 691 0 697 81 l 500 0 q 511 109 500 43 l 508 109 m 349 117 q 444 140 404 117 q 511 212 483 163 q 555 334 538 260 q 571 462 571 407 q 539 580 571 543 q 444 617 507 617 q 331 570 374 617 q 264 433 287 524 q 241 267 241 343 q 349 117 241 117 m 842 0 l 867 135 l 1283 596 l 985 596 l 1012 734 l 1533 734 l 1507 597 l 1093 139 l 1451 139 l 1423 0 l 842 0 m 1359 802 l 1204 802 l 1070 1017 l 1074 1037 l 1176 1037 l 1294 906 l 1297 906 l 1459 1037 l 1574 1037 l 1570 1017 l 1359 802 z "},"Ǉ":{"ha":1621,"x_min":24,"x_max":1633,"o":"m 24 0 l 210 956 l 410 956 l 254 155 l 767 155 l 736 0 l 24 0 m 1162 -14 q 957 52 1034 -14 q 854 257 880 117 l 1035 296 q 1175 143 1066 143 q 1237 159 1212 143 q 1278 205 1262 176 q 1307 298 1295 235 l 1404 799 l 1213 799 l 1243 956 l 1633 956 l 1502 287 q 1390 58 1472 130 q 1162 -14 1309 -14 z "},"ǈ":{"ha":1234,"x_min":24,"x_max":1258,"o":"m 24 0 l 210 956 l 410 956 l 254 155 l 767 155 l 736 0 l 24 0 m 1040 866 l 1067 1006 l 1258 1006 l 1231 866 l 1040 866 m 812 -288 q 699 -275 747 -288 l 724 -148 l 763 -151 q 830 -127 808 -151 q 863 -41 851 -104 l 1015 734 l 1205 734 l 1045 -87 q 966 -236 1025 -184 q 812 -288 907 -288 z "},"ǉ":{"ha":772,"x_min":24,"x_max":795,"o":"m 24 0 l 219 1006 l 410 1006 l 214 0 l 24 0 m 578 866 l 605 1006 l 795 1006 l 768 866 l 578 866 m 349 -288 q 237 -275 285 -288 l 261 -148 l 300 -151 q 367 -127 346 -151 q 401 -41 389 -104 l 552 734 l 743 734 l 583 -87 q 504 -236 563 -184 q 349 -288 444 -288 z "},"Ǌ":{"ha":1775,"x_min":24,"x_max":1796,"o":"m 600 0 l 346 767 q 320 605 330 657 l 202 0 l 24 0 l 210 956 l 448 956 l 703 182 l 711 237 q 731 355 719 294 l 849 956 l 1027 956 l 841 0 l 600 0 m 1326 -14 q 1120 52 1197 -14 q 1017 257 1043 117 l 1198 296 q 1339 143 1230 143 q 1400 159 1375 143 q 1442 205 1426 176 q 1470 298 1458 235 l 1567 799 l 1377 799 l 1407 956 l 1796 956 l 1666 287 q 1554 58 1635 130 q 1326 -14 1472 -14 z "},"ǋ":{"ha":1389,"x_min":24,"x_max":1413,"o":"m 600 0 l 346 767 q 320 605 330 657 l 202 0 l 24 0 l 210 956 l 448 956 l 703 182 l 711 237 q 731 355 719 294 l 849 956 l 1027 956 l 841 0 l 600 0 m 1195 866 l 1222 1006 l 1413 1006 l 1385 866 l 1195 866 m 966 -288 q 854 -275 902 -288 l 878 -148 l 918 -151 q 984 -127 963 -151 q 1018 -41 1006 -104 l 1169 734 l 1360 734 l 1200 -87 q 1121 -236 1180 -184 q 966 -288 1061 -288 z "},"ǌ":{"ha":1234,"x_min":24,"x_max":1258,"o":"m 500 0 l 581 404 q 598 515 598 488 q 495 603 598 603 q 368 547 427 603 q 295 411 310 492 l 215 0 l 24 0 l 136 577 q 162 734 147 631 l 344 734 q 337 677 344 728 q 328 608 331 626 l 330 608 q 442 713 380 679 q 583 747 503 747 q 738 697 686 747 q 790 554 790 648 q 785 500 790 537 q 776 443 781 463 l 690 0 l 500 0 m 1040 866 l 1067 1006 l 1258 1006 l 1231 866 l 1040 866 m 812 -288 q 699 -275 747 -288 l 724 -148 l 763 -151 q 830 -127 808 -151 q 863 -41 851 -104 l 1015 734 l 1205 734 l 1045 -87 q 966 -236 1025 -184 q 812 -288 907 -288 z "},"Ǎ":{"ha":1003,"x_min":-28,"x_max":915,"o":"m 705 0 l 667 244 l 303 244 l 171 0 l -28 0 l 505 956 l 741 956 l 903 0 l 705 0 m 594 808 q 528 665 580 765 l 384 395 l 652 395 l 606 701 q 594 808 594 793 m 705 1038 l 550 1038 l 412 1225 l 415 1244 l 517 1244 l 640 1141 l 643 1141 l 800 1244 l 915 1244 l 911 1225 l 705 1038 z "},"ǎ":{"ha":772,"x_min":7,"x_max":746,"o":"m 605 -7 q 500 22 537 -7 q 464 97 464 50 q 467 140 464 122 l 463 140 q 351 19 406 52 q 215 -14 295 -14 q 63 43 120 -14 q 7 189 7 100 q 93 378 7 314 q 374 446 180 442 l 503 448 q 517 536 517 512 q 431 623 517 623 q 336 598 368 623 q 294 527 305 574 l 115 548 q 219 696 138 646 q 435 747 300 747 q 641 698 575 747 q 706 547 706 648 q 690 441 706 522 l 642 201 q 636 153 636 171 q 643 127 636 136 q 659 115 650 119 q 676 110 667 111 q 690 109 685 109 q 732 113 710 109 l 722 8 q 665 -5 694 -3 q 605 -7 635 -7 m 482 341 l 372 341 q 247 309 293 340 q 201 220 201 277 q 228 146 201 173 q 300 119 255 119 q 403 163 357 119 q 467 279 449 207 l 482 341 m 531 802 l 376 802 l 242 1017 l 246 1037 l 348 1037 l 466 906 l 469 906 l 631 1037 l 746 1037 l 742 1017 l 531 802 z "},"Ǐ":{"ha":386,"x_min":24,"x_max":606,"o":"m 24 0 l 210 956 l 410 956 l 224 0 l 24 0 m 396 1038 l 241 1038 l 102 1225 l 106 1244 l 208 1244 l 331 1141 l 334 1141 l 491 1244 l 606 1244 l 602 1225 l 396 1038 z "},"ǐ":{"ha":386,"x_min":24,"x_max":564,"o":"m 24 0 l 166 734 l 357 734 l 214 0 l 24 0 m 349 802 l 193 802 l 60 1017 l 64 1037 l 165 1037 l 283 906 l 286 906 l 449 1037 l 564 1037 l 559 1017 l 349 802 z "},"Ǒ":{"ha":1080,"x_min":68,"x_max":1057,"o":"m 629 970 q 943 864 828 970 q 1057 577 1057 759 q 986 272 1057 410 q 786 60 914 134 q 493 -14 658 -14 q 266 35 362 -14 q 118 175 169 84 q 68 389 68 267 q 139 686 68 548 q 338 897 211 824 q 629 970 465 970 m 620 812 q 433 761 510 812 q 313 608 355 710 q 271 394 271 505 q 332 207 271 269 q 503 144 393 144 q 689 195 612 144 q 809 346 766 245 q 851 561 851 446 q 792 746 851 680 q 620 812 732 812 m 734 1038 l 579 1038 l 441 1225 l 444 1244 l 546 1244 l 669 1141 l 672 1141 l 829 1244 l 944 1244 l 940 1225 l 734 1038 z "},"ǒ":{"ha":848,"x_min":43,"x_max":804,"o":"m 804 463 q 748 214 804 323 q 592 45 693 104 q 363 -14 490 -14 q 129 66 215 -14 q 43 284 43 146 q 97 526 43 420 q 250 689 151 631 q 477 747 350 747 q 720 672 637 747 q 804 463 804 598 m 604 449 q 463 616 604 616 q 340 576 386 616 q 269 452 294 535 q 243 292 243 369 q 384 117 243 117 q 504 155 460 117 q 574 271 549 193 q 604 449 600 349 m 570 802 l 415 802 l 281 1017 l 286 1037 l 387 1037 l 505 906 l 508 906 l 671 1037 l 785 1037 l 781 1017 l 570 802 z "},"Ǔ":{"ha":1003,"x_min":81,"x_max":1031,"o":"m 467 143 q 636 195 578 143 q 718 367 694 246 l 831 956 l 1031 956 l 916 359 q 766 78 878 169 q 456 -14 654 -14 q 179 66 277 -14 q 81 292 81 146 q 86 364 81 322 q 96 431 91 406 l 197 956 l 397 956 l 293 406 q 281 290 281 347 q 330 181 281 220 q 467 143 380 143 m 684 1038 l 529 1038 l 391 1225 l 394 1244 l 496 1244 l 619 1141 l 622 1141 l 779 1244 l 894 1244 l 890 1225 l 684 1038 z "},"ǔ":{"ha":848,"x_min":58,"x_max":824,"o":"m 347 734 l 267 330 q 250 218 250 247 q 353 131 250 131 q 479 186 421 131 q 553 323 537 241 l 633 734 l 824 734 l 711 157 q 686 0 701 103 l 504 0 q 510 57 504 6 q 520 125 517 108 l 518 125 q 405 20 467 53 q 265 -13 344 -13 q 110 37 162 -13 q 58 180 58 86 q 62 234 58 197 q 72 291 67 272 l 158 734 l 347 734 m 564 802 l 409 802 l 275 1017 l 279 1037 l 381 1037 l 499 906 l 502 906 l 665 1037 l 779 1037 l 775 1017 l 564 802 z "},"Ǖ":{"ha":1003,"x_min":81,"x_max":1031,"o":"m 467 143 q 636 195 578 143 q 718 367 694 246 l 831 956 l 1031 956 l 916 359 q 766 78 878 169 q 456 -14 654 -14 q 179 66 277 -14 q 81 292 81 146 q 86 364 81 322 q 96 431 91 406 l 197 956 l 397 956 l 293 406 q 281 290 281 347 q 330 181 281 220 q 467 143 380 143 m 786 994 l 677 994 l 697 1097 l 806 1097 l 786 994 m 538 994 l 430 994 l 450 1097 l 558 1097 l 538 994 m 449 1244 l 863 1244 l 846 1151 l 431 1151 l 449 1244 z "},"ǖ":{"ha":848,"x_min":58,"x_max":824,"o":"m 347 734 l 267 330 q 250 218 250 247 q 353 131 250 131 q 479 186 421 131 q 553 323 537 241 l 633 734 l 824 734 l 711 157 q 686 0 701 103 l 504 0 q 510 57 504 6 q 520 125 517 108 l 518 125 q 405 20 467 53 q 265 -13 344 -13 q 110 37 162 -13 q 58 180 58 86 q 62 234 58 197 q 72 291 67 272 l 158 734 l 347 734 m 578 813 l 608 962 l 755 962 l 726 813 l 578 813 m 285 813 l 313 962 l 458 962 l 429 813 l 285 813 m 725 1019 l 328 1019 l 350 1133 l 750 1133 l 725 1019 z "},"Ǘ":{"ha":1003,"x_min":81,"x_max":1031,"o":"m 467 143 q 636 195 578 143 q 718 367 694 246 l 831 956 l 1031 956 l 916 359 q 766 78 878 169 q 456 -14 654 -14 q 179 66 277 -14 q 81 292 81 146 q 86 364 81 322 q 96 431 91 406 l 197 956 l 397 956 l 293 406 q 281 290 281 347 q 330 181 281 220 q 467 143 380 143 m 848 1244 l 846 1234 l 669 1130 l 568 1130 l 570 1139 l 681 1244 l 848 1244 m 793 994 l 684 994 l 704 1097 l 812 1097 l 793 994 m 545 994 l 437 994 l 456 1097 l 565 1097 l 545 994 z "},"ǘ":{"ha":848,"x_min":58,"x_max":824,"o":"m 347 734 l 267 330 q 250 218 250 247 q 353 131 250 131 q 479 186 421 131 q 553 323 537 241 l 633 734 l 824 734 l 711 157 q 686 0 701 103 l 504 0 q 510 57 504 6 q 520 125 517 108 l 518 125 q 405 20 467 53 q 265 -13 344 -13 q 110 37 162 -13 q 58 180 58 86 q 62 234 58 197 q 72 291 67 272 l 158 734 l 347 734 m 578 813 l 608 962 l 755 962 l 726 813 l 578 813 m 285 813 l 313 962 l 458 962 l 429 813 l 285 813 m 446 1018 l 450 1039 l 633 1206 l 814 1206 l 808 1177 l 547 1018 l 446 1018 z "},"Ǚ":{"ha":1003,"x_min":81,"x_max":1031,"o":"m 467 143 q 636 195 578 143 q 718 367 694 246 l 831 956 l 1031 956 l 916 359 q 766 78 878 169 q 456 -14 654 -14 q 179 66 277 -14 q 81 292 81 146 q 86 364 81 322 q 96 431 91 406 l 197 956 l 397 956 l 293 406 q 281 290 281 347 q 330 181 281 220 q 467 143 380 143 m 791 994 l 682 994 l 702 1097 l 810 1097 l 791 994 m 543 994 l 435 994 l 454 1097 l 563 1097 l 543 994 m 763 1244 l 868 1244 l 867 1238 l 707 1141 l 576 1141 l 452 1236 l 454 1244 l 559 1244 l 652 1199 l 763 1244 z "},"ǚ":{"ha":848,"x_min":58,"x_max":824,"o":"m 347 734 l 267 330 q 250 218 250 247 q 353 131 250 131 q 479 186 421 131 q 553 323 537 241 l 633 734 l 824 734 l 711 157 q 686 0 701 103 l 504 0 q 510 57 504 6 q 520 125 517 108 l 518 125 q 405 20 467 53 q 265 -13 344 -13 q 110 37 162 -13 q 58 180 58 86 q 62 234 58 197 q 72 291 67 272 l 158 734 l 347 734 m 578 813 l 608 962 l 755 962 l 726 813 l 578 813 m 285 813 l 313 962 l 458 962 l 429 813 l 285 813 m 610 1018 l 454 1018 l 316 1205 l 319 1225 l 421 1225 l 545 1122 l 547 1122 l 705 1225 l 819 1225 l 815 1205 l 610 1018 z "},"Ǜ":{"ha":1003,"x_min":81,"x_max":1031,"o":"m 467 143 q 636 195 578 143 q 718 367 694 246 l 831 956 l 1031 956 l 916 359 q 766 78 878 169 q 456 -14 654 -14 q 179 66 277 -14 q 81 292 81 146 q 86 364 81 322 q 96 431 91 406 l 197 956 l 397 956 l 293 406 q 281 290 281 347 q 330 181 281 220 q 467 143 380 143 m 642 1244 l 713 1139 l 712 1130 l 611 1130 l 474 1234 l 476 1244 l 642 1244 m 454 1097 l 563 1097 l 543 994 l 435 994 l 454 1097 m 702 1097 l 810 1097 l 791 994 l 682 994 l 702 1097 z "},"ǜ":{"ha":848,"x_min":58,"x_max":824,"o":"m 347 734 l 267 330 q 250 218 250 247 q 353 131 250 131 q 479 186 421 131 q 553 323 537 241 l 633 734 l 824 734 l 711 157 q 686 0 701 103 l 504 0 q 510 57 504 6 q 520 125 517 108 l 518 125 q 405 20 467 53 q 265 -13 344 -13 q 110 37 162 -13 q 58 180 58 86 q 62 234 58 197 q 72 291 67 272 l 158 734 l 347 734 m 578 813 l 608 962 l 755 962 l 726 813 l 578 813 m 285 813 l 313 962 l 458 962 l 429 813 l 285 813 m 523 1018 l 317 1177 l 323 1206 l 484 1206 l 622 1039 l 617 1018 l 523 1018 z "},"ǝ":{"ha":772,"x_min":43,"x_max":734,"o":"m 534 411 q 538 471 538 437 q 507 582 538 543 q 414 620 475 620 q 269 505 314 620 l 103 555 q 229 705 154 663 q 427 747 304 747 q 652 669 571 747 q 734 450 734 591 q 685 204 734 310 q 546 43 636 99 q 338 -14 456 -14 q 120 59 197 -14 q 43 265 43 132 q 59 411 43 332 l 534 411 m 219 284 l 217 246 q 251 140 217 174 q 338 107 284 107 q 448 152 404 107 q 511 284 492 197 l 219 284 z "},"Ǟ":{"ha":1003,"x_min":-28,"x_max":903,"o":"m 705 0 l 667 244 l 303 244 l 171 0 l -28 0 l 505 956 l 741 956 l 903 0 l 705 0 m 594 808 q 528 665 580 765 l 384 395 l 652 395 l 606 701 q 594 808 594 793 m 810 994 l 701 994 l 721 1097 l 829 1097 l 810 994 m 562 994 l 454 994 l 473 1097 l 582 1097 l 562 994 m 473 1244 l 887 1244 l 869 1151 l 455 1151 l 473 1244 z "},"ǟ":{"ha":772,"x_min":7,"x_max":732,"o":"m 605 -7 q 500 22 537 -7 q 464 97 464 50 q 467 140 464 122 l 463 140 q 351 19 406 52 q 215 -14 295 -14 q 63 43 120 -14 q 7 189 7 100 q 93 378 7 314 q 374 446 180 442 l 503 448 q 517 536 517 512 q 431 623 517 623 q 336 598 368 623 q 294 527 305 574 l 115 548 q 219 696 138 646 q 435 747 300 747 q 641 698 575 747 q 706 547 706 648 q 690 441 706 522 l 642 201 q 636 153 636 171 q 643 127 636 136 q 659 115 650 119 q 676 110 667 111 q 690 109 685 109 q 732 113 710 109 l 722 8 q 665 -5 694 -3 q 605 -7 635 -7 m 482 341 l 372 341 q 247 309 293 340 q 201 220 201 277 q 228 146 201 173 q 300 119 255 119 q 403 163 357 119 q 467 279 449 207 l 482 341 m 531 813 l 560 962 l 707 962 l 678 813 l 531 813 m 237 813 l 266 962 l 411 962 l 382 813 l 237 813 m 681 1026 l 283 1026 l 306 1140 l 706 1140 l 681 1026 z "},"Ǡ":{"ha":1003,"x_min":-28,"x_max":903,"o":"m 705 0 l 667 244 l 303 244 l 171 0 l -28 0 l 505 956 l 741 956 l 903 0 l 705 0 m 594 808 q 528 665 580 765 l 384 395 l 652 395 l 606 701 q 594 808 594 793 m 686 994 l 578 994 l 597 1097 l 705 1097 l 686 994 m 473 1244 l 888 1244 l 870 1151 l 456 1151 l 473 1244 z "},"ǡ":{"ha":772,"x_min":7,"x_max":732,"o":"m 605 -7 q 500 22 537 -7 q 464 97 464 50 q 467 140 464 122 l 463 140 q 351 19 406 52 q 215 -14 295 -14 q 63 43 120 -14 q 7 189 7 100 q 93 378 7 314 q 374 446 180 442 l 503 448 q 517 536 517 512 q 431 623 517 623 q 336 598 368 623 q 294 527 305 574 l 115 548 q 219 696 138 646 q 435 747 300 747 q 641 698 575 747 q 706 547 706 648 q 690 441 706 522 l 642 201 q 636 153 636 171 q 643 127 636 136 q 659 115 650 119 q 676 110 667 111 q 690 109 685 109 q 732 113 710 109 l 722 8 q 665 -5 694 -3 q 605 -7 635 -7 m 482 341 l 372 341 q 247 309 293 340 q 201 220 201 277 q 228 146 201 173 q 300 119 255 119 q 403 163 357 119 q 467 279 449 207 l 482 341 m 374 840 l 402 980 l 593 980 l 565 840 l 374 840 m 699 1040 l 301 1040 l 323 1154 l 724 1154 l 699 1040 z "},"Ǣ":{"ha":1389,"x_min":-66,"x_max":1423,"o":"m 568 0 l 615 244 l 310 244 l 146 0 l -66 0 l 589 956 l 1423 956 l 1393 802 l 918 802 l 871 561 l 1304 561 l 1275 411 l 842 411 l 792 154 l 1295 154 l 1265 0 l 568 0 m 724 808 l 683 808 l 591 667 l 408 395 l 644 395 l 724 808 m 1204 1044 l 807 1044 l 829 1158 l 1230 1158 l 1204 1044 z "},"ǣ":{"ha":1235,"x_min":28,"x_max":1187,"o":"m 696 323 q 692 262 692 297 q 723 152 692 191 q 817 114 755 114 q 961 229 916 114 l 1127 178 q 1001 28 1076 71 q 804 -14 926 -14 q 536 135 602 -14 q 459 48 502 81 q 367 1 417 16 q 237 -14 317 -14 q 85 43 142 -14 q 28 189 28 100 q 395 448 28 448 l 525 448 q 539 536 539 512 q 453 623 539 623 q 358 598 389 623 q 315 527 327 574 l 137 548 q 241 696 160 646 q 456 747 322 747 q 660 671 597 747 q 892 747 755 747 q 1111 674 1034 747 q 1187 469 1187 602 q 1171 323 1187 401 l 696 323 m 504 339 l 395 339 q 275 308 318 339 q 231 220 231 277 q 255 145 231 172 q 322 119 278 119 q 425 163 378 119 q 489 279 471 207 l 504 339 m 1011 450 l 1013 488 q 980 593 1013 560 q 892 627 946 627 q 782 582 827 627 q 719 450 738 536 l 1011 450 m 865 816 l 468 816 l 490 930 l 890 930 l 865 816 z "},"Ǥ":{"ha":1080,"x_min":68,"x_max":1080,"o":"m 574 328 l 802 328 l 813 387 l 581 387 l 608 528 l 1024 528 l 987 328 l 1080 328 l 1060 227 l 969 227 l 949 119 q 743 18 850 49 q 502 -13 637 -13 q 183 95 298 -13 q 68 395 68 202 q 138 695 68 564 q 339 898 208 826 q 639 970 469 970 q 898 900 793 970 q 1038 705 1002 830 l 846 652 q 770 770 827 728 q 628 812 714 812 q 438 761 519 812 q 314 617 357 710 q 271 401 271 524 q 335 212 271 281 q 518 143 399 143 q 658 158 591 143 q 779 200 726 173 l 783 227 l 553 227 l 574 328 z "},"ǥ":{"ha":848,"x_min":-2,"x_max":825,"o":"m 797 -63 l 661 -63 q 534 -234 623 -180 q 292 -288 446 -288 q 101 -251 172 -288 q 4 -134 31 -214 l 194 -100 q 315 -162 221 -162 q 410 -138 374 -162 q 469 -63 447 -114 l -2 -63 l 11 0 l 490 0 q 528 189 497 21 l 526 189 q 454 104 487 132 q 380 62 421 77 q 286 47 339 47 q 118 115 181 47 q 56 294 56 183 q 147 623 56 499 q 397 747 239 747 q 535 709 477 747 q 611 606 592 671 l 612 606 q 629 678 617 628 q 645 734 642 728 l 825 734 l 820 713 l 791 578 l 678 0 l 810 0 l 797 -63 m 574 465 q 538 576 574 536 q 439 616 503 616 q 302 541 349 616 q 255 321 255 465 q 372 186 255 186 q 488 219 446 186 q 552 318 530 252 q 574 465 574 385 z "},"Ǧ":{"ha":1080,"x_min":68,"x_max":1038,"o":"m 502 -13 q 183 95 298 -13 q 68 395 68 202 q 139 696 68 565 q 339 899 210 828 q 639 970 469 970 q 898 900 793 970 q 1038 705 1002 830 l 846 652 q 770 770 827 728 q 628 812 714 812 q 439 762 520 812 q 314 617 357 711 q 271 401 271 524 q 335 212 271 281 q 518 143 400 143 q 661 161 591 143 q 779 208 730 178 l 810 363 l 578 363 l 604 504 l 1021 504 l 949 119 q 738 17 844 46 q 502 -13 632 -13 m 729 1038 l 574 1038 l 435 1225 l 439 1244 l 541 1244 l 664 1141 l 667 1141 l 824 1244 l 939 1244 l 935 1225 l 729 1038 z "},"ǧ":{"ha":848,"x_min":-5,"x_max":825,"o":"m 292 -288 q 85 -241 157 -288 q -5 -96 12 -195 l 187 -76 q 315 -162 205 -162 q 431 -122 389 -162 q 495 18 472 -82 q 516 136 509 83 l 515 136 q 440 50 472 76 q 367 9 408 23 q 275 -5 327 -5 q 107 62 170 -5 q 44 241 44 130 q 87 503 44 378 q 206 687 130 628 q 397 747 281 747 q 535 709 477 747 q 611 606 593 671 l 612 606 q 629 677 616 625 q 645 734 642 728 l 825 734 l 812 677 l 791 578 l 680 7 q 556 -220 648 -151 q 292 -288 465 -288 m 574 465 q 538 576 574 536 q 439 616 503 616 q 354 595 388 616 q 297 525 321 573 q 259 397 274 476 q 243 269 243 318 q 361 134 243 134 q 471 179 421 134 q 547 303 520 224 q 574 465 574 381 m 565 802 l 410 802 l 276 1017 l 280 1037 l 382 1037 l 500 906 l 503 906 l 665 1037 l 780 1037 l 776 1017 l 565 802 z "},"Ǩ":{"ha":1003,"x_min":24,"x_max":1087,"o":"m 675 0 l 434 434 l 291 351 l 222 0 l 24 0 l 210 956 l 410 956 l 321 522 l 837 956 l 1087 956 l 581 538 l 896 0 l 675 0 m 694 1038 l 539 1038 l 401 1225 l 404 1244 l 506 1244 l 629 1141 l 632 1141 l 789 1244 l 904 1244 l 900 1225 l 694 1038 z "},"ǩ":{"ha":772,"x_min":24,"x_max":843,"o":"m 494 0 l 366 337 l 271 286 l 214 0 l 24 0 l 219 1006 l 410 1006 l 296 430 l 612 734 l 830 734 l 509 448 l 696 0 l 494 0 m 633 1038 l 478 1038 l 340 1225 l 343 1244 l 445 1244 l 568 1141 l 571 1141 l 728 1244 l 843 1244 l 839 1225 l 633 1038 z "},"Ǫ":{"ha":1080,"x_min":68,"x_max":1057,"o":"m 629 970 q 943 864 828 970 q 1057 577 1057 759 q 986 272 1057 410 q 786 60 914 134 q 493 -14 658 -14 q 266 35 362 -14 q 118 175 169 84 q 68 389 68 267 q 139 686 68 548 q 338 897 211 824 q 629 970 465 970 m 620 812 q 433 761 510 812 q 313 608 355 710 q 271 394 271 505 q 332 207 271 269 q 503 144 393 144 q 689 195 612 144 q 809 346 766 245 q 851 561 851 446 q 792 746 851 680 q 620 812 732 812 m 553 -288 q 455 -256 492 -288 q 418 -167 418 -223 q 449 -72 418 -117 q 540 7 479 -27 l 651 7 q 581 -62 610 -19 q 552 -143 552 -106 q 567 -182 552 -169 q 606 -195 582 -195 q 675 -179 639 -195 l 662 -265 q 553 -288 608 -288 z "},"ǫ":{"ha":848,"x_min":43,"x_max":804,"o":"m 804 463 q 748 214 804 323 q 592 45 693 104 q 363 -14 490 -14 q 129 66 215 -14 q 43 284 43 146 q 97 526 43 420 q 250 689 151 631 q 477 747 350 747 q 720 672 637 747 q 804 463 804 598 m 604 449 q 463 616 604 616 q 340 576 386 616 q 269 452 294 535 q 243 292 243 369 q 384 117 243 117 q 504 155 460 117 q 574 271 549 193 q 604 449 600 349 m 404 -288 q 306 -256 343 -288 q 269 -167 269 -223 q 299 -72 269 -117 q 391 7 330 -27 l 502 7 q 432 -62 460 -19 q 403 -143 403 -106 q 418 -182 403 -169 q 456 -195 433 -195 q 526 -179 490 -195 l 513 -265 q 404 -288 459 -288 z "},"Ǭ":{"ha":1080,"x_min":68,"x_max":1057,"o":"m 629 970 q 943 864 828 970 q 1057 577 1057 759 q 986 272 1057 410 q 786 60 914 134 q 493 -14 658 -14 q 266 35 362 -14 q 118 175 169 84 q 68 389 68 267 q 139 686 68 548 q 338 897 211 824 q 629 970 465 970 m 620 812 q 433 761 510 812 q 313 608 355 710 q 271 394 271 505 q 332 207 271 269 q 503 144 393 144 q 689 195 612 144 q 809 346 766 245 q 851 561 851 446 q 792 746 851 680 q 620 812 732 812 m 553 -288 q 455 -256 492 -288 q 418 -167 418 -223 q 449 -72 418 -117 q 540 7 479 -27 l 651 7 q 581 -62 610 -19 q 552 -143 552 -106 q 567 -182 552 -169 q 606 -195 582 -195 q 675 -179 639 -195 l 662 -265 q 553 -288 608 -288 m 836 1054 l 439 1054 l 461 1168 l 861 1168 l 836 1054 z "},"ǭ":{"ha":848,"x_min":43,"x_max":804,"o":"m 804 463 q 748 214 804 323 q 592 45 693 104 q 363 -14 490 -14 q 129 66 215 -14 q 43 284 43 146 q 97 526 43 420 q 250 689 151 631 q 477 747 350 747 q 720 672 637 747 q 804 463 804 598 m 604 449 q 463 616 604 616 q 340 576 386 616 q 269 452 294 535 q 243 292 243 369 q 384 117 243 117 q 504 155 460 117 q 574 271 549 193 q 604 449 600 349 m 404 -288 q 306 -256 343 -288 q 269 -167 269 -223 q 299 -72 269 -117 q 391 7 330 -27 l 502 7 q 432 -62 460 -19 q 403 -143 403 -106 q 418 -182 403 -169 q 456 -195 433 -195 q 526 -179 490 -195 l 513 -265 q 404 -288 459 -288 m 689 816 l 292 816 l 314 930 l 714 930 l 689 816 z "},"Ǯ":{"ha":848,"x_min":-62,"x_max":878,"o":"m 296 -290 q 66 -230 154 -290 q -62 -49 -22 -170 l 115 26 q 168 -72 142 -41 q 228 -117 193 -102 q 315 -132 262 -132 q 438 -94 382 -132 q 526 10 494 -55 q 559 142 559 75 q 502 303 559 251 q 321 355 446 355 l 235 355 l 264 512 l 597 799 l 136 799 l 166 956 l 878 956 l 851 817 l 479 500 q 688 406 616 484 q 760 194 760 327 q 701 -59 760 52 q 536 -230 642 -170 q 296 -290 431 -290 m 606 1038 l 451 1038 l 313 1225 l 316 1244 l 418 1244 l 541 1141 l 544 1141 l 701 1244 l 816 1244 l 812 1225 l 606 1038 z "},"ǯ":{"ha":731,"x_min":-68,"x_max":728,"o":"m 267 -157 q 397 -101 348 -157 q 446 51 446 -45 q 424 157 446 117 q 357 215 402 197 q 229 233 312 233 l 174 233 l 199 361 l 475 596 l 90 596 l 117 734 l 728 734 l 703 602 l 408 354 q 582 259 520 336 q 644 58 644 182 q 596 -120 644 -40 q 464 -244 549 -200 q 269 -288 378 -288 q -68 -49 -25 -288 l 116 -21 q 267 -157 134 -157 m 507 802 l 352 802 l 218 1017 l 222 1037 l 324 1037 l 442 906 l 445 906 l 608 1037 l 722 1037 l 718 1017 l 507 802 z "},"ǰ":{"ha":386,"x_min":-149,"x_max":564,"o":"m -37 -288 q -149 -275 -101 -288 l -125 -148 l -85 -151 q -19 -127 -40 -151 q 15 -41 3 -104 l 166 734 l 357 734 l 197 -87 q 118 -236 177 -184 q -37 -288 58 -288 m 349 802 l 193 802 l 60 1017 l 64 1037 l 165 1037 l 283 906 l 286 906 l 449 1037 l 564 1037 l 559 1017 l 349 802 z "},"Ǳ":{"ha":1851,"x_min":24,"x_max":1885,"o":"m 498 956 q 844 850 724 956 q 964 547 964 745 q 897 264 964 387 q 702 71 829 142 q 416 0 574 0 l 24 0 l 210 956 l 498 956 m 254 155 l 410 155 q 603 201 519 155 q 731 335 686 248 q 777 538 777 422 q 705 734 777 667 q 499 801 633 801 l 380 801 l 254 155 m 1727 0 l 961 0 l 988 142 l 1617 799 l 1167 799 l 1198 956 l 1885 956 l 1858 817 l 1227 157 l 1758 157 l 1727 0 z "},"ǲ":{"ha":1697,"x_min":24,"x_max":1688,"o":"m 498 956 q 844 850 724 956 q 964 547 964 745 q 897 264 964 387 q 702 71 829 142 q 416 0 574 0 l 24 0 l 210 956 l 498 956 m 254 155 l 410 155 q 603 201 519 155 q 731 335 686 248 q 777 538 777 422 q 705 734 777 667 q 499 801 633 801 l 380 801 l 254 155 m 996 0 l 1022 135 l 1438 596 l 1139 596 l 1166 734 l 1688 734 l 1662 597 l 1248 139 l 1605 139 l 1578 0 l 996 0 z "},"ǳ":{"ha":1543,"x_min":39,"x_max":1533,"o":"m 508 109 q 404 16 460 45 q 266 -14 348 -14 q 100 55 161 -14 q 39 240 39 124 q 83 494 39 370 q 204 683 126 618 q 393 747 283 747 q 606 613 567 747 l 610 613 q 615 654 611 627 q 627 723 619 681 l 684 1006 l 872 1006 l 711 157 q 691 0 697 81 l 500 0 q 511 109 500 43 l 508 109 m 349 117 q 444 140 404 117 q 511 212 483 163 q 555 334 538 260 q 571 462 571 407 q 539 580 571 543 q 444 617 507 617 q 331 570 374 617 q 264 433 287 524 q 241 267 241 343 q 349 117 241 117 m 842 0 l 867 135 l 1283 596 l 985 596 l 1012 734 l 1533 734 l 1507 597 l 1093 139 l 1451 139 l 1423 0 l 842 0 z "},"Ǵ":{"ha":1080,"x_min":68,"x_max":1038,"o":"m 502 -13 q 183 95 298 -13 q 68 395 68 202 q 139 696 68 565 q 339 899 210 828 q 639 970 469 970 q 898 900 793 970 q 1038 705 1002 830 l 846 652 q 770 770 827 728 q 628 812 714 812 q 439 762 520 812 q 314 617 357 711 q 271 401 271 524 q 335 212 271 281 q 518 143 400 143 q 661 161 591 143 q 779 208 730 178 l 810 363 l 578 363 l 604 504 l 1021 504 l 949 119 q 738 17 844 46 q 502 -13 632 -13 m 527 1038 l 532 1059 l 715 1226 l 896 1226 l 890 1197 l 628 1038 l 527 1038 z "},"ǵ":{"ha":848,"x_min":-5,"x_max":825,"o":"m 292 -288 q 85 -241 157 -288 q -5 -96 12 -195 l 187 -76 q 315 -162 205 -162 q 431 -122 389 -162 q 495 18 472 -82 q 516 136 509 83 l 515 136 q 440 50 472 76 q 367 9 408 23 q 275 -5 327 -5 q 107 62 170 -5 q 44 241 44 130 q 87 503 44 378 q 206 687 130 628 q 397 747 281 747 q 535 709 477 747 q 611 606 593 671 l 612 606 q 629 677 616 625 q 645 734 642 728 l 825 734 l 812 677 l 791 578 l 680 7 q 556 -220 648 -151 q 292 -288 465 -288 m 574 465 q 538 576 574 536 q 439 616 503 616 q 354 595 388 616 q 297 525 321 573 q 259 397 274 476 q 243 269 243 318 q 361 134 243 134 q 471 179 421 134 q 547 303 520 224 q 574 465 574 381 m 349 802 l 353 823 l 521 1019 l 709 1019 l 703 989 l 448 802 l 349 802 z "},"Ƕ":{"ha":1438,"x_min":24,"x_max":1433,"o":"m 894 237 q 1001 130 894 130 q 1105 170 1068 130 q 1160 304 1142 210 l 1243 734 l 1433 734 l 1350 309 q 1233 63 1317 140 q 998 -14 1149 -14 q 773 45 850 -14 q 697 218 697 103 q 701 266 697 237 q 728 410 705 294 l 304 410 l 224 0 l 24 0 l 210 956 l 410 956 l 336 575 l 760 575 l 834 956 l 1027 956 l 901 304 q 894 237 894 264 z "},"Ƿ":{"ha":956,"x_min":-29,"x_max":909,"o":"m -29 -288 l 212 956 l 397 956 l 374 843 q 504 941 439 912 q 654 970 569 970 q 840 892 770 970 q 909 684 909 814 q 827 367 909 519 q 576 80 745 214 q 198 -131 408 -54 l 168 -288 l -29 -288 m 706 665 q 673 772 706 732 q 572 812 640 812 q 422 758 484 812 q 344 618 359 703 l 229 41 q 482 200 370 98 q 650 420 594 301 q 706 665 706 540 z "},"Ǹ":{"ha":1003,"x_min":24,"x_max":1027,"o":"m 600 0 l 346 767 q 320 605 330 657 l 202 0 l 24 0 l 210 956 l 448 956 l 703 182 l 711 237 q 731 355 719 294 l 849 956 l 1027 956 l 841 0 l 600 0 m 638 1038 l 432 1197 l 438 1226 l 600 1226 l 737 1059 l 732 1038 l 638 1038 z "},"ǹ":{"ha":848,"x_min":24,"x_max":790,"o":"m 500 0 l 581 404 q 598 515 598 488 q 495 603 598 603 q 368 547 427 603 q 295 411 310 492 l 215 0 l 24 0 l 136 577 q 162 734 147 631 l 344 734 q 337 677 344 728 q 328 608 331 626 l 330 608 q 442 713 380 679 q 583 747 503 747 q 738 697 686 747 q 790 554 790 648 q 785 500 790 537 q 776 443 781 463 l 690 0 l 500 0 m 540 802 l 332 989 l 337 1019 l 512 1019 l 644 823 l 640 802 l 540 802 z "},"Ǻ":{"ha":1003,"x_min":-28,"x_max":949,"o":"m 705 0 l 667 244 l 303 244 l 171 0 l -28 0 l 505 956 l 741 956 l 903 0 l 705 0 m 594 808 q 528 665 580 765 l 384 395 l 652 395 l 606 701 q 594 808 594 793 m 801 1042 q 751 921 801 971 q 629 870 701 870 q 506 921 556 870 q 456 1042 456 971 q 507 1164 456 1114 q 629 1215 557 1215 q 750 1164 700 1215 q 801 1042 801 1114 m 715 1042 q 690 1102 715 1077 q 629 1127 665 1127 q 569 1103 594 1127 q 544 1042 544 1078 q 569 980 544 1004 q 629 956 594 956 q 690 981 665 956 q 715 1042 715 1006 m 581 1242 l 585 1263 l 768 1430 l 949 1430 l 943 1401 l 682 1242 l 581 1242 z "},"ǻ":{"ha":772,"x_min":7,"x_max":813,"o":"m 605 -7 q 500 22 537 -7 q 464 97 464 50 q 467 140 464 122 l 463 140 q 351 19 406 52 q 215 -14 295 -14 q 63 43 120 -14 q 7 189 7 100 q 93 378 7 314 q 374 446 180 442 l 503 448 q 517 536 517 512 q 431 623 517 623 q 336 598 368 623 q 294 527 305 574 l 115 548 q 219 696 138 646 q 435 747 300 747 q 641 698 575 747 q 706 547 706 648 q 690 441 706 522 l 642 201 q 636 153 636 171 q 643 127 636 136 q 659 115 650 119 q 676 110 667 111 q 690 109 685 109 q 732 113 710 109 l 722 8 q 665 -5 694 -3 q 605 -7 635 -7 m 482 341 l 372 341 q 247 309 293 340 q 201 220 201 277 q 228 146 201 173 q 300 119 255 119 q 403 163 357 119 q 467 279 449 207 l 482 341 m 649 943 q 599 821 649 871 q 477 770 549 770 q 354 821 404 770 q 304 943 304 871 q 355 1064 304 1014 q 477 1115 406 1115 q 598 1064 548 1115 q 649 943 649 1014 m 563 943 q 538 1002 563 977 q 477 1027 513 1027 q 417 1003 442 1027 q 392 943 392 979 q 417 880 392 905 q 477 856 442 856 q 538 881 513 856 q 563 943 563 906 m 444 1147 l 449 1168 l 632 1336 l 813 1336 l 807 1307 l 545 1147 l 444 1147 z "},"Ǽ":{"ha":1389,"x_min":-66,"x_max":1423,"o":"m 568 0 l 615 244 l 310 244 l 146 0 l -66 0 l 589 956 l 1423 956 l 1393 802 l 918 802 l 871 561 l 1304 561 l 1275 411 l 842 411 l 792 154 l 1295 154 l 1265 0 l 568 0 m 724 808 l 683 808 l 591 667 l 408 395 l 644 395 l 724 808 m 863 1038 l 868 1059 l 1051 1226 l 1232 1226 l 1226 1197 l 964 1038 l 863 1038 z "},"ǽ":{"ha":1235,"x_min":28,"x_max":1187,"o":"m 696 323 q 692 262 692 297 q 723 152 692 191 q 817 114 755 114 q 961 229 916 114 l 1127 178 q 1001 28 1076 71 q 804 -14 926 -14 q 536 135 602 -14 q 459 48 502 81 q 367 1 417 16 q 237 -14 317 -14 q 85 43 142 -14 q 28 189 28 100 q 395 448 28 448 l 525 448 q 539 536 539 512 q 453 623 539 623 q 358 598 389 623 q 315 527 327 574 l 137 548 q 241 696 160 646 q 456 747 322 747 q 660 671 597 747 q 892 747 755 747 q 1111 674 1034 747 q 1187 469 1187 602 q 1171 323 1187 401 l 696 323 m 504 339 l 395 339 q 275 308 318 339 q 231 220 231 277 q 255 145 231 172 q 322 119 278 119 q 425 163 378 119 q 489 279 471 207 l 504 339 m 1011 450 l 1013 488 q 980 593 1013 560 q 892 627 946 627 q 782 582 827 627 q 719 450 738 536 l 1011 450 m 609 802 l 613 823 l 781 1019 l 968 1019 l 963 989 l 708 802 l 609 802 z "},"Ǿ":{"ha":1080,"x_min":24,"x_max":1124,"o":"m 629 970 q 898 899 790 970 l 987 994 l 1124 994 l 973 832 q 1057 577 1057 732 q 986 272 1057 410 q 786 60 914 134 q 493 -14 658 -14 q 242 48 342 -14 l 164 -36 l 24 -36 l 163 113 q 68 389 68 220 q 139 686 68 548 q 338 897 211 824 q 629 970 465 970 m 620 812 q 433 761 510 812 q 313 608 355 710 q 271 394 271 505 q 298 257 271 312 l 772 764 q 620 812 713 812 m 851 561 q 831 680 851 629 l 365 179 q 503 144 418 144 q 689 195 612 144 q 809 346 766 245 q 851 561 851 446 m 553 1038 l 557 1059 l 741 1226 l 922 1226 l 916 1197 l 654 1038 l 553 1038 z "},"ǿ":{"ha":848,"x_min":28,"x_max":831,"o":"m 28 -26 l 117 77 q 43 284 43 155 q 97 526 43 420 q 250 689 151 631 q 477 747 350 747 q 663 710 585 747 l 703 757 l 831 757 l 741 651 q 804 463 804 580 q 748 214 804 323 q 592 45 693 104 q 363 -14 490 -14 q 197 20 269 -14 l 158 -26 l 28 -26 m 243 292 q 248 229 243 258 l 557 587 q 463 616 523 616 q 340 576 386 616 q 269 452 294 535 q 243 292 243 369 m 604 449 q 602 490 604 471 l 300 140 q 384 117 334 117 q 504 155 460 117 q 574 271 549 193 q 604 449 600 349 m 420 802 l 424 823 l 591 1019 l 779 1019 l 774 989 l 519 802 l 420 802 z "},"Ȁ":{"ha":1003,"x_min":-28,"x_max":903,"o":"m 705 0 l 667 244 l 303 244 l 171 0 l -28 0 l 505 956 l 741 956 l 903 0 l 705 0 m 594 808 q 528 665 580 765 l 384 395 l 652 395 l 606 701 q 594 808 594 793 m 743 1029 l 535 1216 l 541 1245 l 715 1245 l 848 1050 l 843 1029 l 743 1029 m 469 1029 l 260 1216 l 267 1245 l 440 1245 l 574 1050 l 568 1029 l 469 1029 z "},"ȁ":{"ha":772,"x_min":7,"x_max":732,"o":"m 605 -7 q 500 22 537 -7 q 464 97 464 50 q 467 140 464 122 l 463 140 q 351 19 406 52 q 215 -14 295 -14 q 63 43 120 -14 q 7 189 7 100 q 93 378 7 314 q 374 446 180 442 l 503 448 q 517 536 517 512 q 431 623 517 623 q 336 598 368 623 q 294 527 305 574 l 115 548 q 219 696 138 646 q 435 747 300 747 q 641 698 575 747 q 706 547 706 648 q 690 441 706 522 l 642 201 q 636 153 636 171 q 643 127 636 136 q 659 115 650 119 q 676 110 667 111 q 690 109 685 109 q 732 113 710 109 l 722 8 q 665 -5 694 -3 q 605 -7 635 -7 m 482 341 l 372 341 q 247 309 293 340 q 201 220 201 277 q 228 146 201 173 q 300 119 255 119 q 403 163 357 119 q 467 279 449 207 l 482 341 m 587 802 l 379 989 l 385 1019 l 559 1019 l 692 823 l 687 802 l 587 802 m 313 802 l 104 989 l 111 1019 l 284 1019 l 418 823 l 412 802 l 313 802 z "},"Ȃ":{"ha":1003,"x_min":-28,"x_max":903,"o":"m 705 0 l 667 244 l 303 244 l 171 0 l -28 0 l 505 956 l 741 956 l 903 0 l 705 0 m 594 808 q 528 665 580 765 l 384 395 l 652 395 l 606 701 q 594 808 594 793 m 660 1238 q 814 1187 757 1238 q 872 1052 872 1135 l 871 1026 l 760 1026 q 730 1104 760 1076 q 649 1132 700 1132 q 555 1105 593 1132 q 502 1026 517 1078 l 391 1026 q 485 1187 419 1135 q 660 1238 551 1238 z "},"ȃ":{"ha":772,"x_min":7,"x_max":732,"o":"m 605 -7 q 500 22 537 -7 q 464 97 464 50 q 467 140 464 122 l 463 140 q 351 19 406 52 q 215 -14 295 -14 q 63 43 120 -14 q 7 189 7 100 q 93 378 7 314 q 374 446 180 442 l 503 448 q 517 536 517 512 q 431 623 517 623 q 336 598 368 623 q 294 527 305 574 l 115 548 q 219 696 138 646 q 435 747 300 747 q 641 698 575 747 q 706 547 706 648 q 690 441 706 522 l 642 201 q 636 153 636 171 q 643 127 636 136 q 659 115 650 119 q 676 110 667 111 q 690 109 685 109 q 732 113 710 109 l 722 8 q 665 -5 694 -3 q 605 -7 635 -7 m 482 341 l 372 341 q 247 309 293 340 q 201 220 201 277 q 228 146 201 173 q 300 119 255 119 q 403 163 357 119 q 467 279 449 207 l 482 341 m 479 1015 q 633 963 576 1015 q 691 828 691 911 l 690 802 l 579 802 q 549 880 579 852 q 468 908 519 908 q 374 881 412 908 q 321 802 336 854 l 210 802 q 304 963 238 911 q 479 1015 370 1015 z "},"Ȅ":{"ha":926,"x_min":24,"x_max":961,"o":"m 24 0 l 210 956 l 961 956 l 931 801 l 380 801 l 333 561 l 843 561 l 813 406 l 303 406 l 254 155 l 833 155 l 803 0 l 24 0 m 716 1029 l 508 1216 l 514 1245 l 688 1245 l 821 1050 l 816 1029 l 716 1029 m 441 1029 l 233 1216 l 239 1245 l 413 1245 l 547 1050 l 541 1029 l 441 1029 z "},"ȅ":{"ha":772,"x_min":43,"x_max":734,"o":"m 243 323 q 238 262 238 297 q 270 152 238 191 q 363 114 301 114 q 507 229 463 114 l 673 178 q 547 28 623 71 q 350 -14 472 -14 q 124 65 205 -14 q 43 283 43 143 q 92 529 43 424 q 230 691 140 635 q 438 747 320 747 q 657 674 580 747 q 734 469 734 602 q 718 323 734 401 l 243 323 m 557 450 l 559 488 q 526 593 559 560 q 438 627 492 627 q 329 582 373 627 q 265 450 284 536 l 557 450 m 574 802 l 366 989 l 372 1019 l 545 1019 l 679 823 l 673 802 l 574 802 m 299 802 l 91 989 l 97 1019 l 271 1019 l 404 823 l 399 802 l 299 802 z "},"Ȇ":{"ha":926,"x_min":24,"x_max":961,"o":"m 24 0 l 210 956 l 961 956 l 931 801 l 380 801 l 333 561 l 843 561 l 813 406 l 303 406 l 254 155 l 833 155 l 803 0 l 24 0 m 621 1238 q 776 1187 718 1238 q 833 1052 833 1135 l 832 1026 l 722 1026 q 691 1104 722 1076 q 610 1132 661 1132 q 517 1105 555 1132 q 463 1026 479 1078 l 352 1026 q 446 1187 380 1135 q 621 1238 512 1238 z "},"ȇ":{"ha":772,"x_min":43,"x_max":734,"o":"m 243 323 q 238 262 238 297 q 270 152 238 191 q 363 114 301 114 q 507 229 463 114 l 673 178 q 547 28 623 71 q 350 -14 472 -14 q 124 65 205 -14 q 43 283 43 143 q 92 529 43 424 q 230 691 140 635 q 438 747 320 747 q 657 674 580 747 q 734 469 734 602 q 718 323 734 401 l 243 323 m 557 450 l 559 488 q 526 593 559 560 q 438 627 492 627 q 329 582 373 627 q 265 450 284 536 l 557 450 m 472 1015 q 627 963 569 1015 q 684 828 684 911 l 683 802 l 572 802 q 542 880 572 852 q 461 908 512 908 q 368 881 406 908 q 314 802 330 854 l 203 802 q 297 963 231 911 q 472 1015 363 1015 z "},"Ȉ":{"ha":386,"x_min":-45,"x_max":543,"o":"m 24 0 l 210 956 l 410 956 l 224 0 l 24 0 m 438 1029 l 230 1216 l 236 1245 l 410 1245 l 543 1050 l 538 1029 l 438 1029 m 163 1029 l -45 1216 l -39 1245 l 135 1245 l 269 1050 l 263 1029 l 163 1029 z "},"ȉ":{"ha":386,"x_min":-79,"x_max":509,"o":"m 24 0 l 166 734 l 357 734 l 214 0 l 24 0 m 404 802 l 196 989 l 202 1019 l 376 1019 l 509 823 l 504 802 l 404 802 m 130 802 l -79 989 l -73 1019 l 101 1019 l 235 823 l 229 802 l 130 802 z "},"Ȋ":{"ha":386,"x_min":24,"x_max":572,"o":"m 24 0 l 210 956 l 410 956 l 224 0 l 24 0 m 360 1260 q 515 1208 457 1260 q 572 1074 572 1157 l 571 1048 l 460 1048 q 430 1125 460 1097 q 349 1154 400 1154 q 256 1126 294 1154 q 202 1048 218 1099 l 91 1048 q 185 1208 119 1157 q 360 1260 251 1260 z "},"ȋ":{"ha":386,"x_min":24,"x_max":515,"o":"m 24 0 l 166 734 l 357 734 l 214 0 l 24 0 m 303 1015 q 458 963 400 1015 q 515 828 515 911 l 514 802 l 404 802 q 373 880 404 852 q 292 908 343 908 q 199 881 237 908 q 145 802 161 854 l 34 802 q 128 963 62 911 q 303 1015 194 1015 z "},"Ȍ":{"ha":1080,"x_min":68,"x_max":1057,"o":"m 629 970 q 943 864 828 970 q 1057 577 1057 759 q 986 272 1057 410 q 786 60 914 134 q 493 -14 658 -14 q 266 35 362 -14 q 118 175 169 84 q 68 389 68 267 q 139 686 68 548 q 338 897 211 824 q 629 970 465 970 m 620 812 q 433 761 510 812 q 313 608 355 710 q 271 394 271 505 q 332 207 271 269 q 503 144 393 144 q 689 195 612 144 q 809 346 766 245 q 851 561 851 446 q 792 746 851 680 q 620 812 732 812 m 743 1029 l 535 1216 l 541 1245 l 715 1245 l 848 1050 l 843 1029 l 743 1029 m 469 1029 l 260 1216 l 267 1245 l 440 1245 l 574 1050 l 568 1029 l 469 1029 z "},"ȍ":{"ha":848,"x_min":43,"x_max":804,"o":"m 804 463 q 748 214 804 323 q 592 45 693 104 q 363 -14 490 -14 q 129 66 215 -14 q 43 284 43 146 q 97 526 43 420 q 250 689 151 631 q 477 747 350 747 q 720 672 637 747 q 804 463 804 598 m 604 449 q 463 616 604 616 q 340 576 386 616 q 269 452 294 535 q 243 292 243 369 q 384 117 243 117 q 504 155 460 117 q 574 271 549 193 q 604 449 600 349 m 594 802 l 386 989 l 392 1019 l 566 1019 l 699 823 l 694 802 l 594 802 m 319 802 l 111 989 l 117 1019 l 291 1019 l 425 823 l 419 802 l 319 802 z "},"Ȏ":{"ha":1080,"x_min":68,"x_max":1057,"o":"m 629 970 q 943 864 828 970 q 1057 577 1057 759 q 986 272 1057 410 q 786 60 914 134 q 493 -14 658 -14 q 266 35 362 -14 q 118 175 169 84 q 68 389 68 267 q 139 686 68 548 q 338 897 211 824 q 629 970 465 970 m 620 812 q 433 761 510 812 q 313 608 355 710 q 271 394 271 505 q 332 207 271 269 q 503 144 393 144 q 689 195 612 144 q 809 346 766 245 q 851 561 851 446 q 792 746 851 680 q 620 812 732 812 m 662 1238 q 817 1186 759 1238 q 874 1051 874 1135 l 873 1025 l 762 1025 q 732 1103 762 1075 q 651 1131 702 1131 q 557 1104 595 1131 q 504 1025 519 1077 l 393 1025 q 487 1186 421 1135 q 662 1238 553 1238 z "},"ȏ":{"ha":848,"x_min":43,"x_max":804,"o":"m 804 463 q 748 214 804 323 q 592 45 693 104 q 363 -14 490 -14 q 129 66 215 -14 q 43 284 43 146 q 97 526 43 420 q 250 689 151 631 q 477 747 350 747 q 720 672 637 747 q 804 463 804 598 m 604 449 q 463 616 604 616 q 340 576 386 616 q 269 452 294 535 q 243 292 243 369 q 384 117 243 117 q 504 155 460 117 q 574 271 549 193 q 604 449 600 349 m 518 1015 q 673 963 615 1015 q 730 828 730 911 l 729 802 l 618 802 q 588 880 618 852 q 507 908 558 908 q 414 881 452 908 q 360 802 376 854 l 249 802 q 343 963 277 911 q 518 1015 409 1015 z "},"Ȑ":{"ha":1003,"x_min":24,"x_max":994,"o":"m 685 0 l 529 362 l 294 362 l 224 0 l 24 0 l 210 956 l 652 956 q 837 922 760 956 q 954 827 913 889 q 994 682 994 766 q 920 492 994 570 q 720 395 846 414 l 906 0 l 685 0 m 591 518 q 740 558 690 518 q 791 671 791 597 q 748 767 791 734 q 627 800 705 800 l 380 800 l 325 518 l 591 518 m 716 1029 l 508 1216 l 514 1245 l 688 1245 l 821 1050 l 816 1029 l 716 1029 m 441 1029 l 233 1216 l 239 1245 l 413 1245 l 547 1050 l 541 1029 l 441 1029 z "},"ȑ":{"ha":541,"x_min":24,"x_max":645,"o":"m 572 578 q 495 589 526 589 q 359 530 412 589 q 283 349 307 471 l 214 0 l 24 0 l 133 563 q 161 734 149 644 l 343 734 l 328 617 l 323 584 l 326 584 q 423 711 375 675 q 534 747 471 747 q 604 738 566 747 l 572 578 m 540 802 l 332 989 l 338 1019 l 511 1019 l 645 823 l 640 802 l 540 802 m 265 802 l 57 989 l 63 1019 l 237 1019 l 370 823 l 365 802 l 265 802 z "},"Ȓ":{"ha":1003,"x_min":24,"x_max":994,"o":"m 685 0 l 529 362 l 294 362 l 224 0 l 24 0 l 210 956 l 652 956 q 837 922 760 956 q 954 827 913 889 q 994 682 994 766 q 920 492 994 570 q 720 395 846 414 l 906 0 l 685 0 m 591 518 q 740 558 690 518 q 791 671 791 597 q 748 767 791 734 q 627 800 705 800 l 380 800 l 325 518 l 591 518 m 621 1238 q 776 1187 718 1238 q 833 1052 833 1135 l 832 1026 l 722 1026 q 691 1104 722 1076 q 610 1132 661 1132 q 517 1105 555 1132 q 463 1026 479 1078 l 352 1026 q 446 1187 380 1135 q 621 1238 512 1238 z "},"ȓ":{"ha":541,"x_min":24,"x_max":632,"o":"m 572 578 q 495 589 526 589 q 359 530 412 589 q 283 349 307 471 l 214 0 l 24 0 l 133 563 q 161 734 149 644 l 343 734 l 328 617 l 323 584 l 326 584 q 423 711 375 675 q 534 747 471 747 q 604 738 566 747 l 572 578 m 420 1015 q 574 963 517 1015 q 632 828 632 911 l 631 802 l 520 802 q 490 880 520 852 q 409 908 460 908 q 315 881 353 908 q 262 802 277 854 l 151 802 q 245 963 179 911 q 420 1015 311 1015 z "},"Ȕ":{"ha":1003,"x_min":81,"x_max":1031,"o":"m 467 143 q 636 195 578 143 q 718 367 694 246 l 831 956 l 1031 956 l 916 359 q 766 78 878 169 q 456 -14 654 -14 q 179 66 277 -14 q 81 292 81 146 q 86 364 81 322 q 96 431 91 406 l 197 956 l 397 956 l 293 406 q 281 290 281 347 q 330 181 281 220 q 467 143 380 143 m 743 1029 l 535 1216 l 541 1245 l 715 1245 l 848 1050 l 843 1029 l 743 1029 m 469 1029 l 260 1216 l 267 1245 l 440 1245 l 574 1050 l 568 1029 l 469 1029 z "},"ȕ":{"ha":848,"x_min":58,"x_max":824,"o":"m 347 734 l 267 330 q 250 218 250 247 q 353 131 250 131 q 479 186 421 131 q 553 323 537 241 l 633 734 l 824 734 l 711 157 q 686 0 701 103 l 504 0 q 510 57 504 6 q 520 125 517 108 l 518 125 q 405 20 467 53 q 265 -13 344 -13 q 110 37 162 -13 q 58 180 58 86 q 62 234 58 197 q 72 291 67 272 l 158 734 l 347 734 m 624 802 l 416 989 l 422 1019 l 595 1019 l 729 823 l 724 802 l 624 802 m 349 802 l 141 989 l 147 1019 l 321 1019 l 454 823 l 449 802 l 349 802 z "},"Ȗ":{"ha":1003,"x_min":81,"x_max":1031,"o":"m 467 143 q 636 195 578 143 q 718 367 694 246 l 831 956 l 1031 956 l 916 359 q 766 78 878 169 q 456 -14 654 -14 q 179 66 277 -14 q 81 292 81 146 q 86 364 81 322 q 96 431 91 406 l 197 956 l 397 956 l 293 406 q 281 290 281 347 q 330 181 281 220 q 467 143 380 143 m 642 1238 q 796 1187 739 1238 q 854 1052 854 1135 l 852 1026 l 742 1026 q 712 1104 742 1076 q 631 1132 682 1132 q 537 1105 575 1132 q 484 1026 499 1078 l 372 1026 q 467 1187 401 1135 q 642 1238 532 1238 z "},"ȗ":{"ha":848,"x_min":58,"x_max":824,"o":"m 347 734 l 267 330 q 250 218 250 247 q 353 131 250 131 q 479 186 421 131 q 553 323 537 241 l 633 734 l 824 734 l 711 157 q 686 0 701 103 l 504 0 q 510 57 504 6 q 520 125 517 108 l 518 125 q 405 20 467 53 q 265 -13 344 -13 q 110 37 162 -13 q 58 180 58 86 q 62 234 58 197 q 72 291 67 272 l 158 734 l 347 734 m 523 1015 q 677 963 620 1015 q 735 828 735 911 l 734 802 l 623 802 q 593 880 623 852 q 512 908 563 908 q 418 881 456 908 q 365 802 380 854 l 254 802 q 348 963 282 911 q 523 1015 414 1015 z "},"Ș":{"ha":926,"x_min":17,"x_max":912,"o":"m 407 -14 q 131 51 226 -14 q 17 248 36 115 l 213 281 q 276 171 227 205 q 420 136 326 136 q 654 271 654 136 q 614 357 654 326 q 452 419 573 389 q 268 488 328 452 q 176 576 208 524 q 144 703 144 628 q 251 897 144 823 q 533 970 357 970 q 792 911 694 970 q 912 740 890 852 l 717 694 q 652 792 702 755 q 522 828 602 828 q 390 797 438 828 q 342 710 342 765 q 359 656 342 678 q 411 617 377 633 q 545 573 445 600 q 705 517 653 543 q 787 458 756 491 q 834 384 818 426 q 850 287 850 342 q 738 63 850 140 q 407 -14 625 -14 m 391 -309 l 298 -309 q 385 -193 374 -241 l 311 -193 l 338 -53 l 505 -53 l 488 -138 q 458 -224 479 -186 q 391 -309 437 -263 z "},"ș":{"ha":772,"x_min":16,"x_max":725,"o":"m 678 227 q 591 47 678 109 q 337 -14 504 -14 q 122 35 201 -14 q 16 184 43 83 l 186 208 q 238 135 200 157 q 351 113 276 113 q 463 136 425 113 q 501 205 501 160 q 473 259 501 240 q 349 298 445 277 q 159 382 214 328 q 104 522 104 436 q 189 688 104 630 q 432 745 274 745 q 640 697 572 745 q 725 550 709 650 l 555 530 q 510 598 543 577 q 419 619 477 619 q 280 538 280 619 q 294 500 280 515 q 332 475 307 486 q 453 441 357 464 q 627 362 576 414 q 678 227 678 311 m 317 -309 l 224 -309 q 310 -193 300 -241 l 237 -193 l 264 -53 l 430 -53 l 414 -138 q 383 -224 404 -186 q 317 -309 362 -263 z "},"Ț":{"ha":848,"x_min":98,"x_max":946,"o":"m 607 801 l 451 0 l 251 0 l 407 801 l 98 801 l 128 956 l 946 956 l 916 801 l 607 801 m 315 -309 l 222 -309 q 308 -193 298 -241 l 235 -193 l 262 -53 l 428 -53 l 412 -138 q 381 -224 402 -186 q 315 -309 360 -263 z "},"ț":{"ha":463,"x_min":58,"x_max":510,"o":"m 255 -11 q 125 29 171 -11 q 79 142 79 68 q 90 248 79 190 l 159 605 l 58 605 l 83 734 l 193 734 l 286 906 l 406 906 l 373 734 l 510 734 l 486 605 l 347 605 l 277 242 q 269 182 269 204 q 285 135 269 151 q 328 120 301 120 q 401 129 350 120 l 380 5 q 255 -11 325 -11 m 195 -309 l 102 -309 q 188 -193 178 -241 l 115 -193 l 142 -53 l 308 -53 l 292 -138 q 261 -224 282 -186 q 195 -309 240 -263 z "},"Ȝ":{"ha":802,"x_min":-54,"x_max":815,"o":"m 529 279 q 513 365 529 335 q 41 206 402 305 l 71 364 q 349 453 242 414 q 505 524 456 492 q 579 596 553 555 q 604 693 604 637 q 566 781 604 749 q 458 812 527 812 q 358 801 392 812 q 298 765 323 790 q 255 695 273 741 l 75 728 q 132 837 98 791 q 209 911 165 882 q 311 955 252 940 q 469 970 370 970 q 723 905 631 970 q 815 728 815 841 q 802 636 815 676 q 763 559 789 595 q 676 471 736 524 q 730 303 730 401 q 684 101 730 191 q 551 -59 638 11 q 322 -184 465 -128 q -54 -290 180 -240 l -23 -125 q 97 -96 34 -111 q 221 -58 159 -80 q 338 -7 282 -36 q 436 63 394 22 q 504 156 479 103 q 529 279 529 210 z "},"ȝ":{"ha":722,"x_min":-75,"x_max":707,"o":"m 519 528 q 489 598 519 573 q 402 623 458 623 q 299 592 345 623 q 230 507 254 561 l 82 543 q 206 694 117 642 q 420 747 295 747 q 634 693 562 747 q 707 535 707 640 q 575 309 707 405 q 616 243 601 284 q 631 159 631 201 q 586 -19 631 59 q 458 -151 541 -96 q 243 -242 376 -205 q -75 -292 110 -279 l -46 -145 q 318 -49 198 -125 q 438 153 438 27 q 421 225 438 195 q 7 130 298 179 l 35 275 q 211 307 144 293 q 348 344 278 320 q 450 390 417 368 q 502 446 484 413 q 519 528 519 479 z "},"Ȟ":{"ha":1003,"x_min":24,"x_max":1027,"o":"m 648 0 l 728 410 l 304 410 l 224 0 l 24 0 l 210 956 l 410 956 l 336 575 l 760 575 l 834 956 l 1027 956 l 841 0 l 648 0 m 694 1038 l 539 1038 l 401 1225 l 404 1244 l 506 1244 l 629 1141 l 632 1141 l 789 1244 l 904 1244 l 900 1225 l 694 1038 z "},"ȟ":{"ha":848,"x_min":24,"x_max":863,"o":"m 408 1006 l 354 732 l 328 608 l 330 608 q 442 713 380 679 q 583 747 503 747 q 738 697 686 747 q 790 554 790 648 q 785 500 790 537 q 776 443 781 463 l 690 0 l 500 0 l 581 404 q 598 515 598 488 q 495 603 598 603 q 368 547 427 603 q 295 411 310 492 l 215 0 l 24 0 l 218 1006 l 408 1006 m 654 1038 l 498 1038 l 360 1225 l 363 1244 l 465 1244 l 589 1141 l 591 1141 l 749 1244 l 863 1244 l 859 1225 l 654 1038 z "},"Ƞ":{"ha":983,"x_min":28,"x_max":943,"o":"m 758 -288 l 561 -288 l 717 511 q 737 661 737 604 q 702 777 737 741 q 591 813 666 813 q 367 725 475 813 l 226 0 l 28 0 l 214 956 l 399 956 l 381 867 q 518 943 444 916 q 668 970 592 970 q 873 906 803 970 q 943 714 943 842 q 924 566 943 657 l 758 -288 z "},"ȡ":{"ha":1099,"x_min":39,"x_max":1088,"o":"m 508 109 q 404 16 460 45 q 266 -14 348 -14 q 100 55 161 -14 q 39 240 39 124 q 83 494 39 370 q 204 683 126 618 q 393 747 283 747 q 532 713 477 747 q 606 613 587 679 l 610 613 q 617 670 612 635 q 684 1006 623 705 l 872 1006 l 709 146 l 698 76 q 883 130 786 130 q 1033 83 978 130 q 1088 -46 1088 35 q 1010 -223 1088 -159 q 800 -288 932 -288 q 662 -264 728 -288 q 545 -193 597 -241 l 452 -284 l 357 -182 q 503 -46 391 -143 l 501 -25 l 501 -4 q 511 109 501 60 l 508 109 m 349 117 q 443 140 404 117 q 510 212 482 163 q 554 334 538 260 q 571 462 571 407 q 539 580 571 543 q 444 617 507 617 q 331 570 374 617 q 264 433 287 524 q 241 267 241 343 q 349 117 241 117 m 815 -155 q 895 -133 865 -155 q 924 -75 924 -111 q 901 -26 924 -44 q 844 -8 878 -8 q 687 -73 751 -8 q 728 -131 691 -107 q 815 -155 766 -155 z "}}}
